%TF.GenerationSoftware,KiCad,Pcbnew,(6.0.4)*%
%TF.CreationDate,2022-05-24T13:19:39+01:00*%
%TF.ProjectId,1u-mixer,31752d6d-6978-4657-922e-6b696361645f,rev?*%
%TF.SameCoordinates,Original*%
%TF.FileFunction,Profile,NP*%
%FSLAX46Y46*%
G04 Gerber Fmt 4.6, Leading zero omitted, Abs format (unit mm)*
G04 Created by KiCad (PCBNEW (6.0.4)) date 2022-05-24 13:19:39*
%MOMM*%
%LPD*%
G01*
G04 APERTURE LIST*
%TA.AperFunction,Profile*%
%ADD10C,0.200000*%
%TD*%
%ADD11C,0.200000*%
G04 APERTURE END LIST*
D10*
X60690000Y-125730000D02*
X222690000Y-125730000D01*
D11*
X219008000Y-121145800D02*
X219251651Y-121164234D01*
X219483770Y-121217729D01*
X219701641Y-121303569D01*
X219902550Y-121419043D01*
X220083781Y-121561435D01*
X220242619Y-121728032D01*
X220376349Y-121916122D01*
X220482256Y-122122989D01*
X220557624Y-122345920D01*
X220599738Y-122582201D01*
X220608000Y-122745800D01*
D10*
X222690000Y-125730000D02*
X222690000Y-82550000D01*
D11*
X64481000Y-87160200D02*
X64237348Y-87141765D01*
X64005229Y-87088270D01*
X63787358Y-87002430D01*
X63586449Y-86886956D01*
X63405218Y-86744564D01*
X63246380Y-86577967D01*
X63112650Y-86389877D01*
X63006743Y-86183010D01*
X62931375Y-85960079D01*
X62889261Y-85723798D01*
X62881000Y-85560200D01*
X62881000Y-122745800D02*
X62899436Y-122502125D01*
X62952937Y-122269992D01*
X63038786Y-122052114D01*
X63154269Y-121851205D01*
X63296670Y-121669978D01*
X63463274Y-121511147D01*
X63651366Y-121377427D01*
X63858231Y-121271529D01*
X64081153Y-121196169D01*
X64317418Y-121154060D01*
X64481000Y-121145800D01*
D10*
X222690000Y-82550000D02*
X60690000Y-82550000D01*
X60690000Y-82550000D02*
X60690000Y-125730000D01*
D11*
X66481000Y-83960200D02*
X66724651Y-83978634D01*
X66956770Y-84032129D01*
X67174641Y-84117969D01*
X67375550Y-84233443D01*
X67556781Y-84375835D01*
X67715619Y-84542432D01*
X67849349Y-84730522D01*
X67955256Y-84937389D01*
X68030624Y-85160320D01*
X68072738Y-85396601D01*
X68081000Y-85560200D01*
X220608000Y-85560200D02*
X220589563Y-85803874D01*
X220536062Y-86036007D01*
X220450213Y-86253885D01*
X220334730Y-86454794D01*
X220192329Y-86636021D01*
X220025725Y-86794852D01*
X219837633Y-86928572D01*
X219630768Y-87034470D01*
X219407846Y-87109830D01*
X219171581Y-87151939D01*
X219008000Y-87160200D01*
D10*
X60690000Y-125730000D02*
X60690000Y-125730000D01*
D11*
X68081000Y-85560200D02*
X68062563Y-85803874D01*
X68009062Y-86036007D01*
X67923213Y-86253885D01*
X67807730Y-86454794D01*
X67665329Y-86636021D01*
X67498725Y-86794852D01*
X67310633Y-86928572D01*
X67103768Y-87034470D01*
X66880846Y-87109830D01*
X66644581Y-87151939D01*
X66481000Y-87160200D01*
X62881000Y-85560200D02*
X62899436Y-85316525D01*
X62952937Y-85084392D01*
X63038786Y-84866514D01*
X63154269Y-84665605D01*
X63296670Y-84484378D01*
X63463274Y-84325547D01*
X63651366Y-84191827D01*
X63858231Y-84085929D01*
X64081153Y-84010569D01*
X64317418Y-83968460D01*
X64481000Y-83960200D01*
X64481000Y-83960200D02*
X66481000Y-83960200D01*
X64481000Y-87160200D02*
X66481000Y-87160200D01*
X66481000Y-83960200D02*
X66724651Y-83978634D01*
X66956770Y-84032129D01*
X67174641Y-84117969D01*
X67375550Y-84233443D01*
X67556781Y-84375835D01*
X67715619Y-84542432D01*
X67849349Y-84730522D01*
X67955256Y-84937389D01*
X68030624Y-85160320D01*
X68072738Y-85396601D01*
X68081000Y-85560200D01*
X68081000Y-85560200D02*
X68062563Y-85803874D01*
X68009062Y-86036007D01*
X67923213Y-86253885D01*
X67807730Y-86454794D01*
X67665329Y-86636021D01*
X67498725Y-86794852D01*
X67310633Y-86928572D01*
X67103768Y-87034470D01*
X66880846Y-87109830D01*
X66644581Y-87151939D01*
X66481000Y-87160200D01*
X64481000Y-87160200D02*
X64237348Y-87141765D01*
X64005229Y-87088270D01*
X63787358Y-87002430D01*
X63586449Y-86886956D01*
X63405218Y-86744564D01*
X63246380Y-86577967D01*
X63112650Y-86389877D01*
X63006743Y-86183010D01*
X62931375Y-85960079D01*
X62889261Y-85723798D01*
X62881000Y-85560200D01*
X99404600Y-103054000D02*
X99711340Y-103069489D01*
X100009217Y-103114951D01*
X100296725Y-103188878D01*
X100572354Y-103289762D01*
X100834598Y-103416094D01*
X101081948Y-103566367D01*
X101312897Y-103739071D01*
X101525937Y-103932700D01*
X101719560Y-104145743D01*
X101892259Y-104376695D01*
X102042525Y-104624045D01*
X102168851Y-104886287D01*
X102269729Y-105161911D01*
X102343652Y-105449410D01*
X102389111Y-105747276D01*
X102404600Y-106054000D01*
X62881000Y-85560200D02*
X62899436Y-85316525D01*
X62952937Y-85084392D01*
X63038786Y-84866514D01*
X63154269Y-84665605D01*
X63296670Y-84484378D01*
X63463274Y-84325547D01*
X63651366Y-84191827D01*
X63858231Y-84085929D01*
X64081153Y-84010569D01*
X64317418Y-83968460D01*
X64481000Y-83960200D01*
X64481000Y-83960200D02*
X66481000Y-83960200D01*
X194181000Y-99678000D02*
X194196488Y-99371276D01*
X194241947Y-99073410D01*
X194315870Y-98785911D01*
X194416748Y-98510287D01*
X194543074Y-98248045D01*
X194693340Y-98000695D01*
X194866039Y-97769743D01*
X195059662Y-97556700D01*
X195272702Y-97363071D01*
X195503651Y-97190367D01*
X195751001Y-97040094D01*
X196013245Y-96913762D01*
X196288874Y-96812878D01*
X196576382Y-96738951D01*
X196874259Y-96693489D01*
X197181000Y-96678000D01*
X64481000Y-87160200D02*
X66481000Y-87160200D01*
X209912600Y-103054000D02*
X210219340Y-103069489D01*
X210517217Y-103114951D01*
X210804725Y-103188878D01*
X211080354Y-103289762D01*
X211342598Y-103416094D01*
X211589948Y-103566367D01*
X211820897Y-103739071D01*
X212033937Y-103932700D01*
X212227560Y-104145743D01*
X212400259Y-104376695D01*
X212550525Y-104624045D01*
X212676851Y-104886287D01*
X212777729Y-105161911D01*
X212851652Y-105449410D01*
X212897111Y-105747276D01*
X212912600Y-106054000D01*
X66481000Y-121145800D02*
X66724651Y-121164234D01*
X66956770Y-121217729D01*
X67174641Y-121303569D01*
X67375550Y-121419043D01*
X67556781Y-121561435D01*
X67715619Y-121728032D01*
X67849349Y-121916122D01*
X67955256Y-122122989D01*
X68030624Y-122345920D01*
X68072738Y-122582201D01*
X68081000Y-122745800D01*
X64481000Y-124345800D02*
X64237348Y-124327365D01*
X64005229Y-124273870D01*
X63787358Y-124188030D01*
X63586449Y-124072556D01*
X63405218Y-123930164D01*
X63246380Y-123763567D01*
X63112650Y-123575477D01*
X63006743Y-123368610D01*
X62931375Y-123145679D01*
X62889261Y-122909398D01*
X62881000Y-122745800D01*
X68081000Y-122745800D02*
X68062563Y-122989474D01*
X68009062Y-123221607D01*
X67923213Y-123439485D01*
X67807730Y-123640394D01*
X67665329Y-123821621D01*
X67498725Y-123980452D01*
X67310633Y-124114172D01*
X67103768Y-124220070D01*
X66880846Y-124295430D01*
X66644581Y-124337539D01*
X66481000Y-124345800D01*
X64481000Y-124345800D02*
X64237348Y-124327365D01*
X64005229Y-124273870D01*
X63787358Y-124188030D01*
X63586449Y-124072556D01*
X63405218Y-123930164D01*
X63246380Y-123763567D01*
X63112650Y-123575477D01*
X63006743Y-123368610D01*
X62931375Y-123145679D01*
X62889261Y-122909398D01*
X62881000Y-122745800D01*
X62881000Y-122745800D02*
X62899436Y-122502125D01*
X62952937Y-122269992D01*
X63038786Y-122052114D01*
X63154269Y-121851205D01*
X63296670Y-121669978D01*
X63463274Y-121511147D01*
X63651366Y-121377427D01*
X63858231Y-121271529D01*
X64081153Y-121196169D01*
X64317418Y-121154060D01*
X64481000Y-121145800D01*
X206912600Y-106054000D02*
X206928088Y-105747276D01*
X206973547Y-105449410D01*
X207047470Y-105161911D01*
X207148348Y-104886287D01*
X207274674Y-104624045D01*
X207424940Y-104376695D01*
X207597639Y-104145743D01*
X207791262Y-103932700D01*
X208004302Y-103739071D01*
X208235251Y-103566367D01*
X208482601Y-103416094D01*
X208744845Y-103289762D01*
X209020474Y-103188878D01*
X209307982Y-103114951D01*
X209605859Y-103069489D01*
X209912600Y-103054000D01*
X217008000Y-124345800D02*
X216764348Y-124327365D01*
X216532229Y-124273870D01*
X216314358Y-124188030D01*
X216113449Y-124072556D01*
X215932218Y-123930164D01*
X215773380Y-123763567D01*
X215639650Y-123575477D01*
X215533743Y-123368610D01*
X215458375Y-123145679D01*
X215416261Y-122909398D01*
X215408000Y-122745800D01*
X64481000Y-121145800D02*
X66481000Y-121145800D01*
X64481000Y-124345800D02*
X66481000Y-124345800D01*
X66481000Y-121145800D02*
X66724651Y-121164234D01*
X66956770Y-121217729D01*
X67174641Y-121303569D01*
X67375550Y-121419043D01*
X67556781Y-121561435D01*
X67715619Y-121728032D01*
X67849349Y-121916122D01*
X67955256Y-122122989D01*
X68030624Y-122345920D01*
X68072738Y-122582201D01*
X68081000Y-122745800D01*
X142677000Y-83960200D02*
X142920651Y-83978634D01*
X143152770Y-84032129D01*
X143370641Y-84117969D01*
X143571550Y-84233443D01*
X143752781Y-84375835D01*
X143911619Y-84542432D01*
X144045349Y-84730522D01*
X144151256Y-84937389D01*
X144226624Y-85160320D01*
X144268738Y-85396601D01*
X144277000Y-85560200D01*
X68081000Y-122745800D02*
X68062563Y-122989474D01*
X68009062Y-123221607D01*
X67923213Y-123439485D01*
X67807730Y-123640394D01*
X67665329Y-123821621D01*
X67498725Y-123980452D01*
X67310633Y-124114172D01*
X67103768Y-124220070D01*
X66880846Y-124295430D01*
X66644581Y-124337539D01*
X66481000Y-124345800D01*
X64481000Y-121145800D02*
X66481000Y-121145800D01*
X64481000Y-124345800D02*
X66481000Y-124345800D01*
X219008000Y-83960200D02*
X219251651Y-83978634D01*
X219483770Y-84032129D01*
X219701641Y-84117969D01*
X219902550Y-84233443D01*
X220083781Y-84375835D01*
X220242619Y-84542432D01*
X220376349Y-84730522D01*
X220482256Y-84937389D01*
X220557624Y-85160320D01*
X220599738Y-85396601D01*
X220608000Y-85560200D01*
X220608000Y-85560200D02*
X220589563Y-85803874D01*
X220536062Y-86036007D01*
X220450213Y-86253885D01*
X220334730Y-86454794D01*
X220192329Y-86636021D01*
X220025725Y-86794852D01*
X219837633Y-86928572D01*
X219630768Y-87034470D01*
X219407846Y-87109830D01*
X219171581Y-87151939D01*
X219008000Y-87160200D01*
X158282700Y-99678000D02*
X158267211Y-99984723D01*
X158221752Y-100282589D01*
X158147829Y-100570088D01*
X158046951Y-100845712D01*
X157920625Y-101107954D01*
X157770359Y-101355304D01*
X157597660Y-101586256D01*
X157404037Y-101799300D01*
X157190997Y-101992928D01*
X156960048Y-102165632D01*
X156712698Y-102315905D01*
X156450454Y-102442237D01*
X156174825Y-102543121D01*
X155887317Y-102617048D01*
X155589440Y-102662510D01*
X155282700Y-102678000D01*
X217008000Y-87160200D02*
X216764348Y-87141765D01*
X216532229Y-87088270D01*
X216314358Y-87002430D01*
X216113449Y-86886956D01*
X215932218Y-86744564D01*
X215773380Y-86577967D01*
X215639650Y-86389877D01*
X215533743Y-86183010D01*
X215458375Y-85960079D01*
X215416261Y-85723798D01*
X215408000Y-85560200D01*
X215408000Y-85560200D02*
X215426436Y-85316525D01*
X215479937Y-85084392D01*
X215565786Y-84866514D01*
X215681269Y-84665605D01*
X215823670Y-84484378D01*
X215990274Y-84325547D01*
X216178366Y-84191827D01*
X216385231Y-84085929D01*
X216608153Y-84010569D01*
X216844418Y-83968460D01*
X217008000Y-83960200D01*
X140677000Y-121145800D02*
X142677000Y-121145800D01*
X217008000Y-83960200D02*
X219008000Y-83960200D01*
X126068900Y-103054000D02*
X126375640Y-103069489D01*
X126673517Y-103114951D01*
X126961025Y-103188878D01*
X127236654Y-103289762D01*
X127498898Y-103416094D01*
X127746248Y-103566367D01*
X127977197Y-103739071D01*
X128190237Y-103932700D01*
X128383860Y-104145743D01*
X128556559Y-104376695D01*
X128706825Y-104624045D01*
X128833151Y-104886287D01*
X128934029Y-105161911D01*
X129007952Y-105449410D01*
X129053411Y-105747276D01*
X129068900Y-106054000D01*
X217008000Y-87160200D02*
X219008000Y-87160200D01*
X219008000Y-83960200D02*
X219251651Y-83978634D01*
X219483770Y-84032129D01*
X219701641Y-84117969D01*
X219902550Y-84233443D01*
X220083781Y-84375835D01*
X220242619Y-84542432D01*
X220376349Y-84730522D01*
X220482256Y-84937389D01*
X220557624Y-85160320D01*
X220599738Y-85396601D01*
X220608000Y-85560200D01*
X140677000Y-87160200D02*
X140433348Y-87141765D01*
X140201229Y-87088270D01*
X139983358Y-87002430D01*
X139782449Y-86886956D01*
X139601218Y-86744564D01*
X139442380Y-86577967D01*
X139308650Y-86389877D01*
X139202743Y-86183010D01*
X139127375Y-85960079D01*
X139085261Y-85723798D01*
X139077000Y-85560200D01*
X217008000Y-87160200D02*
X216764348Y-87141765D01*
X216532229Y-87088270D01*
X216314358Y-87002430D01*
X216113449Y-86886956D01*
X215932218Y-86744564D01*
X215773380Y-86577967D01*
X215639650Y-86389877D01*
X215533743Y-86183010D01*
X215458375Y-85960079D01*
X215416261Y-85723798D01*
X215408000Y-85560200D01*
X215408000Y-85560200D02*
X215426436Y-85316525D01*
X215479937Y-85084392D01*
X215565786Y-84866514D01*
X215681269Y-84665605D01*
X215823670Y-84484378D01*
X215990274Y-84325547D01*
X216178366Y-84191827D01*
X216385231Y-84085929D01*
X216608153Y-84010569D01*
X216844418Y-83968460D01*
X217008000Y-83960200D01*
X217008000Y-83960200D02*
X219008000Y-83960200D01*
X217008000Y-87160200D02*
X219008000Y-87160200D01*
X220608000Y-122745800D02*
X220589563Y-122989474D01*
X220536062Y-123221607D01*
X220450213Y-123439485D01*
X220334730Y-123640394D01*
X220192329Y-123821621D01*
X220025725Y-123980452D01*
X219837633Y-124114172D01*
X219630768Y-124220070D01*
X219407846Y-124295430D01*
X219171581Y-124337539D01*
X219008000Y-124345800D01*
X110361000Y-109188000D02*
X110376488Y-108881276D01*
X110421947Y-108583410D01*
X110495870Y-108295911D01*
X110596748Y-108020287D01*
X110723074Y-107758045D01*
X110873340Y-107510695D01*
X111046039Y-107279743D01*
X111239662Y-107066700D01*
X111452702Y-106873071D01*
X111683651Y-106700367D01*
X111931001Y-106550094D01*
X112193245Y-106423762D01*
X112468874Y-106322878D01*
X112756382Y-106248951D01*
X113054259Y-106203489D01*
X113361000Y-106188000D01*
X140677000Y-83960200D02*
X142677000Y-83960200D01*
X217008000Y-124345800D02*
X216764348Y-124327365D01*
X216532229Y-124273870D01*
X216314358Y-124188030D01*
X216113449Y-124072556D01*
X215932218Y-123930164D01*
X215773380Y-123763567D01*
X215639650Y-123575477D01*
X215533743Y-123368610D01*
X215458375Y-123145679D01*
X215416261Y-122909398D01*
X215408000Y-122745800D01*
X215408000Y-122745800D02*
X215426436Y-122502125D01*
X215479937Y-122269992D01*
X215565786Y-122052114D01*
X215681269Y-121851205D01*
X215823670Y-121669978D01*
X215990274Y-121511147D01*
X216178366Y-121377427D01*
X216385231Y-121271529D01*
X216608153Y-121196169D01*
X216844418Y-121154060D01*
X217008000Y-121145800D01*
X220608000Y-122745800D02*
X220589563Y-122989474D01*
X220536062Y-123221607D01*
X220450213Y-123439485D01*
X220334730Y-123640394D01*
X220192329Y-123821621D01*
X220025725Y-123980452D01*
X219837633Y-124114172D01*
X219630768Y-124220070D01*
X219407846Y-124295430D01*
X219171581Y-124337539D01*
X219008000Y-124345800D01*
X217008000Y-121145800D02*
X219008000Y-121145800D01*
X217008000Y-124345800D02*
X219008000Y-124345800D01*
X219008000Y-121145800D02*
X219251651Y-121164234D01*
X219483770Y-121217729D01*
X219701641Y-121303569D01*
X219902550Y-121419043D01*
X220083781Y-121561435D01*
X220242619Y-121728032D01*
X220376349Y-121916122D01*
X220482256Y-122122989D01*
X220557624Y-122345920D01*
X220599738Y-122582201D01*
X220608000Y-122745800D01*
X170958400Y-106054000D02*
X170942911Y-106360723D01*
X170897452Y-106658589D01*
X170823529Y-106946088D01*
X170722651Y-107221712D01*
X170596325Y-107483954D01*
X170446059Y-107731304D01*
X170273360Y-107962256D01*
X170079737Y-108175300D01*
X169866697Y-108368928D01*
X169635748Y-108541632D01*
X169388398Y-108691905D01*
X169126154Y-108818237D01*
X168850525Y-108919121D01*
X168563017Y-108993048D01*
X168265140Y-109038510D01*
X167958400Y-109054000D01*
X215408000Y-122745800D02*
X215426436Y-122502125D01*
X215479937Y-122269992D01*
X215565786Y-122052114D01*
X215681269Y-121851205D01*
X215823670Y-121669978D01*
X215990274Y-121511147D01*
X216178366Y-121377427D01*
X216385231Y-121271529D01*
X216608153Y-121196169D01*
X216844418Y-121154060D01*
X217008000Y-121145800D01*
X217008000Y-121145800D02*
X219008000Y-121145800D01*
X217008000Y-124345800D02*
X219008000Y-124345800D01*
X144277000Y-85560200D02*
X144258563Y-85803874D01*
X144205062Y-86036007D01*
X144119213Y-86253885D01*
X144003730Y-86454794D01*
X143861329Y-86636021D01*
X143694725Y-86794852D01*
X143506633Y-86928572D01*
X143299768Y-87034470D01*
X143076846Y-87109830D01*
X142840581Y-87151939D01*
X142677000Y-87160200D01*
X140677000Y-87160200D02*
X140433348Y-87141765D01*
X140201229Y-87088270D01*
X139983358Y-87002430D01*
X139782449Y-86886956D01*
X139601218Y-86744564D01*
X139442380Y-86577967D01*
X139308650Y-86389877D01*
X139202743Y-86183010D01*
X139127375Y-85960079D01*
X139085261Y-85723798D01*
X139077000Y-85560200D01*
X139077000Y-85560200D02*
X139095436Y-85316525D01*
X139148937Y-85084392D01*
X139234786Y-84866514D01*
X139350269Y-84665605D01*
X139492670Y-84484378D01*
X139659274Y-84325547D01*
X139847366Y-84191827D01*
X140054231Y-84085929D01*
X140277153Y-84010569D01*
X140513418Y-83968460D01*
X140677000Y-83960200D01*
X140677000Y-83960200D02*
X142677000Y-83960200D01*
X140677000Y-87160200D02*
X142677000Y-87160200D01*
X142677000Y-121145800D02*
X142920651Y-121164234D01*
X143152770Y-121217729D01*
X143370641Y-121303569D01*
X143571550Y-121419043D01*
X143752781Y-121561435D01*
X143911619Y-121728032D01*
X144045349Y-121916122D01*
X144151256Y-122122989D01*
X144226624Y-122345920D01*
X144268738Y-122582201D01*
X144277000Y-122745800D01*
X142677000Y-83960200D02*
X142920651Y-83978634D01*
X143152770Y-84032129D01*
X143370641Y-84117969D01*
X143571550Y-84233443D01*
X143752781Y-84375835D01*
X143911619Y-84542432D01*
X144045349Y-84730522D01*
X144151256Y-84937389D01*
X144226624Y-85160320D01*
X144268738Y-85396601D01*
X144277000Y-85560200D01*
X144277000Y-85560200D02*
X144258563Y-85803874D01*
X144205062Y-86036007D01*
X144119213Y-86253885D01*
X144003730Y-86454794D01*
X143861329Y-86636021D01*
X143694725Y-86794852D01*
X143506633Y-86928572D01*
X143299768Y-87034470D01*
X143076846Y-87109830D01*
X142840581Y-87151939D01*
X142677000Y-87160200D01*
X139077000Y-85560200D02*
X139095436Y-85316525D01*
X139148937Y-85084392D01*
X139234786Y-84866514D01*
X139350269Y-84665605D01*
X139492670Y-84484378D01*
X139659274Y-84325547D01*
X139847366Y-84191827D01*
X140054231Y-84085929D01*
X140277153Y-84010569D01*
X140513418Y-83968460D01*
X140677000Y-83960200D01*
X140677000Y-87160200D02*
X142677000Y-87160200D01*
X144277000Y-122745800D02*
X144258563Y-122989474D01*
X144205062Y-123221607D01*
X144119213Y-123439485D01*
X144003730Y-123640394D01*
X143861329Y-123821621D01*
X143694725Y-123980452D01*
X143506633Y-124114172D01*
X143299768Y-124220070D01*
X143076846Y-124295430D01*
X142840581Y-124337539D01*
X142677000Y-124345800D01*
X140677000Y-124345800D02*
X140433348Y-124327365D01*
X140201229Y-124273870D01*
X139983358Y-124188030D01*
X139782449Y-124072556D01*
X139601218Y-123930164D01*
X139442380Y-123763567D01*
X139308650Y-123575477D01*
X139202743Y-123368610D01*
X139127375Y-123145679D01*
X139085261Y-122909398D01*
X139077000Y-122745800D01*
X139077000Y-122745800D02*
X139095436Y-122502125D01*
X139148937Y-122269992D01*
X139234786Y-122052114D01*
X139350269Y-121851205D01*
X139492670Y-121669978D01*
X139659274Y-121511147D01*
X139847366Y-121377427D01*
X140054231Y-121271529D01*
X140277153Y-121196169D01*
X140513418Y-121154060D01*
X140677000Y-121145800D01*
X140677000Y-124345800D02*
X142677000Y-124345800D01*
X142677000Y-121145800D02*
X142920651Y-121164234D01*
X143152770Y-121217729D01*
X143370641Y-121303569D01*
X143571550Y-121419043D01*
X143752781Y-121561435D01*
X143911619Y-121728032D01*
X144045349Y-121916122D01*
X144151256Y-122122989D01*
X144226624Y-122345920D01*
X144268738Y-122582201D01*
X144277000Y-122745800D01*
X144277000Y-122745800D02*
X144258563Y-122989474D01*
X144205062Y-123221607D01*
X144119213Y-123439485D01*
X144003730Y-123640394D01*
X143861329Y-123821621D01*
X143694725Y-123980452D01*
X143506633Y-124114172D01*
X143299768Y-124220070D01*
X143076846Y-124295430D01*
X142840581Y-124337539D01*
X142677000Y-124345800D01*
X126068900Y-109054000D02*
X125762159Y-109038510D01*
X125464282Y-108993048D01*
X125176774Y-108919121D01*
X124901145Y-108818237D01*
X124638901Y-108691905D01*
X124391551Y-108541632D01*
X124160602Y-108368928D01*
X123947562Y-108175300D01*
X123753939Y-107962256D01*
X123581240Y-107731304D01*
X123430974Y-107483954D01*
X123304648Y-107221712D01*
X123203770Y-106946088D01*
X123129847Y-106658589D01*
X123084388Y-106360723D01*
X123068900Y-106054000D01*
X140677000Y-124345800D02*
X140433348Y-124327365D01*
X140201229Y-124273870D01*
X139983358Y-124188030D01*
X139782449Y-124072556D01*
X139601218Y-123930164D01*
X139442380Y-123763567D01*
X139308650Y-123575477D01*
X139202743Y-123368610D01*
X139127375Y-123145679D01*
X139085261Y-122909398D01*
X139077000Y-122745800D01*
X129068900Y-106054000D02*
X129053411Y-106360723D01*
X129007952Y-106658589D01*
X128934029Y-106946088D01*
X128833151Y-107221712D01*
X128706825Y-107483954D01*
X128556559Y-107731304D01*
X128383860Y-107962256D01*
X128190237Y-108175300D01*
X127977197Y-108368928D01*
X127746248Y-108541632D01*
X127498898Y-108691905D01*
X127236654Y-108818237D01*
X126961025Y-108919121D01*
X126673517Y-108993048D01*
X126375640Y-109038510D01*
X126068900Y-109054000D01*
X139077000Y-122745800D02*
X139095436Y-122502125D01*
X139148937Y-122269992D01*
X139234786Y-122052114D01*
X139350269Y-121851205D01*
X139492670Y-121669978D01*
X139659274Y-121511147D01*
X139847366Y-121377427D01*
X140054231Y-121271529D01*
X140277153Y-121196169D01*
X140513418Y-121154060D01*
X140677000Y-121145800D01*
X140677000Y-121145800D02*
X142677000Y-121145800D01*
X140677000Y-124345800D02*
X142677000Y-124345800D01*
X200181000Y-99678000D02*
X200165511Y-99984723D01*
X200120052Y-100282589D01*
X200046129Y-100570088D01*
X199945251Y-100845712D01*
X199818925Y-101107954D01*
X199668659Y-101355304D01*
X199495960Y-101586256D01*
X199302337Y-101799300D01*
X199089297Y-101992928D01*
X198858348Y-102165632D01*
X198610998Y-102315905D01*
X198348754Y-102442237D01*
X198073125Y-102543121D01*
X197785617Y-102617048D01*
X197487740Y-102662510D01*
X197181000Y-102678000D01*
X71489000Y-96677600D02*
X71795740Y-96693089D01*
X72093617Y-96738551D01*
X72381125Y-96812478D01*
X72656754Y-96913362D01*
X72918998Y-97039694D01*
X73166348Y-97189967D01*
X73397297Y-97362671D01*
X73610337Y-97556300D01*
X73803960Y-97769343D01*
X73976659Y-98000295D01*
X74126925Y-98247645D01*
X74253251Y-98509887D01*
X74354129Y-98785511D01*
X74428052Y-99073010D01*
X74473511Y-99370876D01*
X74489000Y-99677600D01*
X74489000Y-99677600D02*
X74473511Y-99984323D01*
X74428052Y-100282189D01*
X74354129Y-100569688D01*
X74253251Y-100845312D01*
X74126925Y-101107554D01*
X73976659Y-101354904D01*
X73803960Y-101585856D01*
X73610337Y-101798900D01*
X73397297Y-101992528D01*
X73166348Y-102165232D01*
X72918998Y-102315505D01*
X72656754Y-102441837D01*
X72381125Y-102542721D01*
X72093617Y-102616648D01*
X71795740Y-102662110D01*
X71489000Y-102677600D01*
X71489000Y-102677600D02*
X71182259Y-102662110D01*
X70884382Y-102616648D01*
X70596874Y-102542721D01*
X70321245Y-102441837D01*
X70059001Y-102315505D01*
X69811651Y-102165232D01*
X69580702Y-101992528D01*
X69367662Y-101798900D01*
X69174039Y-101585856D01*
X69001340Y-101354904D01*
X68851074Y-101107554D01*
X68724748Y-100845312D01*
X68623870Y-100569688D01*
X68549947Y-100282189D01*
X68504488Y-99984323D01*
X68489000Y-99677600D01*
X68489000Y-99677600D02*
X68504488Y-99370876D01*
X68549947Y-99073010D01*
X68623870Y-98785511D01*
X68724748Y-98509887D01*
X68851074Y-98247645D01*
X69001340Y-98000295D01*
X69174039Y-97769343D01*
X69367662Y-97556300D01*
X69580702Y-97362671D01*
X69811651Y-97189967D01*
X70059001Y-97039694D01*
X70321245Y-96913362D01*
X70596874Y-96812478D01*
X70884382Y-96738551D01*
X71182259Y-96693089D01*
X71489000Y-96677600D01*
X209912600Y-109054000D02*
X209605859Y-109038510D01*
X209307982Y-108993048D01*
X209020474Y-108919121D01*
X208744845Y-108818237D01*
X208482601Y-108691905D01*
X208235251Y-108541632D01*
X208004302Y-108368928D01*
X207791262Y-108175300D01*
X207597639Y-107962256D01*
X207424940Y-107731304D01*
X207274674Y-107483954D01*
X207148348Y-107221712D01*
X207047470Y-106946088D01*
X206973547Y-106658589D01*
X206928088Y-106360723D01*
X206912600Y-106054000D01*
X113361000Y-96678000D02*
X113667740Y-96693489D01*
X113965617Y-96738951D01*
X114253125Y-96812878D01*
X114528754Y-96913762D01*
X114790998Y-97040094D01*
X115038348Y-97190367D01*
X115269297Y-97363071D01*
X115482337Y-97556700D01*
X115675960Y-97769743D01*
X115848659Y-98000695D01*
X115998925Y-98248045D01*
X116125251Y-98510287D01*
X116226129Y-98785911D01*
X116300052Y-99073410D01*
X116345511Y-99371276D01*
X116361000Y-99678000D01*
X116361000Y-99678000D02*
X116345511Y-99984723D01*
X116300052Y-100282589D01*
X116226129Y-100570088D01*
X116125251Y-100845712D01*
X115998925Y-101107954D01*
X115848659Y-101355304D01*
X115675960Y-101586256D01*
X115482337Y-101799300D01*
X115269297Y-101992928D01*
X115038348Y-102165632D01*
X114790998Y-102315905D01*
X114528754Y-102442237D01*
X114253125Y-102543121D01*
X113965617Y-102617048D01*
X113667740Y-102662510D01*
X113361000Y-102678000D01*
X113361000Y-102678000D02*
X113054259Y-102662510D01*
X112756382Y-102617048D01*
X112468874Y-102543121D01*
X112193245Y-102442237D01*
X111931001Y-102315905D01*
X111683651Y-102165632D01*
X111452702Y-101992928D01*
X111239662Y-101799300D01*
X111046039Y-101586256D01*
X110873340Y-101355304D01*
X110723074Y-101107954D01*
X110596748Y-100845712D01*
X110495870Y-100570088D01*
X110421947Y-100282589D01*
X110376488Y-99984723D01*
X110361000Y-99678000D01*
X110361000Y-99678000D02*
X110376488Y-99371276D01*
X110421947Y-99073410D01*
X110495870Y-98785911D01*
X110596748Y-98510287D01*
X110723074Y-98248045D01*
X110873340Y-98000695D01*
X111046039Y-97769743D01*
X111239662Y-97556700D01*
X111452702Y-97363071D01*
X111683651Y-97190367D01*
X111931001Y-97040094D01*
X112193245Y-96913762D01*
X112468874Y-96812878D01*
X112756382Y-96738951D01*
X113054259Y-96693489D01*
X113361000Y-96678000D01*
X155282700Y-96678000D02*
X155589440Y-96693489D01*
X155887317Y-96738951D01*
X156174825Y-96812878D01*
X156450454Y-96913762D01*
X156712698Y-97040094D01*
X156960048Y-97190367D01*
X157190997Y-97363071D01*
X157404037Y-97556700D01*
X157597660Y-97769743D01*
X157770359Y-98000695D01*
X157920625Y-98248045D01*
X158046951Y-98510287D01*
X158147829Y-98785911D01*
X158221752Y-99073410D01*
X158267211Y-99371276D01*
X158282700Y-99678000D01*
X155282700Y-102678000D02*
X154975959Y-102662510D01*
X154678082Y-102617048D01*
X154390574Y-102543121D01*
X154114945Y-102442237D01*
X153852701Y-102315905D01*
X153605351Y-102165632D01*
X153374402Y-101992928D01*
X153161362Y-101799300D01*
X152967739Y-101586256D01*
X152795040Y-101355304D01*
X152644774Y-101107954D01*
X152518448Y-100845712D01*
X152417570Y-100570088D01*
X152343647Y-100282589D01*
X152298188Y-99984723D01*
X152282700Y-99678000D01*
X197181100Y-106188000D02*
X197487840Y-106203489D01*
X197785717Y-106248951D01*
X198073225Y-106322878D01*
X198348854Y-106423762D01*
X198611098Y-106550094D01*
X198858448Y-106700367D01*
X199089397Y-106873071D01*
X199302437Y-107066700D01*
X199496060Y-107279743D01*
X199668759Y-107510695D01*
X199819025Y-107758045D01*
X199945351Y-108020287D01*
X200046229Y-108295911D01*
X200120152Y-108583410D01*
X200165611Y-108881276D01*
X200181100Y-109188000D01*
X152282700Y-99678000D02*
X152298188Y-99371276D01*
X152343647Y-99073410D01*
X152417570Y-98785911D01*
X152518448Y-98510287D01*
X152644774Y-98248045D01*
X152795040Y-98000695D01*
X152967739Y-97769743D01*
X153161362Y-97556700D01*
X153374402Y-97363071D01*
X153605351Y-97190367D01*
X153852701Y-97040094D01*
X154114945Y-96913762D01*
X154390574Y-96812878D01*
X154678082Y-96738951D01*
X154975959Y-96693489D01*
X155282700Y-96678000D01*
X197181000Y-96678000D02*
X197487740Y-96693489D01*
X197785617Y-96738951D01*
X198073125Y-96812878D01*
X198348754Y-96913762D01*
X198610998Y-97040094D01*
X198858348Y-97190367D01*
X199089297Y-97363071D01*
X199302337Y-97556700D01*
X199495960Y-97769743D01*
X199668659Y-98000695D01*
X199818925Y-98248045D01*
X199945251Y-98510287D01*
X200046129Y-98785911D01*
X200120052Y-99073410D01*
X200165511Y-99371276D01*
X200181000Y-99678000D01*
X197181000Y-102678000D02*
X196874259Y-102662510D01*
X196576382Y-102617048D01*
X196288874Y-102543121D01*
X196013245Y-102442237D01*
X195751001Y-102315905D01*
X195503651Y-102165632D01*
X195272702Y-101992928D01*
X195059662Y-101799300D01*
X194866039Y-101586256D01*
X194693340Y-101355304D01*
X194543074Y-101107954D01*
X194416748Y-100845712D01*
X194315870Y-100570088D01*
X194241947Y-100282589D01*
X194196488Y-99984723D01*
X194181000Y-99678000D01*
X71489300Y-106188000D02*
X71796040Y-106203489D01*
X72093917Y-106248951D01*
X72381425Y-106322878D01*
X72657054Y-106423762D01*
X72919298Y-106550094D01*
X73166648Y-106700367D01*
X73397597Y-106873071D01*
X73610637Y-107066700D01*
X73804260Y-107279743D01*
X73976959Y-107510695D01*
X74127225Y-107758045D01*
X74253551Y-108020287D01*
X74354429Y-108295911D01*
X74428352Y-108583410D01*
X74473811Y-108881276D01*
X74489300Y-109188000D01*
X74489300Y-109188000D02*
X74473811Y-109494723D01*
X74428352Y-109792589D01*
X74354429Y-110080088D01*
X74253551Y-110355712D01*
X74127225Y-110617954D01*
X73976959Y-110865304D01*
X73804260Y-111096256D01*
X73610637Y-111309300D01*
X73397597Y-111502928D01*
X73166648Y-111675632D01*
X72919298Y-111825905D01*
X72657054Y-111952237D01*
X72381425Y-112053121D01*
X72093917Y-112127048D01*
X71796040Y-112172510D01*
X71489300Y-112188000D01*
X71489300Y-112188000D02*
X71182559Y-112172510D01*
X70884682Y-112127048D01*
X70597174Y-112053121D01*
X70321545Y-111952237D01*
X70059301Y-111825905D01*
X69811951Y-111675632D01*
X69581002Y-111502928D01*
X69367962Y-111309300D01*
X69174339Y-111096256D01*
X69001640Y-110865304D01*
X68851374Y-110617954D01*
X68725048Y-110355712D01*
X68624170Y-110080088D01*
X68550247Y-109792589D01*
X68504788Y-109494723D01*
X68489300Y-109188000D01*
X68489300Y-109188000D02*
X68504788Y-108881276D01*
X68550247Y-108583410D01*
X68624170Y-108295911D01*
X68725048Y-108020287D01*
X68851374Y-107758045D01*
X69001640Y-107510695D01*
X69174339Y-107279743D01*
X69367962Y-107066700D01*
X69581002Y-106873071D01*
X69811951Y-106700367D01*
X70059301Y-106550094D01*
X70321545Y-106423762D01*
X70597174Y-106322878D01*
X70884682Y-106248951D01*
X71182559Y-106203489D01*
X71489300Y-106188000D01*
X113361000Y-106188000D02*
X113667740Y-106203489D01*
X113965617Y-106248951D01*
X114253125Y-106322878D01*
X114528754Y-106423762D01*
X114790998Y-106550094D01*
X115038348Y-106700367D01*
X115269297Y-106873071D01*
X115482337Y-107066700D01*
X115675960Y-107279743D01*
X115848659Y-107510695D01*
X115998925Y-107758045D01*
X116125251Y-108020287D01*
X116226129Y-108295911D01*
X116300052Y-108583410D01*
X116345511Y-108881276D01*
X116361000Y-109188000D01*
X116361000Y-109188000D02*
X116345511Y-109494723D01*
X116300052Y-109792589D01*
X116226129Y-110080088D01*
X116125251Y-110355712D01*
X115998925Y-110617954D01*
X115848659Y-110865304D01*
X115675960Y-111096256D01*
X115482337Y-111309300D01*
X115269297Y-111502928D01*
X115038348Y-111675632D01*
X114790998Y-111825905D01*
X114528754Y-111952237D01*
X114253125Y-112053121D01*
X113965617Y-112127048D01*
X113667740Y-112172510D01*
X113361000Y-112188000D01*
X113361000Y-112188000D02*
X113054259Y-112172510D01*
X112756382Y-112127048D01*
X112468874Y-112053121D01*
X112193245Y-111952237D01*
X111931001Y-111825905D01*
X111683651Y-111675632D01*
X111452702Y-111502928D01*
X111239662Y-111309300D01*
X111046039Y-111096256D01*
X110873340Y-110865304D01*
X110723074Y-110617954D01*
X110596748Y-110355712D01*
X110495870Y-110080088D01*
X110421947Y-109792589D01*
X110376488Y-109494723D01*
X110361000Y-109188000D01*
X155283000Y-106188000D02*
X155589740Y-106203489D01*
X155887617Y-106248951D01*
X156175125Y-106322878D01*
X156450754Y-106423762D01*
X156712998Y-106550094D01*
X156960348Y-106700367D01*
X157191297Y-106873071D01*
X157404337Y-107066700D01*
X157597960Y-107279743D01*
X157770659Y-107510695D01*
X157920925Y-107758045D01*
X158047251Y-108020287D01*
X158148129Y-108295911D01*
X158222052Y-108583410D01*
X158267511Y-108881276D01*
X158283000Y-109188000D01*
X158283000Y-109188000D02*
X158267511Y-109494723D01*
X158222052Y-109792589D01*
X158148129Y-110080088D01*
X158047251Y-110355712D01*
X157920925Y-110617954D01*
X157770659Y-110865304D01*
X157597960Y-111096256D01*
X157404337Y-111309300D01*
X157191297Y-111502928D01*
X156960348Y-111675632D01*
X156712998Y-111825905D01*
X156450754Y-111952237D01*
X156175125Y-112053121D01*
X155887617Y-112127048D01*
X155589740Y-112172510D01*
X155283000Y-112188000D01*
X155283000Y-112188000D02*
X154976259Y-112172510D01*
X154678382Y-112127048D01*
X154390874Y-112053121D01*
X154115245Y-111952237D01*
X153853001Y-111825905D01*
X153605651Y-111675632D01*
X153374702Y-111502928D01*
X153161662Y-111309300D01*
X152968039Y-111096256D01*
X152795340Y-110865304D01*
X152645074Y-110617954D01*
X152518748Y-110355712D01*
X152417870Y-110080088D01*
X152343947Y-109792589D01*
X152298488Y-109494723D01*
X152283000Y-109188000D01*
X152283000Y-109188000D02*
X152298488Y-108881276D01*
X152343947Y-108583410D01*
X152417870Y-108295911D01*
X152518748Y-108020287D01*
X152645074Y-107758045D01*
X152795340Y-107510695D01*
X152968039Y-107279743D01*
X153161662Y-107066700D01*
X153374702Y-106873071D01*
X153605651Y-106700367D01*
X153853001Y-106550094D01*
X154115245Y-106423762D01*
X154390874Y-106322878D01*
X154678382Y-106248951D01*
X154976259Y-106203489D01*
X155283000Y-106188000D01*
X200181100Y-109188000D02*
X200165611Y-109494723D01*
X200120152Y-109792589D01*
X200046229Y-110080088D01*
X199945351Y-110355712D01*
X199819025Y-110617954D01*
X199668759Y-110865304D01*
X199496060Y-111096256D01*
X199302437Y-111309300D01*
X199089397Y-111502928D01*
X198858448Y-111675632D01*
X198611098Y-111825905D01*
X198348854Y-111952237D01*
X198073225Y-112053121D01*
X197785717Y-112127048D01*
X197487840Y-112172510D01*
X197181100Y-112188000D01*
X197181100Y-112188000D02*
X196874359Y-112172510D01*
X196576482Y-112127048D01*
X196288974Y-112053121D01*
X196013345Y-111952237D01*
X195751101Y-111825905D01*
X195503751Y-111675632D01*
X195272802Y-111502928D01*
X195059762Y-111309300D01*
X194866139Y-111096256D01*
X194693440Y-110865304D01*
X194543174Y-110617954D01*
X194416848Y-110355712D01*
X194315970Y-110080088D01*
X194242047Y-109792589D01*
X194196588Y-109494723D01*
X194181100Y-109188000D01*
X194181100Y-109188000D02*
X194196588Y-108881276D01*
X194242047Y-108583410D01*
X194315970Y-108295911D01*
X194416848Y-108020287D01*
X194543174Y-107758045D01*
X194693440Y-107510695D01*
X194866139Y-107279743D01*
X195059762Y-107066700D01*
X195272802Y-106873071D01*
X195503751Y-106700367D01*
X195751101Y-106550094D01*
X196013345Y-106423762D01*
X196288974Y-106322878D01*
X196576482Y-106248951D01*
X196874359Y-106203489D01*
X197181100Y-106188000D01*
X84188000Y-103054000D02*
X84494740Y-103069489D01*
X84792617Y-103114951D01*
X85080125Y-103188878D01*
X85355754Y-103289762D01*
X85617998Y-103416094D01*
X85865348Y-103566367D01*
X86096297Y-103739071D01*
X86309337Y-103932700D01*
X86502960Y-104145743D01*
X86675659Y-104376695D01*
X86825925Y-104624045D01*
X86952251Y-104886287D01*
X87053129Y-105161911D01*
X87127052Y-105449410D01*
X87172511Y-105747276D01*
X87188000Y-106054000D01*
X87188000Y-106054000D02*
X87172511Y-106360723D01*
X87127052Y-106658589D01*
X87053129Y-106946088D01*
X86952251Y-107221712D01*
X86825925Y-107483954D01*
X86675659Y-107731304D01*
X86502960Y-107962256D01*
X86309337Y-108175300D01*
X86096297Y-108368928D01*
X85865348Y-108541632D01*
X85617998Y-108691905D01*
X85355754Y-108818237D01*
X85080125Y-108919121D01*
X84792617Y-108993048D01*
X84494740Y-109038510D01*
X84188000Y-109054000D01*
X84188000Y-109054000D02*
X83881259Y-109038510D01*
X83583382Y-108993048D01*
X83295874Y-108919121D01*
X83020245Y-108818237D01*
X82758001Y-108691905D01*
X82510651Y-108541632D01*
X82279702Y-108368928D01*
X82066662Y-108175300D01*
X81873039Y-107962256D01*
X81700340Y-107731304D01*
X81550074Y-107483954D01*
X81423748Y-107221712D01*
X81322870Y-106946088D01*
X81248947Y-106658589D01*
X81203488Y-106360723D01*
X81188000Y-106054000D01*
X81188000Y-106054000D02*
X81203488Y-105747276D01*
X81248947Y-105449410D01*
X81322870Y-105161911D01*
X81423748Y-104886287D01*
X81550074Y-104624045D01*
X81700340Y-104376695D01*
X81873039Y-104145743D01*
X82066662Y-103932700D01*
X82279702Y-103739071D01*
X82510651Y-103566367D01*
X82758001Y-103416094D01*
X83020245Y-103289762D01*
X83295874Y-103188878D01*
X83583382Y-103114951D01*
X83881259Y-103069489D01*
X84188000Y-103054000D01*
X102404600Y-106054000D02*
X102389111Y-106360723D01*
X102343652Y-106658589D01*
X102269729Y-106946088D01*
X102168851Y-107221712D01*
X102042525Y-107483954D01*
X101892259Y-107731304D01*
X101719560Y-107962256D01*
X101525937Y-108175300D01*
X101312897Y-108368928D01*
X101081948Y-108541632D01*
X100834598Y-108691905D01*
X100572354Y-108818237D01*
X100296725Y-108919121D01*
X100009217Y-108993048D01*
X99711340Y-109038510D01*
X99404600Y-109054000D01*
X99404600Y-109054000D02*
X99097859Y-109038510D01*
X98799982Y-108993048D01*
X98512474Y-108919121D01*
X98236845Y-108818237D01*
X97974601Y-108691905D01*
X97727251Y-108541632D01*
X97496302Y-108368928D01*
X97283262Y-108175300D01*
X97089639Y-107962256D01*
X96916940Y-107731304D01*
X96766674Y-107483954D01*
X96640348Y-107221712D01*
X96539470Y-106946088D01*
X96465547Y-106658589D01*
X96420088Y-106360723D01*
X96404600Y-106054000D01*
X96404600Y-106054000D02*
X96420088Y-105747276D01*
X96465547Y-105449410D01*
X96539470Y-105161911D01*
X96640348Y-104886287D01*
X96766674Y-104624045D01*
X96916940Y-104376695D01*
X97089639Y-104145743D01*
X97283262Y-103932700D01*
X97496302Y-103739071D01*
X97727251Y-103566367D01*
X97974601Y-103416094D01*
X98236845Y-103289762D01*
X98512474Y-103188878D01*
X98799982Y-103114951D01*
X99097859Y-103069489D01*
X99404600Y-103054000D01*
X123068900Y-106054000D02*
X123084388Y-105747276D01*
X123129847Y-105449410D01*
X123203770Y-105161911D01*
X123304648Y-104886287D01*
X123430974Y-104624045D01*
X123581240Y-104376695D01*
X123753939Y-104145743D01*
X123947562Y-103932700D01*
X124160602Y-103739071D01*
X124391551Y-103566367D01*
X124638901Y-103416094D01*
X124901145Y-103289762D01*
X125176774Y-103188878D01*
X125464282Y-103114951D01*
X125762159Y-103069489D01*
X126068900Y-103054000D01*
X141335400Y-103054000D02*
X141642140Y-103069489D01*
X141940017Y-103114951D01*
X142227525Y-103188878D01*
X142503154Y-103289762D01*
X142765398Y-103416094D01*
X143012748Y-103566367D01*
X143243697Y-103739071D01*
X143456737Y-103932700D01*
X143650360Y-104145743D01*
X143823059Y-104376695D01*
X143973325Y-104624045D01*
X144099651Y-104886287D01*
X144200529Y-105161911D01*
X144274452Y-105449410D01*
X144319911Y-105747276D01*
X144335400Y-106054000D01*
X144335400Y-106054000D02*
X144319911Y-106360723D01*
X144274452Y-106658589D01*
X144200529Y-106946088D01*
X144099651Y-107221712D01*
X143973325Y-107483954D01*
X143823059Y-107731304D01*
X143650360Y-107962256D01*
X143456737Y-108175300D01*
X143243697Y-108368928D01*
X143012748Y-108541632D01*
X142765398Y-108691905D01*
X142503154Y-108818237D01*
X142227525Y-108919121D01*
X141940017Y-108993048D01*
X141642140Y-109038510D01*
X141335400Y-109054000D01*
X141335400Y-109054000D02*
X141028659Y-109038510D01*
X140730782Y-108993048D01*
X140443274Y-108919121D01*
X140167645Y-108818237D01*
X139905401Y-108691905D01*
X139658051Y-108541632D01*
X139427102Y-108368928D01*
X139214062Y-108175300D01*
X139020439Y-107962256D01*
X138847740Y-107731304D01*
X138697474Y-107483954D01*
X138571148Y-107221712D01*
X138470270Y-106946088D01*
X138396347Y-106658589D01*
X138350888Y-106360723D01*
X138335400Y-106054000D01*
X138335400Y-106054000D02*
X138350888Y-105747276D01*
X138396347Y-105449410D01*
X138470270Y-105161911D01*
X138571148Y-104886287D01*
X138697474Y-104624045D01*
X138847740Y-104376695D01*
X139020439Y-104145743D01*
X139214062Y-103932700D01*
X139427102Y-103739071D01*
X139658051Y-103566367D01*
X139905401Y-103416094D01*
X140167645Y-103289762D01*
X140443274Y-103188878D01*
X140730782Y-103114951D01*
X141028659Y-103069489D01*
X141335400Y-103054000D01*
X167958400Y-103054000D02*
X168265140Y-103069489D01*
X168563017Y-103114951D01*
X168850525Y-103188878D01*
X169126154Y-103289762D01*
X169388398Y-103416094D01*
X169635748Y-103566367D01*
X169866697Y-103739071D01*
X170079737Y-103932700D01*
X170273360Y-104145743D01*
X170446059Y-104376695D01*
X170596325Y-104624045D01*
X170722651Y-104886287D01*
X170823529Y-105161911D01*
X170897452Y-105449410D01*
X170942911Y-105747276D01*
X170958400Y-106054000D01*
X167958400Y-109054000D02*
X167651659Y-109038510D01*
X167353782Y-108993048D01*
X167066274Y-108919121D01*
X166790645Y-108818237D01*
X166528401Y-108691905D01*
X166281051Y-108541632D01*
X166050102Y-108368928D01*
X165837062Y-108175300D01*
X165643439Y-107962256D01*
X165470740Y-107731304D01*
X165320474Y-107483954D01*
X165194148Y-107221712D01*
X165093270Y-106946088D01*
X165019347Y-106658589D01*
X164973888Y-106360723D01*
X164958400Y-106054000D01*
X164958400Y-106054000D02*
X164973888Y-105747276D01*
X165019347Y-105449410D01*
X165093270Y-105161911D01*
X165194148Y-104886287D01*
X165320474Y-104624045D01*
X165470740Y-104376695D01*
X165643439Y-104145743D01*
X165837062Y-103932700D01*
X166050102Y-103739071D01*
X166281051Y-103566367D01*
X166528401Y-103416094D01*
X166790645Y-103289762D01*
X167066274Y-103188878D01*
X167353782Y-103114951D01*
X167651659Y-103069489D01*
X167958400Y-103054000D01*
X183242600Y-103054000D02*
X183549340Y-103069489D01*
X183847217Y-103114951D01*
X184134725Y-103188878D01*
X184410354Y-103289762D01*
X184672598Y-103416094D01*
X184919948Y-103566367D01*
X185150897Y-103739071D01*
X185363937Y-103932700D01*
X185557560Y-104145743D01*
X185730259Y-104376695D01*
X185880525Y-104624045D01*
X186006851Y-104886287D01*
X186107729Y-105161911D01*
X186181652Y-105449410D01*
X186227111Y-105747276D01*
X186242600Y-106054000D01*
X186242600Y-106054000D02*
X186227111Y-106360723D01*
X186181652Y-106658589D01*
X186107729Y-106946088D01*
X186006851Y-107221712D01*
X185880525Y-107483954D01*
X185730259Y-107731304D01*
X185557560Y-107962256D01*
X185363937Y-108175300D01*
X185150897Y-108368928D01*
X184919948Y-108541632D01*
X184672598Y-108691905D01*
X184410354Y-108818237D01*
X184134725Y-108919121D01*
X183847217Y-108993048D01*
X183549340Y-109038510D01*
X183242600Y-109054000D01*
X183242600Y-109054000D02*
X182935859Y-109038510D01*
X182637982Y-108993048D01*
X182350474Y-108919121D01*
X182074845Y-108818237D01*
X181812601Y-108691905D01*
X181565251Y-108541632D01*
X181334302Y-108368928D01*
X181121262Y-108175300D01*
X180927639Y-107962256D01*
X180754940Y-107731304D01*
X180604674Y-107483954D01*
X180478348Y-107221712D01*
X180377470Y-106946088D01*
X180303547Y-106658589D01*
X180258088Y-106360723D01*
X180242600Y-106054000D01*
X180242600Y-106054000D02*
X180258088Y-105747276D01*
X180303547Y-105449410D01*
X180377470Y-105161911D01*
X180478348Y-104886287D01*
X180604674Y-104624045D01*
X180754940Y-104376695D01*
X180927639Y-104145743D01*
X181121262Y-103932700D01*
X181334302Y-103739071D01*
X181565251Y-103566367D01*
X181812601Y-103416094D01*
X182074845Y-103289762D01*
X182350474Y-103188878D01*
X182637982Y-103114951D01*
X182935859Y-103069489D01*
X183242600Y-103054000D01*
X212912600Y-106054000D02*
X212897111Y-106360723D01*
X212851652Y-106658589D01*
X212777729Y-106946088D01*
X212676851Y-107221712D01*
X212550525Y-107483954D01*
X212400259Y-107731304D01*
X212227560Y-107962256D01*
X212033937Y-108175300D01*
X211820897Y-108368928D01*
X211589948Y-108541632D01*
X211342598Y-108691905D01*
X211080354Y-108818237D01*
X210804725Y-108919121D01*
X210517217Y-108993048D01*
X210219340Y-109038510D01*
X209912600Y-109054000D01*
M02*
