%TF.GenerationSoftware,KiCad,Pcbnew,(6.0.4)*%
%TF.CreationDate,2022-05-24T13:19:14+01:00*%
%TF.ProjectId,1u-mixer,31752d6d-6978-4657-922e-6b696361645f,rev?*%
%TF.SameCoordinates,Original*%
%TF.FileFunction,Legend,Top*%
%TF.FilePolarity,Positive*%
%FSLAX46Y46*%
G04 Gerber Fmt 4.6, Leading zero omitted, Abs format (unit mm)*
G04 Created by KiCad (PCBNEW (6.0.4)) date 2022-05-24 13:19:14*
%MOMM*%
%LPD*%
G01*
G04 APERTURE LIST*
G04 APERTURE END LIST*
%TO.C,REF\u002A\u002A*%
G36*
X165363172Y-55057262D02*
G01*
X164854324Y-55057262D01*
X164854324Y-57135058D01*
X165363172Y-57135058D01*
X165363172Y-57389482D01*
X164599900Y-57389482D01*
X164599900Y-54802838D01*
X165363172Y-54802838D01*
X165363172Y-55057262D01*
G37*
G36*
X193646645Y-55142070D02*
G01*
X193636142Y-55260009D01*
X193601325Y-55308608D01*
X193583039Y-55311686D01*
X193560330Y-55322314D01*
X193543626Y-55361346D01*
X193532060Y-55439505D01*
X193524760Y-55567515D01*
X193520857Y-55756100D01*
X193519483Y-56015982D01*
X193519433Y-56096160D01*
X193520294Y-56376239D01*
X193523459Y-56582245D01*
X193529796Y-56724902D01*
X193540176Y-56814933D01*
X193555466Y-56863062D01*
X193576538Y-56880011D01*
X193583039Y-56880634D01*
X193627266Y-56908643D01*
X193645490Y-57001487D01*
X193646645Y-57050250D01*
X193646645Y-57219866D01*
X193095393Y-57219866D01*
X193095393Y-57050250D01*
X193104797Y-56944036D01*
X193128291Y-56884959D01*
X193137797Y-56880634D01*
X193153839Y-56839174D01*
X193166346Y-56718444D01*
X193175020Y-56523920D01*
X193179566Y-56261079D01*
X193180201Y-56096160D01*
X193177959Y-55799372D01*
X193171433Y-55568002D01*
X193160919Y-55407528D01*
X193146711Y-55323424D01*
X193137797Y-55311686D01*
X193111243Y-55274067D01*
X193096474Y-55180091D01*
X193095393Y-55142070D01*
X193095393Y-54972454D01*
X193646645Y-54972454D01*
X193646645Y-55142070D01*
G37*
G36*
X193057585Y-30293322D02*
G01*
X193265009Y-30293322D01*
X193265009Y-32540735D01*
X192968181Y-32540735D01*
X192963373Y-31915275D01*
X192958566Y-31289816D01*
X192851219Y-31915275D01*
X192743871Y-32540735D01*
X192626635Y-32540735D01*
X192563843Y-32535487D01*
X192524046Y-32507425D01*
X192496591Y-32438070D01*
X192470823Y-32308941D01*
X192461616Y-32254507D01*
X192428022Y-32057189D01*
X192388421Y-31830151D01*
X192356362Y-31650250D01*
X192298892Y-31332220D01*
X192294304Y-31936477D01*
X192289716Y-32540735D01*
X191992888Y-32540735D01*
X191992888Y-30293322D01*
X192408222Y-30293322D01*
X192454134Y-30558347D01*
X192484804Y-30740362D01*
X192520197Y-30957669D01*
X192551016Y-31152763D01*
X192577980Y-31301932D01*
X192604579Y-31407150D01*
X192626105Y-31450881D01*
X192630697Y-31449591D01*
X192648485Y-31396724D01*
X192674692Y-31278384D01*
X192705554Y-31113026D01*
X192732434Y-30950584D01*
X192770964Y-30702669D01*
X192800464Y-30526171D01*
X192826898Y-30409034D01*
X192856230Y-30339204D01*
X192894423Y-30304625D01*
X192947441Y-30293242D01*
X193021248Y-30293000D01*
X193057585Y-30293322D01*
G37*
G36*
X170578865Y-57389482D02*
G01*
X169815593Y-57389482D01*
X169815593Y-57135058D01*
X170324441Y-57135058D01*
X170324441Y-55057262D01*
X169815593Y-55057262D01*
X169815593Y-54802838D01*
X170578865Y-54802838D01*
X170578865Y-57389482D01*
G37*
G36*
X128641302Y-57389482D02*
G01*
X127878030Y-57389482D01*
X127878030Y-57262270D01*
X127881946Y-57189545D01*
X127907612Y-57151692D01*
X127975900Y-57137326D01*
X128107686Y-57135059D01*
X128111252Y-57135058D01*
X128344474Y-57135058D01*
X128344474Y-55057262D01*
X128111252Y-55057262D01*
X127977923Y-55055126D01*
X127908526Y-55041127D01*
X127882187Y-55003879D01*
X127878030Y-54931995D01*
X127878030Y-54802838D01*
X128641302Y-54802838D01*
X128641302Y-57389482D01*
G37*
G36*
X143906745Y-57389482D02*
G01*
X143143473Y-57389482D01*
X143143473Y-57135058D01*
X143652321Y-57135058D01*
X143652321Y-55057262D01*
X143143473Y-55057262D01*
X143143473Y-54802838D01*
X143906745Y-54802838D01*
X143906745Y-57389482D01*
G37*
G36*
X96668681Y-55057262D02*
G01*
X96159833Y-55057262D01*
X96159833Y-57135058D01*
X96668681Y-57135058D01*
X96668681Y-57389482D01*
X95905409Y-57389482D01*
X95905409Y-54802838D01*
X96668681Y-54802838D01*
X96668681Y-55057262D01*
G37*
G36*
X140438182Y-56040808D02*
G01*
X140567825Y-55777896D01*
X140645210Y-55627439D01*
X140777254Y-55374487D01*
X140877168Y-55186971D01*
X140951968Y-55055100D01*
X141008672Y-54969077D01*
X141054297Y-54919109D01*
X141095861Y-54895402D01*
X141140381Y-54888162D01*
X141175260Y-54887646D01*
X141320100Y-54887646D01*
X141320100Y-56329382D01*
X141447312Y-56329382D01*
X141532781Y-56337656D01*
X141567837Y-56379621D01*
X141574524Y-56477796D01*
X141567433Y-56577510D01*
X141531463Y-56618408D01*
X141447312Y-56626210D01*
X141320100Y-56626210D01*
X141320100Y-57135058D01*
X141023272Y-57135058D01*
X141023272Y-56626210D01*
X140260000Y-56626210D01*
X140260000Y-56496722D01*
X140280916Y-56407789D01*
X140311626Y-56329382D01*
X140597040Y-56329382D01*
X141023272Y-56329382D01*
X141023272Y-55960467D01*
X141019565Y-55800962D01*
X141009627Y-55685937D01*
X140995239Y-55631754D01*
X140987551Y-55631836D01*
X140952233Y-55685584D01*
X140888642Y-55794446D01*
X140808227Y-55938607D01*
X140774435Y-56000751D01*
X140597040Y-56329382D01*
X140311626Y-56329382D01*
X140341428Y-56253295D01*
X140438182Y-56040808D01*
G37*
G36*
X198735125Y-56923038D02*
G01*
X199625610Y-56923038D01*
X199625610Y-57219866D01*
X198438297Y-57219866D01*
X198438297Y-54972454D01*
X198735125Y-54972454D01*
X198735125Y-56923038D01*
G37*
G36*
X99111569Y-54926621D02*
G01*
X99277901Y-55033927D01*
X99398824Y-55195140D01*
X99460898Y-55395834D01*
X99466256Y-55481302D01*
X99452394Y-55631179D01*
X99407193Y-55782221D01*
X99323359Y-55948872D01*
X99193597Y-56145572D01*
X99010613Y-56386763D01*
X99005921Y-56392695D01*
X98886299Y-56546464D01*
X98789095Y-56676448D01*
X98724893Y-56768148D01*
X98704074Y-56806134D01*
X98743402Y-56819926D01*
X98849110Y-56830749D01*
X99002784Y-56837136D01*
X99106912Y-56838230D01*
X99509750Y-56838230D01*
X99509750Y-57135058D01*
X98322438Y-57135058D01*
X98322438Y-56992085D01*
X98352390Y-56866800D01*
X98440610Y-56686386D01*
X98584641Y-56454918D01*
X98782027Y-56176472D01*
X98934963Y-55975824D01*
X99038412Y-55835913D01*
X99096974Y-55730266D01*
X99122805Y-55630386D01*
X99128114Y-55523009D01*
X99104659Y-55351464D01*
X99040836Y-55234557D01*
X98946455Y-55181473D01*
X98831327Y-55201400D01*
X98802136Y-55217789D01*
X98743158Y-55291349D01*
X98692546Y-55413374D01*
X98663951Y-55547684D01*
X98661670Y-55590073D01*
X98650075Y-55659997D01*
X98598771Y-55688603D01*
X98513256Y-55693322D01*
X98415506Y-55687339D01*
X98374114Y-55652445D01*
X98364936Y-55563222D01*
X98364842Y-55537094D01*
X98398240Y-55327720D01*
X98489166Y-55142010D01*
X98623715Y-54996430D01*
X98787985Y-54907445D01*
X98913263Y-54887646D01*
X99111569Y-54926621D01*
G37*
G36*
X194325109Y-30443067D02*
G01*
X194306891Y-30563316D01*
X194261503Y-30617220D01*
X194238569Y-30637969D01*
X194221731Y-30687400D01*
X194210116Y-30776532D01*
X194202855Y-30916384D01*
X194199074Y-31117977D01*
X194197904Y-31392330D01*
X194197897Y-31421565D01*
X194198765Y-31700736D01*
X194201956Y-31905863D01*
X194208344Y-32047699D01*
X194218808Y-32136994D01*
X194234225Y-32184502D01*
X194255470Y-32200973D01*
X194261503Y-32201502D01*
X194305730Y-32229511D01*
X194323954Y-32322355D01*
X194325109Y-32371118D01*
X194325109Y-32540735D01*
X194056550Y-32540735D01*
X193912604Y-32536575D01*
X193804635Y-32525737D01*
X193759722Y-32512465D01*
X193740318Y-32454272D01*
X193731502Y-32351245D01*
X193731453Y-32342849D01*
X193746712Y-32235911D01*
X193794588Y-32201504D01*
X193795059Y-32201502D01*
X193817826Y-32190852D01*
X193834554Y-32151734D01*
X193846122Y-32073394D01*
X193853404Y-31945083D01*
X193857278Y-31756047D01*
X193858621Y-31495536D01*
X193858665Y-31421565D01*
X193857690Y-31139976D01*
X193854186Y-30932159D01*
X193847280Y-30787095D01*
X193836102Y-30693764D01*
X193819780Y-30641146D01*
X193797443Y-30618222D01*
X193795059Y-30617220D01*
X193746951Y-30555871D01*
X193731453Y-30443067D01*
X193731453Y-30293322D01*
X194325109Y-30293322D01*
X194325109Y-30443067D01*
G37*
G36*
X77584672Y-27667186D02*
G01*
X77746563Y-27676837D01*
X77849049Y-27694599D01*
X77904745Y-27721843D01*
X77907937Y-27724851D01*
X77934992Y-27774176D01*
X77953219Y-27866666D01*
X77963882Y-28014758D01*
X77968243Y-28230890D01*
X77968514Y-28321536D01*
X77966963Y-28570369D01*
X77956998Y-28746831D01*
X77930654Y-28863357D01*
X77879966Y-28932382D01*
X77796968Y-28966342D01*
X77673694Y-28977671D01*
X77547503Y-28978798D01*
X77390554Y-28976554D01*
X77300315Y-28966420D01*
X77258737Y-28943290D01*
X77247767Y-28902059D01*
X77247646Y-28893990D01*
X77274160Y-28824923D01*
X77311252Y-28809182D01*
X77367470Y-28775239D01*
X77374858Y-28745576D01*
X77408801Y-28689358D01*
X77438464Y-28681970D01*
X77488962Y-28644043D01*
X77502070Y-28554758D01*
X77483107Y-28453764D01*
X77438464Y-28427546D01*
X77382034Y-28404649D01*
X77374858Y-28385142D01*
X77340513Y-28347522D01*
X77311252Y-28342738D01*
X77255034Y-28308795D01*
X77247646Y-28279132D01*
X77212161Y-28227360D01*
X77161507Y-28215526D01*
X77079969Y-28243157D01*
X77050961Y-28279132D01*
X76990307Y-28327167D01*
X76882675Y-28342738D01*
X76738798Y-28342738D01*
X76740147Y-28077713D01*
X76744503Y-27915942D01*
X76764277Y-27803018D01*
X76812418Y-27730174D01*
X76901871Y-27688644D01*
X77045586Y-27669662D01*
X77256508Y-27664461D01*
X77350759Y-27664274D01*
X77584672Y-27667186D01*
G37*
G36*
X190240360Y-44726758D02*
G01*
X190254252Y-44771545D01*
X190254358Y-44779128D01*
X190271877Y-44856486D01*
X190317758Y-44982188D01*
X190381570Y-45127931D01*
X190444483Y-45262830D01*
X190489953Y-45363975D01*
X190508678Y-45410639D01*
X190508748Y-45411269D01*
X190476919Y-45439321D01*
X190392830Y-45503775D01*
X190273573Y-45592228D01*
X190136245Y-45692275D01*
X189997938Y-45791511D01*
X189875748Y-45877531D01*
X189786768Y-45937931D01*
X189759434Y-45955018D01*
X189710358Y-45937034D01*
X189637370Y-45848936D01*
X189578182Y-45753641D01*
X189492164Y-45586776D01*
X189409998Y-45399122D01*
X189340943Y-45215154D01*
X189294262Y-45059347D01*
X189279032Y-44963071D01*
X189299336Y-44918556D01*
X189369595Y-44879455D01*
X189503833Y-44839222D01*
X189586461Y-44819545D01*
X189768556Y-44780331D01*
X189945632Y-44745848D01*
X190074107Y-44724373D01*
X190187660Y-44713266D01*
X190240360Y-44726758D01*
G37*
G36*
X105065784Y-28551348D02*
G01*
X105226449Y-28575465D01*
X105411701Y-28580164D01*
X105489824Y-28574823D01*
X105633487Y-28564631D01*
X105727063Y-28577901D01*
X105803653Y-28621608D01*
X105835072Y-28647544D01*
X105913673Y-28735927D01*
X105931912Y-28831186D01*
X105926244Y-28879465D01*
X105897349Y-28973695D01*
X105832691Y-29023689D01*
X105749503Y-29047225D01*
X105629853Y-29067616D01*
X105539310Y-29073228D01*
X105531119Y-29072469D01*
X105340322Y-29086581D01*
X105147379Y-29172209D01*
X105050497Y-29245504D01*
X104959819Y-29334980D01*
X104903809Y-29407205D01*
X104895059Y-29430359D01*
X104868309Y-29484647D01*
X104799037Y-29577333D01*
X104725443Y-29662485D01*
X104606708Y-29826828D01*
X104559631Y-29987926D01*
X104586026Y-30153171D01*
X104687706Y-30329957D01*
X104866485Y-30525676D01*
X104957532Y-30608765D01*
X105099207Y-30728192D01*
X105207380Y-30801788D01*
X105308866Y-30843336D01*
X105430481Y-30866621D01*
X105468330Y-30871340D01*
X105641364Y-30904949D01*
X105755264Y-30955396D01*
X105776596Y-30974608D01*
X105854956Y-31024690D01*
X105908389Y-31023729D01*
X105952758Y-31014878D01*
X105930926Y-31054303D01*
X105926515Y-31059794D01*
X105890834Y-31140464D01*
X105865822Y-31261947D01*
X105862909Y-31290354D01*
X105844205Y-31404469D01*
X105804858Y-31455771D01*
X105764341Y-31465526D01*
X105672778Y-31476500D01*
X105637129Y-31484058D01*
X105580122Y-31489149D01*
X105456721Y-31493712D01*
X105285341Y-31497236D01*
X105092941Y-31499167D01*
X104846196Y-31496844D01*
X104676839Y-31486378D01*
X104577778Y-31467114D01*
X104547097Y-31448831D01*
X104477949Y-31401334D01*
X104449817Y-31395826D01*
X104380196Y-31366131D01*
X104343822Y-31332239D01*
X104319718Y-31280688D01*
X104325090Y-31203181D01*
X104362787Y-31078465D01*
X104386559Y-31013258D01*
X104482070Y-30757864D01*
X104323094Y-30603469D01*
X104224864Y-30515589D01*
X104166030Y-30485789D01*
X104131826Y-30506893D01*
X104130179Y-30509721D01*
X104079625Y-30580265D01*
X103999931Y-30674119D01*
X103986801Y-30688454D01*
X103916268Y-30768491D01*
X103879073Y-30818366D01*
X103877362Y-30823133D01*
X103896878Y-30866535D01*
X103945717Y-30955115D01*
X103966646Y-30991050D01*
X104027049Y-31142187D01*
X104021920Y-31267892D01*
X103953379Y-31353938D01*
X103909629Y-31373765D01*
X103832382Y-31386723D01*
X103689658Y-31400386D01*
X103500758Y-31413250D01*
X103284984Y-31423810D01*
X103250422Y-31425143D01*
X103011212Y-31432361D01*
X102840903Y-31432575D01*
X102723794Y-31424667D01*
X102644181Y-31407517D01*
X102586363Y-31380006D01*
X102582559Y-31377553D01*
X102495717Y-31283392D01*
X102490534Y-31172018D01*
X102567017Y-31049142D01*
X102582113Y-31033465D01*
X102711850Y-30949125D01*
X102847138Y-30928803D01*
X103019664Y-30918064D01*
X103138156Y-30877103D01*
X103232075Y-30790545D01*
X103300459Y-30692249D01*
X103393065Y-30569654D01*
X103493090Y-30471992D01*
X103537791Y-30441912D01*
X103643199Y-30357255D01*
X103742218Y-30229964D01*
X103813092Y-30092825D01*
X103834958Y-29994070D01*
X103806260Y-29903726D01*
X103750150Y-29826878D01*
X103687869Y-29750645D01*
X103665342Y-29698881D01*
X103634463Y-29639163D01*
X103553073Y-29543473D01*
X103438042Y-29427338D01*
X103306240Y-29306285D01*
X103174538Y-29195842D01*
X103059806Y-29111535D01*
X102981807Y-29069767D01*
X102846477Y-29027775D01*
X102689399Y-28980597D01*
X102652005Y-28969614D01*
X102490849Y-28901404D01*
X102398989Y-28815048D01*
X102382376Y-28718246D01*
X102411174Y-28658122D01*
X102439032Y-28628124D01*
X102480478Y-28606447D01*
X102548298Y-28591764D01*
X102655277Y-28582746D01*
X102814201Y-28578067D01*
X103037855Y-28576398D01*
X103199194Y-28576285D01*
X103465522Y-28577077D01*
X103659825Y-28580069D01*
X103794882Y-28586596D01*
X103883473Y-28597993D01*
X103938377Y-28615596D01*
X103972372Y-28640740D01*
X103987028Y-28658596D01*
X104037810Y-28752234D01*
X104031369Y-28838031D01*
X103963651Y-28943491D01*
X103940969Y-28971065D01*
X103858903Y-29089397D01*
X103845117Y-29186424D01*
X103901222Y-29287578D01*
X103965432Y-29357172D01*
X104086773Y-29455636D01*
X104190793Y-29478170D01*
X104295917Y-29423918D01*
X104381818Y-29337757D01*
X104477899Y-29212204D01*
X104508745Y-29120804D01*
X104477727Y-29047854D01*
X104449817Y-29021202D01*
X104398155Y-28930545D01*
X104390918Y-28808383D01*
X104427890Y-28695320D01*
X104451725Y-28664917D01*
X104584094Y-28583054D01*
X104764372Y-28537287D01*
X104961259Y-28533406D01*
X105065784Y-28551348D01*
G37*
G36*
X182333467Y-56181119D02*
G01*
X182334080Y-55837212D01*
X182372037Y-55557509D01*
X182450741Y-55328489D01*
X182573596Y-55136634D01*
X182605946Y-55099112D01*
X182776025Y-54958421D01*
X182956571Y-54896990D01*
X183139561Y-54917270D01*
X183167153Y-54927688D01*
X183272249Y-55005422D01*
X183372021Y-55133137D01*
X183444904Y-55277577D01*
X183469683Y-55394226D01*
X183458719Y-55454082D01*
X183410000Y-55476186D01*
X183310668Y-55473261D01*
X183199766Y-55453144D01*
X183149140Y-55407711D01*
X183138506Y-55367771D01*
X183091483Y-55255054D01*
X183003023Y-55199322D01*
X182924558Y-55203732D01*
X182845209Y-55266122D01*
X182767410Y-55389954D01*
X182703598Y-55552563D01*
X182678671Y-55651805D01*
X182651697Y-55786674D01*
X182782958Y-55718796D01*
X182928971Y-55661501D01*
X183054648Y-55664902D01*
X183196862Y-55730565D01*
X183207210Y-55736813D01*
X183341469Y-55858507D01*
X183426612Y-56034155D01*
X183465988Y-56272130D01*
X183469683Y-56393316D01*
X183446737Y-56639249D01*
X183381957Y-56844065D01*
X183281434Y-56991816D01*
X183224006Y-57036749D01*
X183032928Y-57107528D01*
X182832783Y-57105621D01*
X182706638Y-57062273D01*
X182560299Y-56956388D01*
X182453503Y-56803134D01*
X182382078Y-56592656D01*
X182346711Y-56348650D01*
X182666540Y-56348650D01*
X182683674Y-56512250D01*
X182732448Y-56661930D01*
X182807727Y-56776522D01*
X182904377Y-56834858D01*
X182935418Y-56838230D01*
X183039233Y-56809761D01*
X183093456Y-56768107D01*
X183129807Y-56674528D01*
X183148978Y-56507408D01*
X183151653Y-56392988D01*
X183141009Y-56183759D01*
X183105764Y-56046702D01*
X183040948Y-55971483D01*
X182941593Y-55947770D01*
X182937518Y-55947746D01*
X182840591Y-55981477D01*
X182747725Y-56064357D01*
X182686179Y-56192296D01*
X182666540Y-56348650D01*
X182346711Y-56348650D01*
X182341847Y-56315095D01*
X182333467Y-56181119D01*
G37*
G36*
X201703406Y-30590150D02*
G01*
X201236962Y-30590150D01*
X201236962Y-32540735D01*
X200940134Y-32540735D01*
X200940134Y-30590150D01*
X200516094Y-30590150D01*
X200516094Y-30293322D01*
X201703406Y-30293322D01*
X201703406Y-30590150D01*
G37*
G36*
X194968516Y-30301610D02*
G01*
X195053406Y-30310609D01*
X195111943Y-30332983D01*
X195158816Y-30385007D01*
X195208719Y-30482954D01*
X195275967Y-30642193D01*
X195340663Y-30795053D01*
X195394401Y-30915635D01*
X195428223Y-30984053D01*
X195433483Y-30991791D01*
X195457552Y-30965136D01*
X195503937Y-30875446D01*
X195564680Y-30738907D01*
X195599798Y-30653521D01*
X195744184Y-30293322D01*
X195903929Y-30293322D01*
X196006484Y-30299096D01*
X196060981Y-30313420D01*
X196063673Y-30317914D01*
X196047843Y-30363969D01*
X196004544Y-30472474D01*
X195940059Y-30628078D01*
X195860673Y-30815429D01*
X195845509Y-30850821D01*
X195627344Y-31359137D01*
X195867636Y-31918133D01*
X195953407Y-32120087D01*
X196025521Y-32294503D01*
X196077981Y-32426514D01*
X196104788Y-32501251D01*
X196107002Y-32511491D01*
X196069217Y-32530611D01*
X195976935Y-32534397D01*
X195951313Y-32532693D01*
X195879770Y-32523581D01*
X195826712Y-32500828D01*
X195780388Y-32449700D01*
X195729049Y-32355466D01*
X195660946Y-32203390D01*
X195628412Y-32127803D01*
X195555227Y-31965751D01*
X195491615Y-31840354D01*
X195445906Y-31767189D01*
X195429169Y-31755299D01*
X195400427Y-31800384D01*
X195348369Y-31906060D01*
X195281570Y-32054336D01*
X195237411Y-32157629D01*
X195076759Y-32540735D01*
X194908417Y-32540735D01*
X194795423Y-32531268D01*
X194758358Y-32501210D01*
X194761039Y-32487730D01*
X194785199Y-32431183D01*
X194836875Y-32312971D01*
X194909116Y-32148915D01*
X194994968Y-31954836D01*
X195020394Y-31897506D01*
X195258785Y-31360288D01*
X195027718Y-30824491D01*
X194796651Y-30288695D01*
X194968516Y-30301610D01*
G37*
G36*
X194775468Y-55674282D02*
G01*
X195024775Y-56376111D01*
X195036401Y-55674282D01*
X195048027Y-54972454D01*
X195385209Y-54972454D01*
X195385209Y-57219866D01*
X195013280Y-57219866D01*
X194499538Y-55799332D01*
X194497132Y-56509599D01*
X194494725Y-57219866D01*
X194155493Y-57219866D01*
X194155493Y-54972454D01*
X194526161Y-54972454D01*
X194775468Y-55674282D01*
G37*
G36*
X201576194Y-56923038D02*
G01*
X202466678Y-56923038D01*
X202466678Y-57219866D01*
X201236962Y-57219866D01*
X201236962Y-54972454D01*
X201576194Y-54972454D01*
X201576194Y-56923038D01*
G37*
G36*
X73009075Y-28354919D02*
G01*
X73010161Y-27951829D01*
X73011906Y-27614185D01*
X73014485Y-27335533D01*
X73018074Y-27109418D01*
X73022850Y-26929386D01*
X73028988Y-26788984D01*
X73036663Y-26681757D01*
X73046053Y-26601252D01*
X73057331Y-26541014D01*
X73070675Y-26494589D01*
X73086261Y-26455523D01*
X73088044Y-26451565D01*
X73172715Y-26315452D01*
X73283317Y-26196622D01*
X73309733Y-26175938D01*
X73452488Y-26074124D01*
X76322250Y-26074124D01*
X76885306Y-26074171D01*
X77369752Y-26074435D01*
X77781786Y-26075096D01*
X78127608Y-26076336D01*
X78413414Y-26078336D01*
X78645403Y-26081279D01*
X78829773Y-26085344D01*
X78972723Y-26090714D01*
X79080451Y-26097570D01*
X79159154Y-26106094D01*
X79215032Y-26116467D01*
X79254281Y-26128870D01*
X79283102Y-26143484D01*
X79307691Y-26160492D01*
X79309112Y-26161552D01*
X79422328Y-26262551D01*
X79513641Y-26366080D01*
X79530713Y-26390493D01*
X79545405Y-26418760D01*
X79557895Y-26457046D01*
X79568361Y-26511515D01*
X79576983Y-26588334D01*
X79583939Y-26693666D01*
X79589408Y-26833677D01*
X79593569Y-27014532D01*
X79596600Y-27242396D01*
X79598681Y-27523433D01*
X79599989Y-27863809D01*
X79600704Y-28269689D01*
X79601004Y-28747238D01*
X79601068Y-29302620D01*
X79601069Y-29381636D01*
X79601028Y-29947609D01*
X79600783Y-30434943D01*
X79600154Y-30849808D01*
X79598960Y-31198374D01*
X79597018Y-31486810D01*
X79594148Y-31721286D01*
X79590168Y-31907972D01*
X79584897Y-32053036D01*
X79578153Y-32162649D01*
X79569756Y-32242980D01*
X79559524Y-32300199D01*
X79547275Y-32340475D01*
X79532828Y-32369978D01*
X79516002Y-32394877D01*
X79512362Y-32399812D01*
X79414526Y-32506723D01*
X79294829Y-32607026D01*
X79283470Y-32614942D01*
X79143285Y-32710351D01*
X73486231Y-32710351D01*
X73342148Y-32614599D01*
X73233757Y-32516099D01*
X73132277Y-32382148D01*
X73102655Y-32329988D01*
X73007246Y-32141129D01*
X73008177Y-29383252D01*
X73008358Y-29045433D01*
X74194558Y-29045433D01*
X74194937Y-29500606D01*
X74196228Y-29878125D01*
X74198656Y-30185140D01*
X74202448Y-30428802D01*
X74207833Y-30616261D01*
X74215035Y-30754669D01*
X74224284Y-30851174D01*
X74235805Y-30912930D01*
X74249826Y-30947085D01*
X74255135Y-30953613D01*
X74326083Y-31004128D01*
X74361145Y-31014190D01*
X74403117Y-31047724D01*
X74406578Y-31068435D01*
X74437893Y-31133020D01*
X74491386Y-31183806D01*
X74558135Y-31269119D01*
X74576194Y-31341581D01*
X74599643Y-31419220D01*
X74664327Y-31438230D01*
X74736952Y-31466724D01*
X74838149Y-31538284D01*
X74944799Y-31632032D01*
X75033786Y-31727088D01*
X75081989Y-31802571D01*
X75085042Y-31818211D01*
X75119361Y-31857290D01*
X75148648Y-31862270D01*
X75205078Y-31885167D01*
X75212254Y-31904674D01*
X75249530Y-31932702D01*
X75341191Y-31946712D01*
X75360668Y-31947078D01*
X75458765Y-31957729D01*
X75507800Y-31983917D01*
X75509082Y-31989482D01*
X75546359Y-32017510D01*
X75638019Y-32031520D01*
X75657496Y-32031886D01*
X75767266Y-32045679D01*
X75805642Y-32089699D01*
X75805910Y-32095492D01*
X75818724Y-32123022D01*
X75865847Y-32141503D01*
X75960301Y-32152577D01*
X76115108Y-32157888D01*
X76310221Y-32159098D01*
X76532347Y-32157186D01*
X76683155Y-32150371D01*
X76776074Y-32137038D01*
X76824531Y-32115572D01*
X76838941Y-32095492D01*
X76896461Y-32043113D01*
X76949487Y-32031886D01*
X77019112Y-32014375D01*
X77035626Y-31989482D01*
X77071915Y-31957606D01*
X77141636Y-31947078D01*
X77221327Y-31932563D01*
X77247646Y-31904674D01*
X77285265Y-31878121D01*
X77379241Y-31863352D01*
X77417262Y-31862270D01*
X77535202Y-31851767D01*
X77583800Y-31816951D01*
X77586878Y-31798664D01*
X77622521Y-31746934D01*
X77674715Y-31735058D01*
X77774844Y-31706219D01*
X77855810Y-31638110D01*
X77883706Y-31568471D01*
X77916284Y-31524902D01*
X77929139Y-31523038D01*
X78007626Y-31487553D01*
X78073043Y-31405226D01*
X78095726Y-31324247D01*
X78128888Y-31242065D01*
X78180534Y-31193647D01*
X78229921Y-31146859D01*
X78255887Y-31069795D01*
X78264947Y-30938874D01*
X78265342Y-30886619D01*
X78270240Y-30739005D01*
X78287597Y-30659802D01*
X78321413Y-30633038D01*
X78328948Y-30632554D01*
X78360748Y-30617166D01*
X78380211Y-30561152D01*
X78389943Y-30449736D01*
X78392554Y-30272120D01*
X78397244Y-30096590D01*
X78410142Y-29972288D01*
X78429493Y-29914140D01*
X78434958Y-29911686D01*
X78448196Y-29869755D01*
X78459078Y-29745791D01*
X78467512Y-29542539D01*
X78473411Y-29262744D01*
X78476683Y-28909150D01*
X78477362Y-28618364D01*
X78475988Y-28214612D01*
X78471923Y-27882731D01*
X78465259Y-27625467D01*
X78456086Y-27445564D01*
X78444492Y-27345767D01*
X78434958Y-27325042D01*
X78402575Y-27288897D01*
X78392554Y-27223568D01*
X78368870Y-27135629D01*
X78328948Y-27097687D01*
X78272552Y-27041819D01*
X78265342Y-27009776D01*
X78238253Y-26944790D01*
X78168687Y-26846082D01*
X78108072Y-26775223D01*
X77950802Y-26604174D01*
X76327104Y-26604174D01*
X75865338Y-26605272D01*
X75477722Y-26608533D01*
X75166245Y-26613904D01*
X74932896Y-26621334D01*
X74779663Y-26630770D01*
X74708535Y-26642161D01*
X74703406Y-26646578D01*
X74669060Y-26684198D01*
X74639800Y-26688982D01*
X74583478Y-26718096D01*
X74576194Y-26743227D01*
X74544879Y-26807811D01*
X74491386Y-26858598D01*
X74425701Y-26925971D01*
X74406578Y-26973969D01*
X74372439Y-27022001D01*
X74342972Y-27028214D01*
X74291171Y-27063566D01*
X74279366Y-27113022D01*
X74261608Y-27181927D01*
X74236962Y-27197830D01*
X74225540Y-27239950D01*
X74215845Y-27365207D01*
X74207917Y-27571949D01*
X74201792Y-27858521D01*
X74197508Y-28223270D01*
X74195104Y-28664543D01*
X74194558Y-29045433D01*
X73008358Y-29045433D01*
X73008473Y-28829909D01*
X73009075Y-28354919D01*
G37*
G36*
X200009200Y-45035415D02*
G01*
X199522861Y-44679212D01*
X198996263Y-44383613D01*
X198436434Y-44152975D01*
X197850402Y-43991655D01*
X197245195Y-43904009D01*
X196627843Y-43894394D01*
X196454083Y-43906250D01*
X196130693Y-43943176D01*
X195822356Y-43994759D01*
X195553602Y-44056308D01*
X195375796Y-44112500D01*
X195315541Y-44127265D01*
X195244464Y-44122466D01*
X195146209Y-44093310D01*
X195004427Y-44035001D01*
X194812688Y-43947381D01*
X194207522Y-43620781D01*
X193661483Y-43235069D01*
X193177094Y-42793378D01*
X192756874Y-42298845D01*
X192403346Y-41754604D01*
X192119031Y-41163790D01*
X191906450Y-40529539D01*
X191838875Y-40249616D01*
X191796517Y-39977631D01*
X191770391Y-39649398D01*
X191760527Y-39291916D01*
X191761234Y-39252338D01*
X193965600Y-39252338D01*
X194007233Y-39720834D01*
X194122412Y-40177898D01*
X194308443Y-40612059D01*
X194562629Y-41011845D01*
X194811970Y-41297947D01*
X195184903Y-41612733D01*
X195599390Y-41857566D01*
X196045505Y-42029707D01*
X196513326Y-42126418D01*
X196992929Y-42144960D01*
X197474391Y-42082595D01*
X197572115Y-42059646D01*
X198025387Y-41903634D01*
X198434360Y-41681243D01*
X198795167Y-41400645D01*
X199103936Y-41070011D01*
X199356799Y-40697514D01*
X199549886Y-40291327D01*
X199679329Y-39859619D01*
X199741257Y-39410565D01*
X199731802Y-38952336D01*
X199647093Y-38493104D01*
X199483263Y-38041040D01*
X199479118Y-38032053D01*
X199239713Y-37612151D01*
X198939585Y-37245299D01*
X198587443Y-36935852D01*
X198191994Y-36688161D01*
X197761947Y-36506578D01*
X197306010Y-36395455D01*
X196832892Y-36359145D01*
X196351302Y-36401999D01*
X196254491Y-36420504D01*
X195814061Y-36554512D01*
X195397652Y-36763056D01*
X195015541Y-37036981D01*
X194678005Y-37367136D01*
X194395322Y-37744367D01*
X194177769Y-38159523D01*
X194113758Y-38326935D01*
X194000210Y-38783881D01*
X193965600Y-39252338D01*
X191761234Y-39252338D01*
X191766956Y-38932183D01*
X191789710Y-38597198D01*
X191828819Y-38313960D01*
X191836602Y-38275223D01*
X192013244Y-37626841D01*
X192258819Y-37026740D01*
X192575499Y-36470902D01*
X192965456Y-35955306D01*
X193262895Y-35636227D01*
X193765187Y-35193730D01*
X194302034Y-34828447D01*
X194871842Y-34541040D01*
X195473019Y-34332168D01*
X196103973Y-34202490D01*
X196763111Y-34152668D01*
X196844096Y-34152087D01*
X197468078Y-34183447D01*
X198044843Y-34279069D01*
X198585091Y-34441267D01*
X198987761Y-34615357D01*
X199286098Y-34762733D01*
X199637997Y-34937213D01*
X200038817Y-35136463D01*
X200483915Y-35358151D01*
X200968650Y-35599944D01*
X201488382Y-35859510D01*
X202038469Y-36134516D01*
X202614269Y-36422629D01*
X203211142Y-36721517D01*
X203824445Y-37028847D01*
X204449538Y-37342285D01*
X205081780Y-37659501D01*
X205716528Y-37978160D01*
X206349142Y-38295931D01*
X206974980Y-38610480D01*
X207589402Y-38919475D01*
X208187765Y-39220583D01*
X208765428Y-39511472D01*
X209317750Y-39789808D01*
X209840090Y-40053260D01*
X210327807Y-40299495D01*
X210776259Y-40526179D01*
X211180804Y-40730981D01*
X211536802Y-40911567D01*
X211839611Y-41065605D01*
X212084589Y-41190762D01*
X212267096Y-41284706D01*
X212382491Y-41345103D01*
X212424873Y-41368676D01*
X212953425Y-41775753D01*
X213418982Y-42235495D01*
X213818512Y-42742253D01*
X214148981Y-43290381D01*
X214407354Y-43874232D01*
X214590598Y-44488160D01*
X214695680Y-45126516D01*
X214721436Y-45643573D01*
X214680194Y-46297965D01*
X214558412Y-46931859D01*
X214359007Y-47539834D01*
X214084896Y-48116471D01*
X213738996Y-48656349D01*
X213324224Y-49154049D01*
X212843496Y-49604151D01*
X212418326Y-49922973D01*
X212185231Y-50063781D01*
X211897636Y-50211383D01*
X211583611Y-50353227D01*
X211271227Y-50476762D01*
X210988556Y-50569434D01*
X210947479Y-50580686D01*
X210329387Y-50709582D01*
X209728294Y-50762262D01*
X209126856Y-50740054D01*
X209018097Y-50728309D01*
X208870872Y-50710260D01*
X208734949Y-50691146D01*
X208604573Y-50668529D01*
X208473989Y-50639971D01*
X208337443Y-50603035D01*
X208189180Y-50555283D01*
X208023445Y-50494280D01*
X207834483Y-50417586D01*
X207616540Y-50322764D01*
X207363862Y-50207378D01*
X207070692Y-50068989D01*
X206731278Y-49905161D01*
X206339863Y-49713456D01*
X205890693Y-49491436D01*
X205378014Y-49236665D01*
X204796070Y-48946704D01*
X204707871Y-48902728D01*
X201542554Y-47324432D01*
X201411391Y-46979135D01*
X201156374Y-46424082D01*
X200832984Y-45912206D01*
X200746742Y-45808119D01*
X206734660Y-45808119D01*
X206757841Y-46112504D01*
X206803947Y-46364441D01*
X206968436Y-46824454D01*
X207204017Y-47245424D01*
X207503274Y-47619945D01*
X207858794Y-47940614D01*
X208263160Y-48200024D01*
X208708958Y-48390773D01*
X208885486Y-48443139D01*
X209227789Y-48504331D01*
X209607517Y-48524651D01*
X209987755Y-48504047D01*
X210321323Y-48445127D01*
X210760942Y-48293505D01*
X211173501Y-48074626D01*
X211543146Y-47798834D01*
X211854019Y-47476476D01*
X211903796Y-47412596D01*
X212155050Y-47033609D01*
X212331853Y-46656555D01*
X212441045Y-46260920D01*
X212489462Y-45826185D01*
X212493348Y-45643573D01*
X212466559Y-45188260D01*
X212381634Y-44779964D01*
X212231737Y-44398170D01*
X212010028Y-44022360D01*
X211903796Y-43874549D01*
X211592474Y-43529442D01*
X211224934Y-43241552D01*
X210811982Y-43016133D01*
X210364423Y-42858439D01*
X209893064Y-42773725D01*
X209611753Y-42760100D01*
X209121726Y-42800592D01*
X208657106Y-42918403D01*
X208225019Y-43108042D01*
X207832590Y-43364013D01*
X207486944Y-43680825D01*
X207195207Y-44052982D01*
X206964503Y-44474992D01*
X206806854Y-44922704D01*
X206759232Y-45180793D01*
X206735145Y-45486740D01*
X206734660Y-45808119D01*
X200746742Y-45808119D01*
X200448250Y-45447865D01*
X200009200Y-45035415D01*
G37*
G36*
X129084720Y-28622931D02*
G01*
X129368481Y-28628304D01*
X129580887Y-28641507D01*
X129735259Y-28665615D01*
X129844917Y-28703707D01*
X129923180Y-28758859D01*
X129980593Y-28829873D01*
X130026537Y-28942351D01*
X130049000Y-29083075D01*
X130046207Y-29218382D01*
X130016382Y-29314610D01*
X130006780Y-29326443D01*
X129988900Y-29388215D01*
X130032800Y-29480886D01*
X130063611Y-29544411D01*
X130084728Y-29634702D01*
X130097855Y-29767170D01*
X130104694Y-29957231D01*
X130106737Y-30150127D01*
X130111891Y-30426286D01*
X130124726Y-30621447D01*
X130145551Y-30739098D01*
X130162074Y-30774013D01*
X130209693Y-30807326D01*
X130293433Y-30822061D01*
X130432446Y-30820331D01*
X130525968Y-30814157D01*
X130693217Y-30804501D01*
X130810055Y-30810989D01*
X130910378Y-30840572D01*
X131028082Y-30900201D01*
X131074888Y-30926725D01*
X131208342Y-31009091D01*
X131281104Y-31074222D01*
X131309769Y-31139808D01*
X131312755Y-31180346D01*
X131282019Y-31297892D01*
X131226410Y-31376015D01*
X131154150Y-31425835D01*
X131076774Y-31427385D01*
X131000778Y-31403789D01*
X130886040Y-31369097D01*
X130797273Y-31353490D01*
X130793549Y-31353422D01*
X130719010Y-31327557D01*
X130619764Y-31263473D01*
X130595927Y-31244305D01*
X130530387Y-31192585D01*
X130471554Y-31164564D01*
X130401350Y-31161831D01*
X130301698Y-31185974D01*
X130154521Y-31238581D01*
X130005992Y-31296141D01*
X129785011Y-31366331D01*
X129583277Y-31390342D01*
X129496375Y-31388813D01*
X129267223Y-31399354D01*
X129106978Y-31444906D01*
X128917929Y-31512322D01*
X128737153Y-31542407D01*
X128593414Y-31530879D01*
X128574238Y-31524274D01*
X128479664Y-31461726D01*
X128380403Y-31360920D01*
X128299627Y-31249799D01*
X128260511Y-31156306D01*
X128259666Y-31144955D01*
X128283068Y-31079009D01*
X128358741Y-31031215D01*
X128494887Y-30999562D01*
X128699708Y-30982042D01*
X128946405Y-30976708D01*
X129146156Y-30973887D01*
X129318379Y-30967566D01*
X129443127Y-30958720D01*
X129497554Y-30949717D01*
X129535366Y-30917693D01*
X129563541Y-30848685D01*
X129582849Y-30733916D01*
X129594065Y-30564607D01*
X129597959Y-30331982D01*
X129595304Y-30027262D01*
X129592354Y-29872462D01*
X129585393Y-29584443D01*
X129574953Y-29371292D01*
X129555689Y-29223086D01*
X129522260Y-29129907D01*
X129469323Y-29081832D01*
X129391534Y-29068942D01*
X129283551Y-29081315D01*
X129177235Y-29101664D01*
X128973436Y-29127180D01*
X128754077Y-29130643D01*
X128547964Y-29113585D01*
X128383904Y-29077539D01*
X128333873Y-29056799D01*
X128268990Y-28982317D01*
X128259477Y-28875660D01*
X128302083Y-28765935D01*
X128374453Y-28693548D01*
X128433497Y-28662845D01*
X128510722Y-28641927D01*
X128621667Y-28629251D01*
X128781871Y-28623271D01*
X129006873Y-28622442D01*
X129084720Y-28622931D01*
G37*
G36*
X90902846Y-28551348D02*
G01*
X91063511Y-28575465D01*
X91248762Y-28580164D01*
X91326886Y-28574823D01*
X91470549Y-28564631D01*
X91564124Y-28577901D01*
X91640715Y-28621608D01*
X91672133Y-28647544D01*
X91750734Y-28735927D01*
X91768974Y-28831186D01*
X91763306Y-28879465D01*
X91734410Y-28973695D01*
X91669752Y-29023689D01*
X91586565Y-29047225D01*
X91466915Y-29067616D01*
X91376372Y-29073228D01*
X91368181Y-29072469D01*
X91177383Y-29086581D01*
X90984440Y-29172209D01*
X90887559Y-29245504D01*
X90796881Y-29334980D01*
X90740871Y-29407205D01*
X90732120Y-29430359D01*
X90705371Y-29484647D01*
X90636099Y-29577333D01*
X90562504Y-29662485D01*
X90443769Y-29826828D01*
X90396693Y-29987926D01*
X90423088Y-30153171D01*
X90524768Y-30329957D01*
X90703547Y-30525676D01*
X90794594Y-30608765D01*
X90936269Y-30728192D01*
X91044442Y-30801788D01*
X91145928Y-30843336D01*
X91267543Y-30866621D01*
X91305392Y-30871340D01*
X91478426Y-30904949D01*
X91592326Y-30955396D01*
X91613658Y-30974608D01*
X91692018Y-31024690D01*
X91745451Y-31023729D01*
X91789820Y-31014878D01*
X91767988Y-31054303D01*
X91763577Y-31059794D01*
X91727896Y-31140464D01*
X91702884Y-31261947D01*
X91699971Y-31290354D01*
X91681267Y-31404469D01*
X91641920Y-31455771D01*
X91601403Y-31465526D01*
X91509839Y-31476500D01*
X91474191Y-31484058D01*
X91417184Y-31489149D01*
X91293783Y-31493712D01*
X91122402Y-31497236D01*
X90930002Y-31499167D01*
X90683258Y-31496844D01*
X90513901Y-31486378D01*
X90414840Y-31467114D01*
X90384159Y-31448831D01*
X90315010Y-31401334D01*
X90286878Y-31395826D01*
X90217257Y-31366131D01*
X90180884Y-31332239D01*
X90156779Y-31280688D01*
X90162152Y-31203181D01*
X90199849Y-31078465D01*
X90223621Y-31013258D01*
X90319132Y-30757864D01*
X90160156Y-30603469D01*
X90061925Y-30515589D01*
X90003092Y-30485789D01*
X89968888Y-30506893D01*
X89967241Y-30509721D01*
X89916687Y-30580265D01*
X89836993Y-30674119D01*
X89823863Y-30688454D01*
X89753330Y-30768491D01*
X89716135Y-30818366D01*
X89714424Y-30823133D01*
X89733940Y-30866535D01*
X89782779Y-30955115D01*
X89803707Y-30991050D01*
X89864111Y-31142187D01*
X89858982Y-31267892D01*
X89790440Y-31353938D01*
X89746691Y-31373765D01*
X89669444Y-31386723D01*
X89526720Y-31400386D01*
X89337820Y-31413250D01*
X89122045Y-31423810D01*
X89087484Y-31425143D01*
X88848274Y-31432361D01*
X88677965Y-31432575D01*
X88560855Y-31424667D01*
X88481243Y-31407517D01*
X88423425Y-31380006D01*
X88419621Y-31377553D01*
X88332779Y-31283392D01*
X88327596Y-31172018D01*
X88404079Y-31049142D01*
X88419175Y-31033465D01*
X88548912Y-30949125D01*
X88684200Y-30928803D01*
X88856726Y-30918064D01*
X88975218Y-30877103D01*
X89069137Y-30790545D01*
X89137521Y-30692249D01*
X89230127Y-30569654D01*
X89330152Y-30471992D01*
X89374852Y-30441912D01*
X89480261Y-30357255D01*
X89579280Y-30229964D01*
X89650154Y-30092825D01*
X89672020Y-29994070D01*
X89643322Y-29903726D01*
X89587212Y-29826878D01*
X89524931Y-29750645D01*
X89502404Y-29698881D01*
X89471525Y-29639163D01*
X89390135Y-29543473D01*
X89275104Y-29427338D01*
X89143302Y-29306285D01*
X89011600Y-29195842D01*
X88896868Y-29111535D01*
X88818869Y-29069767D01*
X88683539Y-29027775D01*
X88526460Y-28980597D01*
X88489067Y-28969614D01*
X88327911Y-28901404D01*
X88236050Y-28815048D01*
X88219438Y-28718246D01*
X88248235Y-28658122D01*
X88276093Y-28628124D01*
X88317540Y-28606447D01*
X88385360Y-28591764D01*
X88492339Y-28582746D01*
X88651263Y-28578067D01*
X88874917Y-28576398D01*
X89036256Y-28576285D01*
X89302583Y-28577077D01*
X89496887Y-28580069D01*
X89631944Y-28586596D01*
X89720535Y-28597993D01*
X89775439Y-28615596D01*
X89809434Y-28640740D01*
X89824090Y-28658596D01*
X89874871Y-28752234D01*
X89868431Y-28838031D01*
X89800713Y-28943491D01*
X89778030Y-28971065D01*
X89695965Y-29089397D01*
X89682179Y-29186424D01*
X89738284Y-29287578D01*
X89802494Y-29357172D01*
X89923834Y-29455636D01*
X90027855Y-29478170D01*
X90132979Y-29423918D01*
X90218880Y-29337757D01*
X90314961Y-29212204D01*
X90345807Y-29120804D01*
X90314789Y-29047854D01*
X90286878Y-29021202D01*
X90235216Y-28930545D01*
X90227980Y-28808383D01*
X90264951Y-28695320D01*
X90288787Y-28664917D01*
X90421156Y-28583054D01*
X90601434Y-28537287D01*
X90798321Y-28533406D01*
X90902846Y-28551348D01*
G37*
G36*
X138691052Y-55057262D02*
G01*
X138182204Y-55057262D01*
X138182204Y-57135058D01*
X138691052Y-57135058D01*
X138691052Y-57389482D01*
X137927780Y-57389482D01*
X137927780Y-54802838D01*
X138691052Y-54802838D01*
X138691052Y-55057262D01*
G37*
G36*
X185886711Y-57389482D02*
G01*
X185123439Y-57389482D01*
X185123439Y-57135058D01*
X185632287Y-57135058D01*
X185632287Y-55057262D01*
X185123439Y-55057262D01*
X185123439Y-54802838D01*
X185886711Y-54802838D01*
X185886711Y-57389482D01*
G37*
G36*
X100105666Y-28621090D02*
G01*
X100396277Y-28626651D01*
X100615247Y-28642226D01*
X100775454Y-28670823D01*
X100889777Y-28715452D01*
X100971092Y-28779125D01*
X101013025Y-28833180D01*
X101057753Y-28949362D01*
X101076636Y-29097492D01*
X101067350Y-29237364D01*
X101040708Y-29312341D01*
X101031762Y-29397389D01*
X101062298Y-29481957D01*
X101094687Y-29596191D01*
X101115907Y-29791984D01*
X101125687Y-30066789D01*
X101125858Y-30081302D01*
X101130371Y-30289592D01*
X101138531Y-30478274D01*
X101149104Y-30624264D01*
X101158758Y-30696160D01*
X101186380Y-30823372D01*
X101536704Y-30808014D01*
X101717485Y-30802878D01*
X101840043Y-30809666D01*
X101930642Y-30832915D01*
X102015544Y-30877164D01*
X102044716Y-30895791D01*
X102159446Y-30966202D01*
X102255334Y-31017345D01*
X102276611Y-31026429D01*
X102336288Y-31087119D01*
X102346964Y-31186977D01*
X102309591Y-31296637D01*
X102266010Y-31353422D01*
X102167027Y-31418935D01*
X102066260Y-31436559D01*
X101994319Y-31401585D01*
X101990384Y-31395826D01*
X101932692Y-31364534D01*
X101846859Y-31353422D01*
X101721029Y-31317251D01*
X101628591Y-31245965D01*
X101563692Y-31189061D01*
X101492343Y-31162495D01*
X101397750Y-31167668D01*
X101263122Y-31205984D01*
X101071668Y-31278846D01*
X101029153Y-31296031D01*
X100815038Y-31366500D01*
X100617271Y-31390270D01*
X100532272Y-31388706D01*
X100305997Y-31399244D01*
X100145041Y-31444906D01*
X99984046Y-31503599D01*
X99819554Y-31538845D01*
X99683502Y-31544945D01*
X99636962Y-31535591D01*
X99536949Y-31475440D01*
X99431925Y-31377270D01*
X99345140Y-31267288D01*
X99299846Y-31171701D01*
X99297730Y-31153237D01*
X99311426Y-31087337D01*
X99359705Y-31039643D01*
X99453347Y-31007437D01*
X99603136Y-30988005D01*
X99819855Y-30978631D01*
X99998933Y-30976656D01*
X100231036Y-30973144D01*
X100391929Y-30963536D01*
X100495090Y-30946285D01*
X100553994Y-30919844D01*
X100563128Y-30911874D01*
X100585754Y-30875459D01*
X100602040Y-30810720D01*
X100612718Y-30706298D01*
X100618519Y-30550836D01*
X100620173Y-30332972D01*
X100618513Y-30051660D01*
X100614911Y-29795875D01*
X100609479Y-29566049D01*
X100602741Y-29376946D01*
X100595223Y-29243333D01*
X100587559Y-29180316D01*
X100522807Y-29105980D01*
X100398116Y-29075443D01*
X100227605Y-29091176D01*
X100165376Y-29106468D01*
X100009536Y-29131124D01*
X99817741Y-29135233D01*
X99622373Y-29120735D01*
X99455814Y-29089570D01*
X99374014Y-29059044D01*
X99307529Y-28982449D01*
X99297574Y-28874499D01*
X99341090Y-28764185D01*
X99412593Y-28693548D01*
X99473163Y-28662308D01*
X99552980Y-28641078D01*
X99667852Y-28628208D01*
X99833589Y-28622043D01*
X100066002Y-28620932D01*
X100105666Y-28621090D01*
G37*
G36*
X118117863Y-30279957D02*
G01*
X118224024Y-30059684D01*
X118386365Y-29902135D01*
X118607034Y-29805421D01*
X118888179Y-29767655D01*
X118973189Y-29767290D01*
X119189845Y-29761317D01*
X119339506Y-29735071D01*
X119385426Y-29715060D01*
X119481332Y-29672697D01*
X119621030Y-29629417D01*
X119703456Y-29609715D01*
X119873363Y-29566505D01*
X119974430Y-29517562D01*
X120022426Y-29451415D01*
X120033289Y-29369845D01*
X120002289Y-29254922D01*
X119923619Y-29121611D01*
X119818777Y-29000601D01*
X119725565Y-28930563D01*
X119614990Y-28900178D01*
X119459848Y-28889711D01*
X119297881Y-28898631D01*
X119166828Y-28926407D01*
X119138261Y-28938826D01*
X119088965Y-28984581D01*
X119064483Y-29068747D01*
X119057997Y-29210434D01*
X119034662Y-29398242D01*
X118959681Y-29523573D01*
X118825591Y-29593440D01*
X118627615Y-29614858D01*
X118497768Y-29608965D01*
X118419785Y-29580963D01*
X118360979Y-29515371D01*
X118336664Y-29477045D01*
X118268196Y-29315350D01*
X118261720Y-29142816D01*
X118317588Y-28939446D01*
X118347410Y-28867496D01*
X118396768Y-28761066D01*
X118444630Y-28690433D01*
X118511551Y-28640153D01*
X118618086Y-28594782D01*
X118784793Y-28538877D01*
X118784831Y-28538865D01*
X119137212Y-28453904D01*
X119465504Y-28433077D01*
X119761410Y-28474126D01*
X120016633Y-28574794D01*
X120222877Y-28732824D01*
X120371845Y-28945959D01*
X120385063Y-28974199D01*
X120425168Y-29080536D01*
X120451934Y-29199813D01*
X120468116Y-29352804D01*
X120476467Y-29560283D01*
X120478422Y-29678464D01*
X120485343Y-29971104D01*
X120498184Y-30242717D01*
X120515796Y-30481423D01*
X120537033Y-30675344D01*
X120560747Y-30812598D01*
X120585791Y-30881307D01*
X120595136Y-30886978D01*
X120647447Y-30856691D01*
X120717275Y-30783564D01*
X120719329Y-30780968D01*
X120811716Y-30705065D01*
X120915385Y-30676397D01*
X121002340Y-30698285D01*
X121037448Y-30743249D01*
X121045136Y-30828295D01*
X121029616Y-30947184D01*
X121025516Y-30964736D01*
X120972482Y-31087830D01*
X120869931Y-31182048D01*
X120817763Y-31213779D01*
X120621479Y-31294563D01*
X120443466Y-31297705D01*
X120266267Y-31222476D01*
X120216418Y-31188720D01*
X120104880Y-31116106D01*
X120029969Y-31093589D01*
X119966232Y-31113498D01*
X119765765Y-31205441D01*
X119528313Y-31277202D01*
X119275855Y-31325843D01*
X119030370Y-31348432D01*
X118813836Y-31342034D01*
X118648235Y-31303713D01*
X118624476Y-31292651D01*
X118506693Y-31243373D01*
X118412456Y-31218705D01*
X118324286Y-31170980D01*
X118220663Y-31058825D01*
X118181199Y-31003416D01*
X118102526Y-30874676D01*
X118065943Y-30769833D01*
X118060351Y-30646729D01*
X118061822Y-30624340D01*
X118506745Y-30624340D01*
X118545908Y-30733074D01*
X118652898Y-30823770D01*
X118811969Y-30892797D01*
X119007373Y-30936526D01*
X119223362Y-30951326D01*
X119444189Y-30933567D01*
X119638482Y-30885216D01*
X119741046Y-30825425D01*
X119856142Y-30724151D01*
X119910610Y-30662973D01*
X119990863Y-30552011D01*
X120036788Y-30448308D01*
X120060188Y-30317284D01*
X120069037Y-30198855D01*
X120074268Y-30055375D01*
X120072536Y-29952420D01*
X120064227Y-29911718D01*
X120063907Y-29911686D01*
X120015993Y-29927743D01*
X119918420Y-29968531D01*
X119857703Y-29995563D01*
X119710560Y-30048193D01*
X119564905Y-30078890D01*
X119524441Y-30081860D01*
X119402879Y-30092264D01*
X119238723Y-30116788D01*
X119101033Y-30143222D01*
X118931474Y-30187508D01*
X118811354Y-30244470D01*
X118705514Y-30332721D01*
X118666392Y-30373312D01*
X118576954Y-30482999D01*
X118519021Y-30580544D01*
X118506745Y-30624340D01*
X118061822Y-30624340D01*
X118065732Y-30564842D01*
X118117863Y-30279957D01*
G37*
G36*
X65873362Y-48145822D02*
G01*
X65879651Y-48098182D01*
X66011687Y-47452695D01*
X66218143Y-46842150D01*
X66494256Y-46271113D01*
X66835265Y-45744151D01*
X67236408Y-45265831D01*
X67692921Y-44840719D01*
X68200044Y-44473382D01*
X68753014Y-44168388D01*
X69347068Y-43930303D01*
X69977446Y-43763693D01*
X70478965Y-43687570D01*
X71104864Y-43664381D01*
X71731298Y-43724776D01*
X72352883Y-43867738D01*
X72964232Y-44092248D01*
X73198064Y-44201364D01*
X73286998Y-44246967D01*
X73382571Y-44299549D01*
X73489102Y-44362134D01*
X73610909Y-44437746D01*
X73752311Y-44529407D01*
X73917625Y-44640141D01*
X74111171Y-44772971D01*
X74337266Y-44930921D01*
X74600230Y-45117014D01*
X74904379Y-45334273D01*
X75254034Y-45585722D01*
X75653512Y-45874384D01*
X76107131Y-46203282D01*
X76619210Y-46575440D01*
X77194068Y-46993881D01*
X77374858Y-47125573D01*
X77989799Y-47573350D01*
X78540722Y-47973867D01*
X79031993Y-48330025D01*
X79467978Y-48644724D01*
X79853044Y-48920862D01*
X80191557Y-49161342D01*
X80487882Y-49369062D01*
X80746386Y-49546923D01*
X80971435Y-49697825D01*
X81167396Y-49824669D01*
X81338634Y-49930353D01*
X81489515Y-50017779D01*
X81624406Y-50089846D01*
X81747673Y-50149455D01*
X81863682Y-50199506D01*
X81976799Y-50242898D01*
X82091390Y-50282532D01*
X82162523Y-50305669D01*
X82771668Y-50456896D01*
X83394206Y-50528081D01*
X84020459Y-50520544D01*
X84640749Y-50435608D01*
X85245398Y-50274595D01*
X85824728Y-50038827D01*
X86366347Y-49731415D01*
X86454715Y-49666567D01*
X86602143Y-49550195D01*
X86803748Y-49386486D01*
X87054648Y-49179626D01*
X87349960Y-48933805D01*
X87684803Y-48653207D01*
X88054292Y-48342021D01*
X88453547Y-48004435D01*
X88877684Y-47644634D01*
X89321820Y-47266806D01*
X89781074Y-46875139D01*
X90250563Y-46473820D01*
X90725404Y-46067035D01*
X91200715Y-45658973D01*
X91218614Y-45643573D01*
X96058710Y-45643573D01*
X96060090Y-45894659D01*
X96065895Y-46081775D01*
X96078625Y-46225738D01*
X96100780Y-46347364D01*
X96134858Y-46467470D01*
X96169884Y-46569461D01*
X96370394Y-47013976D01*
X96635312Y-47415728D01*
X96956351Y-47766426D01*
X97325221Y-48057778D01*
X97733635Y-48281493D01*
X97972822Y-48372933D01*
X98161922Y-48433416D01*
X98308625Y-48474455D01*
X98437748Y-48499342D01*
X98574110Y-48511368D01*
X98742531Y-48513823D01*
X98967829Y-48509999D01*
X99000902Y-48509251D01*
X99247147Y-48499768D01*
X99439013Y-48481150D01*
X99606808Y-48448740D01*
X99780844Y-48397879D01*
X99827373Y-48382251D01*
X100289019Y-48181614D01*
X100698872Y-47914823D01*
X101053105Y-47585664D01*
X101347894Y-47197922D01*
X101579411Y-46755384D01*
X101647223Y-46581454D01*
X101700918Y-46425100D01*
X101737466Y-46295174D01*
X101760113Y-46168263D01*
X101772101Y-46020954D01*
X101776677Y-45829834D01*
X101777196Y-45643573D01*
X101775341Y-45400677D01*
X101768284Y-45219373D01*
X101752986Y-45076473D01*
X101726409Y-44948789D01*
X101685514Y-44813132D01*
X101657775Y-44732293D01*
X101451845Y-44265932D01*
X101181715Y-43853979D01*
X100850459Y-43499533D01*
X100461147Y-43205696D01*
X100016854Y-42975567D01*
X99853975Y-42912443D01*
X99697928Y-42858815D01*
X99568531Y-42822335D01*
X99442425Y-42799790D01*
X99296256Y-42787967D01*
X99106664Y-42783653D01*
X98916094Y-42783428D01*
X98669817Y-42785915D01*
X98484438Y-42793918D01*
X98336082Y-42810488D01*
X98200874Y-42838675D01*
X98054941Y-42881532D01*
X97995312Y-42901095D01*
X97556286Y-43091288D01*
X97155699Y-43352711D01*
X96801492Y-43677462D01*
X96501610Y-44057635D01*
X96263993Y-44485327D01*
X96169884Y-44717684D01*
X96125183Y-44850375D01*
X96094286Y-44968920D01*
X96074695Y-45094133D01*
X96063911Y-45246833D01*
X96059433Y-45447835D01*
X96058710Y-45643573D01*
X91218614Y-45643573D01*
X91671613Y-45253819D01*
X92133216Y-44855762D01*
X92580641Y-44468989D01*
X93009006Y-44097686D01*
X93413428Y-43746042D01*
X93789024Y-43418242D01*
X94130913Y-43118475D01*
X94434212Y-42850928D01*
X94694038Y-42619787D01*
X94905509Y-42429240D01*
X95063741Y-42283474D01*
X95163339Y-42187202D01*
X95601365Y-41770224D01*
X96031183Y-41426100D01*
X96468013Y-41146176D01*
X96927076Y-40921797D01*
X97423590Y-40744309D01*
X97929463Y-40614359D01*
X98190801Y-40573416D01*
X98509187Y-40548098D01*
X98858314Y-40538391D01*
X99211876Y-40544282D01*
X99543568Y-40565757D01*
X99827083Y-40602804D01*
X99891386Y-40615352D01*
X100539464Y-40794744D01*
X101145688Y-41045215D01*
X101705942Y-41362204D01*
X102216111Y-41741152D01*
X102672081Y-42177498D01*
X103069735Y-42666684D01*
X103404958Y-43204148D01*
X103673634Y-43785330D01*
X103871649Y-44405672D01*
X103994888Y-45060612D01*
X104008320Y-45177113D01*
X104021091Y-45355805D01*
X104030717Y-45615916D01*
X104037161Y-45954116D01*
X104040385Y-46367075D01*
X104040353Y-46851461D01*
X104037027Y-47403943D01*
X104035265Y-47594218D01*
X104030358Y-48061286D01*
X104025520Y-48452173D01*
X104020358Y-48775505D01*
X104014478Y-49039910D01*
X104007484Y-49254012D01*
X103998984Y-49426438D01*
X103988583Y-49565814D01*
X103975886Y-49680767D01*
X103960501Y-49779923D01*
X103942032Y-49871907D01*
X103928526Y-49930518D01*
X103731001Y-50587412D01*
X103465238Y-51195116D01*
X103133957Y-51750882D01*
X102739875Y-52251960D01*
X102285711Y-52695602D01*
X101774183Y-53079059D01*
X101208009Y-53399583D01*
X100589908Y-53654424D01*
X100103406Y-53798423D01*
X99742972Y-53888699D01*
X85155994Y-53895419D01*
X84046036Y-53895829D01*
X82956573Y-53896032D01*
X81890740Y-53896033D01*
X80851675Y-53895838D01*
X79842513Y-53895454D01*
X78866391Y-53894886D01*
X77926446Y-53894141D01*
X77025812Y-53893225D01*
X76167628Y-53892143D01*
X75355029Y-53890901D01*
X74591151Y-53889505D01*
X73879131Y-53887962D01*
X73222106Y-53886278D01*
X72623211Y-53884458D01*
X72085583Y-53882508D01*
X71612358Y-53880434D01*
X71206673Y-53878243D01*
X70871664Y-53875940D01*
X70610467Y-53873531D01*
X70426219Y-53871023D01*
X70322056Y-53868421D01*
X70300864Y-53867070D01*
X69664318Y-53742285D01*
X69057390Y-53541062D01*
X68485533Y-53268256D01*
X67954202Y-52928722D01*
X67468852Y-52527316D01*
X67034938Y-52068893D01*
X66657914Y-51558307D01*
X66343235Y-51000415D01*
X66096356Y-50400071D01*
X65983808Y-50024465D01*
X65916400Y-49690466D01*
X65869983Y-49304745D01*
X65846225Y-48898160D01*
X65846515Y-48696113D01*
X68071893Y-48696113D01*
X68078074Y-49035754D01*
X68113110Y-49348862D01*
X68145959Y-49502337D01*
X68310953Y-49965003D01*
X68546495Y-50387201D01*
X68845550Y-50761894D01*
X69201082Y-51082045D01*
X69606055Y-51340618D01*
X70053432Y-51530574D01*
X70224384Y-51581035D01*
X70566687Y-51642228D01*
X70946415Y-51662548D01*
X71326653Y-51641944D01*
X71660221Y-51583023D01*
X72122847Y-51422282D01*
X72545437Y-51190329D01*
X72921097Y-50894019D01*
X73242934Y-50540206D01*
X73504054Y-50135741D01*
X73697562Y-49687480D01*
X73753197Y-49502337D01*
X73800563Y-49243885D01*
X73823990Y-48937488D01*
X73823498Y-48615677D01*
X73799107Y-48310983D01*
X73752302Y-48061326D01*
X73596554Y-47620315D01*
X73375004Y-47219691D01*
X73080375Y-46847570D01*
X72894218Y-46659827D01*
X72578432Y-46400014D01*
X72235394Y-46195770D01*
X71839242Y-46031948D01*
X71798731Y-46018213D01*
X71654932Y-45974776D01*
X71517468Y-45945937D01*
X71362691Y-45928940D01*
X71166952Y-45921029D01*
X70950651Y-45919390D01*
X70700624Y-45921967D01*
X70511374Y-45931365D01*
X70358966Y-45950380D01*
X70219464Y-45981811D01*
X70096724Y-46019203D01*
X69638350Y-46212225D01*
X69225123Y-46471472D01*
X68863727Y-46789907D01*
X68560845Y-47160494D01*
X68323159Y-47576198D01*
X68157353Y-48029982D01*
X68146082Y-48072853D01*
X68094563Y-48363845D01*
X68071893Y-48696113D01*
X65846515Y-48696113D01*
X65846795Y-48501567D01*
X65873362Y-48145822D01*
G37*
G36*
X191994913Y-41788843D02*
G01*
X192078627Y-41961147D01*
X192143086Y-42104490D01*
X192181454Y-42202904D01*
X192188027Y-42239864D01*
X192137715Y-42275629D01*
X192036035Y-42339158D01*
X191902654Y-42419028D01*
X191757236Y-42503814D01*
X191619446Y-42582093D01*
X191508949Y-42642438D01*
X191445410Y-42673427D01*
X191438517Y-42675292D01*
X191401921Y-42643105D01*
X191327298Y-42555757D01*
X191225958Y-42427067D01*
X191123376Y-42290212D01*
X191012170Y-42136047D01*
X190924168Y-42008942D01*
X190868884Y-41922998D01*
X190854958Y-41892503D01*
X190918632Y-41847175D01*
X191034469Y-41773701D01*
X191180538Y-41685201D01*
X191334910Y-41594794D01*
X191475654Y-41515596D01*
X191557653Y-41472164D01*
X191779680Y-41359941D01*
X191994913Y-41788843D01*
G37*
G36*
X180671019Y-55057262D02*
G01*
X180162171Y-55057262D01*
X180162171Y-57135058D01*
X180671019Y-57135058D01*
X180671019Y-57389482D01*
X179907746Y-57389482D01*
X179907746Y-54802838D01*
X180671019Y-54802838D01*
X180671019Y-55057262D01*
G37*
G36*
X123383206Y-55057262D02*
G01*
X122874357Y-55057262D01*
X122874357Y-57135058D01*
X123383206Y-57135058D01*
X123383206Y-57389482D01*
X122619933Y-57389482D01*
X122619933Y-54802838D01*
X123383206Y-54802838D01*
X123383206Y-55057262D01*
G37*
G36*
X86661336Y-57389482D02*
G01*
X85898064Y-57389482D01*
X85898064Y-57135058D01*
X86406912Y-57135058D01*
X86406912Y-55057262D01*
X85898064Y-55057262D01*
X85898064Y-54802838D01*
X86661336Y-54802838D01*
X86661336Y-57389482D01*
G37*
G36*
X83862671Y-57135058D02*
G01*
X83721325Y-57135058D01*
X83616548Y-57127301D01*
X83553623Y-57108458D01*
X83551709Y-57106789D01*
X83543052Y-57057559D01*
X83535467Y-56936848D01*
X83529386Y-56757980D01*
X83525244Y-56534280D01*
X83523474Y-56279073D01*
X83523439Y-56237507D01*
X83523439Y-55396494D01*
X83375025Y-55396494D01*
X83274659Y-55388574D01*
X83233571Y-55352932D01*
X83226611Y-55290484D01*
X83240303Y-55214722D01*
X83298504Y-55187006D01*
X83353823Y-55184474D01*
X83475389Y-55155200D01*
X83581850Y-55082475D01*
X83644388Y-54988940D01*
X83650651Y-54951252D01*
X83687513Y-54900095D01*
X83756661Y-54887646D01*
X83862671Y-54887646D01*
X83862671Y-57135058D01*
G37*
G36*
X76478108Y-29707293D02*
G01*
X76554874Y-29726796D01*
X76569182Y-29742070D01*
X76608126Y-29764229D01*
X76711289Y-29779400D01*
X76844808Y-29784474D01*
X77120434Y-29784474D01*
X77120434Y-29954090D01*
X77130937Y-30072029D01*
X77165754Y-30120628D01*
X77184040Y-30123706D01*
X77240470Y-30146603D01*
X77247646Y-30166110D01*
X77281992Y-30203730D01*
X77311252Y-30208514D01*
X77367682Y-30185617D01*
X77374858Y-30166110D01*
X77409204Y-30128490D01*
X77438464Y-30123706D01*
X77482692Y-30095698D01*
X77500916Y-30002853D01*
X77502070Y-29954090D01*
X77502070Y-29784474D01*
X77692888Y-29784474D01*
X77818659Y-29792798D01*
X77875948Y-29821102D01*
X77883706Y-29848080D01*
X77906603Y-29904510D01*
X77926110Y-29911686D01*
X77947863Y-29950906D01*
X77962893Y-30056025D01*
X77968514Y-30208226D01*
X77968514Y-30208514D01*
X77962912Y-30360780D01*
X77947895Y-30465994D01*
X77926152Y-30505342D01*
X77926110Y-30505342D01*
X77892060Y-30540986D01*
X77883706Y-30593179D01*
X77854867Y-30693308D01*
X77786758Y-30774274D01*
X77717119Y-30802170D01*
X77673550Y-30834748D01*
X77671686Y-30847603D01*
X77639567Y-30919538D01*
X77569068Y-30987856D01*
X77505099Y-31014190D01*
X77461504Y-31044676D01*
X77459666Y-31056594D01*
X77423378Y-31088470D01*
X77353656Y-31098998D01*
X77273966Y-31113514D01*
X77247646Y-31141402D01*
X77220276Y-31199901D01*
X77162838Y-31268614D01*
X77111087Y-31309120D01*
X77041349Y-31334449D01*
X76934258Y-31347961D01*
X76770451Y-31353013D01*
X76673861Y-31353422D01*
X76476402Y-31350638D01*
X76349006Y-31340840D01*
X76277066Y-31321861D01*
X76245976Y-31291532D01*
X76245285Y-31289816D01*
X76184630Y-31241781D01*
X76076999Y-31226210D01*
X75969039Y-31211502D01*
X75933169Y-31165057D01*
X75933122Y-31162604D01*
X75899179Y-31106386D01*
X75869516Y-31098998D01*
X75813086Y-31076101D01*
X75805910Y-31056594D01*
X75770395Y-31022142D01*
X75721102Y-31014190D01*
X75652197Y-30996433D01*
X75636294Y-30971786D01*
X75601949Y-30934166D01*
X75572688Y-30929382D01*
X75516283Y-30904884D01*
X75509082Y-30883949D01*
X75476962Y-30812015D01*
X75406464Y-30743697D01*
X75342495Y-30717362D01*
X75300523Y-30683829D01*
X75297062Y-30663117D01*
X75265747Y-30598533D01*
X75212254Y-30547746D01*
X75145504Y-30462433D01*
X75127446Y-30389971D01*
X75110543Y-30314894D01*
X75082013Y-30293322D01*
X75000225Y-30256120D01*
X74937323Y-30165168D01*
X74915426Y-30063614D01*
X74945081Y-29942486D01*
X75018678Y-29840575D01*
X75113167Y-29786937D01*
X75136870Y-29784474D01*
X75200484Y-29764751D01*
X75212254Y-29742070D01*
X75250620Y-29718977D01*
X75349705Y-29703576D01*
X75448505Y-29699666D01*
X75635032Y-29715980D01*
X75750208Y-29767855D01*
X75801557Y-29859690D01*
X75805910Y-29908657D01*
X75821868Y-29979210D01*
X75845205Y-29996494D01*
X75887632Y-30031424D01*
X75903892Y-30070701D01*
X75920008Y-30122962D01*
X75926652Y-30092849D01*
X75928203Y-30070701D01*
X75952493Y-30007652D01*
X75975526Y-29996494D01*
X76007402Y-29960206D01*
X76017930Y-29890484D01*
X76040047Y-29805223D01*
X76081536Y-29784474D01*
X76137966Y-29761577D01*
X76145142Y-29742070D01*
X76183279Y-29717881D01*
X76280789Y-29702528D01*
X76357162Y-29699666D01*
X76478108Y-29707293D01*
G37*
G36*
X191515843Y-54980495D02*
G01*
X191674858Y-54993656D01*
X191686255Y-55958347D01*
X191697653Y-56923038D01*
X192586544Y-56923038D01*
X192586544Y-57219866D01*
X191356828Y-57219866D01*
X191356828Y-54967335D01*
X191515843Y-54980495D01*
G37*
G36*
X85942728Y-28621090D02*
G01*
X86233338Y-28626651D01*
X86452308Y-28642226D01*
X86612516Y-28670823D01*
X86726838Y-28715452D01*
X86808154Y-28779125D01*
X86850087Y-28833180D01*
X86894815Y-28949362D01*
X86913698Y-29097492D01*
X86904412Y-29237364D01*
X86877769Y-29312341D01*
X86868823Y-29397389D01*
X86899359Y-29481957D01*
X86931749Y-29596191D01*
X86952969Y-29791984D01*
X86962749Y-30066789D01*
X86962920Y-30081302D01*
X86967432Y-30289592D01*
X86975593Y-30478274D01*
X86986166Y-30624264D01*
X86995820Y-30696160D01*
X87023441Y-30823372D01*
X87373765Y-30808014D01*
X87554546Y-30802878D01*
X87677105Y-30809666D01*
X87767704Y-30832915D01*
X87852606Y-30877164D01*
X87881778Y-30895791D01*
X87996508Y-30966202D01*
X88092396Y-31017345D01*
X88113673Y-31026429D01*
X88173350Y-31087119D01*
X88184026Y-31186977D01*
X88146653Y-31296637D01*
X88103072Y-31353422D01*
X88004089Y-31418935D01*
X87903321Y-31436559D01*
X87831380Y-31401585D01*
X87827446Y-31395826D01*
X87769753Y-31364534D01*
X87683921Y-31353422D01*
X87558090Y-31317251D01*
X87465652Y-31245965D01*
X87400754Y-31189061D01*
X87329405Y-31162495D01*
X87234812Y-31167668D01*
X87100184Y-31205984D01*
X86908730Y-31278846D01*
X86866215Y-31296031D01*
X86652099Y-31366500D01*
X86454333Y-31390270D01*
X86369334Y-31388706D01*
X86143059Y-31399244D01*
X85982103Y-31444906D01*
X85821108Y-31503599D01*
X85656616Y-31538845D01*
X85520564Y-31544945D01*
X85474024Y-31535591D01*
X85374011Y-31475440D01*
X85268987Y-31377270D01*
X85182201Y-31267288D01*
X85136907Y-31171701D01*
X85134792Y-31153237D01*
X85148488Y-31087337D01*
X85196766Y-31039643D01*
X85290409Y-31007437D01*
X85440198Y-30988005D01*
X85656917Y-30978631D01*
X85835995Y-30976656D01*
X86068097Y-30973144D01*
X86228991Y-30963536D01*
X86332151Y-30946285D01*
X86391056Y-30919844D01*
X86400189Y-30911874D01*
X86422816Y-30875459D01*
X86439102Y-30810720D01*
X86449780Y-30706298D01*
X86455580Y-30550836D01*
X86457235Y-30332972D01*
X86455575Y-30051660D01*
X86451972Y-29795875D01*
X86446540Y-29566049D01*
X86439803Y-29376946D01*
X86432285Y-29243333D01*
X86424621Y-29180316D01*
X86359869Y-29105980D01*
X86235178Y-29075443D01*
X86064667Y-29091176D01*
X86002438Y-29106468D01*
X85846598Y-29131124D01*
X85654803Y-29135233D01*
X85459435Y-29120735D01*
X85292876Y-29089570D01*
X85211075Y-29059044D01*
X85144591Y-28982449D01*
X85134636Y-28874499D01*
X85178151Y-28764185D01*
X85249654Y-28693548D01*
X85310225Y-28662308D01*
X85390041Y-28641078D01*
X85504913Y-28628208D01*
X85670651Y-28622043D01*
X85903064Y-28620932D01*
X85942728Y-28621090D01*
G37*
G36*
X83640085Y-28457874D02*
G01*
X83797522Y-28487823D01*
X83808237Y-28490898D01*
X83969257Y-28524643D01*
X84131214Y-28538155D01*
X84179981Y-28536563D01*
X84302147Y-28532594D01*
X84392021Y-28540349D01*
X84404170Y-28543817D01*
X84490175Y-28622038D01*
X84542535Y-28777112D01*
X84560948Y-29007912D01*
X84558708Y-29121957D01*
X84547602Y-29299348D01*
X84529102Y-29411849D01*
X84498272Y-29479344D01*
X84461323Y-29514362D01*
X84398066Y-29545999D01*
X84332051Y-29536031D01*
X84231524Y-29479398D01*
X84228093Y-29477213D01*
X84121160Y-29386756D01*
X84076802Y-29298429D01*
X84076486Y-29292799D01*
X84038450Y-29179540D01*
X83927261Y-29094655D01*
X83739537Y-29036094D01*
X83620938Y-29016692D01*
X83448155Y-28992939D01*
X83287474Y-28968764D01*
X83187874Y-28951936D01*
X83088485Y-28942805D01*
X83016052Y-28972519D01*
X82935608Y-29056532D01*
X82926717Y-29067362D01*
X82855924Y-29162076D01*
X82835003Y-29227902D01*
X82856462Y-29298417D01*
X82869406Y-29324274D01*
X82947887Y-29445591D01*
X83046809Y-29529132D01*
X83182098Y-29581073D01*
X83369676Y-29607589D01*
X83618725Y-29614858D01*
X83891282Y-29624413D01*
X84101108Y-29658502D01*
X84268678Y-29725262D01*
X84414469Y-29832831D01*
X84557934Y-29988101D01*
X84685379Y-30180498D01*
X84737566Y-30367558D01*
X84719033Y-30572670D01*
X84690567Y-30671896D01*
X84617490Y-30821117D01*
X84505996Y-30970101D01*
X84375178Y-31099878D01*
X84244129Y-31191479D01*
X84132875Y-31225937D01*
X84033479Y-31242323D01*
X83909466Y-31282046D01*
X83894011Y-31288313D01*
X83760927Y-31319649D01*
X83572195Y-31323207D01*
X83319808Y-31298603D01*
X82995761Y-31245452D01*
X82993389Y-31245010D01*
X82894115Y-31242689D01*
X82801847Y-31287075D01*
X82725747Y-31350954D01*
X82594213Y-31450649D01*
X82491548Y-31474075D01*
X82408464Y-31420703D01*
X82353307Y-31329733D01*
X82314362Y-31222271D01*
X82298658Y-31097720D01*
X82303407Y-30927290D01*
X82308280Y-30864383D01*
X82316294Y-30682681D01*
X82309702Y-30528532D01*
X82292010Y-30437230D01*
X82265875Y-30294226D01*
X82301574Y-30193989D01*
X82387336Y-30148550D01*
X82511390Y-30169938D01*
X82540232Y-30183539D01*
X82647492Y-30284802D01*
X82727041Y-30450230D01*
X82791444Y-30593495D01*
X82870692Y-30717696D01*
X82906036Y-30757375D01*
X82960608Y-30802340D01*
X83021847Y-30831266D01*
X83108879Y-30847581D01*
X83240830Y-30854710D01*
X83436825Y-30856078D01*
X83456886Y-30856039D01*
X83658080Y-30854286D01*
X83794746Y-30847399D01*
X83887153Y-30831282D01*
X83955577Y-30801836D01*
X84020287Y-30754964D01*
X84040632Y-30738050D01*
X84145214Y-30632695D01*
X84227082Y-30520921D01*
X84238293Y-30499975D01*
X84273824Y-30403170D01*
X84259202Y-30326601D01*
X84227603Y-30273034D01*
X84116511Y-30162293D01*
X83952909Y-30068313D01*
X83762302Y-29998950D01*
X83570194Y-29962063D01*
X83402088Y-29965506D01*
X83318173Y-29992879D01*
X83248941Y-30020504D01*
X83227097Y-29995214D01*
X83226611Y-29983591D01*
X83190448Y-29919892D01*
X83106920Y-29872907D01*
X83013465Y-29858720D01*
X82968282Y-29872593D01*
X82839460Y-29910590D01*
X82688313Y-29895727D01*
X82554394Y-29833133D01*
X82534171Y-29816277D01*
X82451210Y-29702330D01*
X82376242Y-29534809D01*
X82320285Y-29344893D01*
X82294353Y-29163763D01*
X82293723Y-29135676D01*
X82333892Y-28972869D01*
X82454645Y-28787041D01*
X82642786Y-28590091D01*
X82706042Y-28539528D01*
X82778634Y-28505527D01*
X82880920Y-28483066D01*
X83033258Y-28467121D01*
X83182007Y-28457061D01*
X83441950Y-28448001D01*
X83640085Y-28457874D01*
G37*
G36*
X201063001Y-54974614D02*
G01*
X201078659Y-54999263D01*
X201081265Y-55050232D01*
X201069919Y-55136135D01*
X201043720Y-55265585D01*
X201001767Y-55447196D01*
X200943160Y-55689581D01*
X200866997Y-56001354D01*
X200818113Y-56202170D01*
X200576199Y-57198664D01*
X200427543Y-57211312D01*
X200278888Y-57223959D01*
X200015126Y-56130010D01*
X199944860Y-55837226D01*
X199881697Y-55571437D01*
X199828240Y-55343802D01*
X199787089Y-55165482D01*
X199760845Y-55047635D01*
X199752093Y-55001697D01*
X199789814Y-54982734D01*
X199882487Y-54978663D01*
X199911668Y-54980495D01*
X200070514Y-54993656D01*
X200244986Y-55756928D01*
X200303671Y-56017977D01*
X200348557Y-56212942D01*
X200384110Y-56339822D01*
X200414795Y-56396620D01*
X200445077Y-56381335D01*
X200479422Y-56291969D01*
X200522294Y-56126523D01*
X200578158Y-55882997D01*
X200647513Y-55576711D01*
X200785834Y-54972454D01*
X200946732Y-54972454D01*
X200996137Y-54969823D01*
X201035194Y-54967672D01*
X201063001Y-54974614D01*
G37*
G36*
X190042384Y-42700864D02*
G01*
X190137686Y-42770183D01*
X190268259Y-42872156D01*
X190395189Y-42975557D01*
X190757366Y-43275821D01*
X190606170Y-43473804D01*
X190508934Y-43610271D01*
X190424330Y-43744471D01*
X190389199Y-43809599D01*
X190334467Y-43899979D01*
X190284884Y-43944097D01*
X190278273Y-43945006D01*
X190221582Y-43930177D01*
X190104404Y-43892064D01*
X189945718Y-43837013D01*
X189819683Y-43791646D01*
X189616479Y-43712994D01*
X189486190Y-43650989D01*
X189419712Y-43600718D01*
X189406244Y-43568516D01*
X189428966Y-43489117D01*
X189489474Y-43365809D01*
X189576278Y-43215960D01*
X189677890Y-43056942D01*
X189782820Y-42906124D01*
X189879579Y-42780874D01*
X189956679Y-42698563D01*
X189997062Y-42675292D01*
X190042384Y-42700864D01*
G37*
G36*
X92058697Y-29514760D02*
G01*
X92135242Y-29403292D01*
X92258095Y-29273685D01*
X92306405Y-29227146D01*
X92411666Y-29117767D01*
X92486109Y-29023031D01*
X92513089Y-28965383D01*
X92540189Y-28894571D01*
X92607502Y-28799444D01*
X92629700Y-28774216D01*
X92743100Y-28646459D01*
X92894669Y-28468580D01*
X93070436Y-28257342D01*
X93256431Y-28029512D01*
X93413280Y-27833890D01*
X93541927Y-27677782D01*
X93676260Y-27524074D01*
X93789049Y-27403838D01*
X93797638Y-27395302D01*
X93901680Y-27300403D01*
X93979732Y-27256986D01*
X94061086Y-27252219D01*
X94107676Y-27259470D01*
X94217146Y-27293202D01*
X94293070Y-27355215D01*
X94341040Y-27458836D01*
X94366652Y-27617391D01*
X94375502Y-27844207D01*
X94375752Y-27897997D01*
X94377843Y-28344206D01*
X94383166Y-28733702D01*
X94391524Y-29061517D01*
X94402725Y-29322684D01*
X94416572Y-29512237D01*
X94432870Y-29625208D01*
X94444703Y-29655237D01*
X94506498Y-29682102D01*
X94627681Y-29711234D01*
X94783227Y-29736737D01*
X94799694Y-29738859D01*
X94978327Y-29764224D01*
X95090782Y-29792832D01*
X95155348Y-29835509D01*
X95190316Y-29903079D01*
X95209025Y-29981102D01*
X95218811Y-30072323D01*
X95184014Y-30115761D01*
X95099455Y-30138603D01*
X94996058Y-30151571D01*
X94931671Y-30145779D01*
X94930205Y-30144963D01*
X94889499Y-30159446D01*
X94870301Y-30192726D01*
X94821860Y-30240338D01*
X94723749Y-30237207D01*
X94554084Y-30231163D01*
X94440285Y-30285504D01*
X94388827Y-30391676D01*
X94406183Y-30541124D01*
X94436519Y-30616778D01*
X94505612Y-30761669D01*
X94779940Y-30750117D01*
X94963321Y-30751708D01*
X95081598Y-30782735D01*
X95152526Y-30854552D01*
X95193858Y-30978510D01*
X95201807Y-31019884D01*
X95214319Y-31122344D01*
X95190478Y-31171227D01*
X95111673Y-31195886D01*
X95087253Y-31200574D01*
X94975376Y-31212995D01*
X94811911Y-31221070D01*
X94630030Y-31223238D01*
X94609207Y-31223036D01*
X94439736Y-31224675D01*
X94296823Y-31232757D01*
X94207027Y-31245634D01*
X94198108Y-31248509D01*
X94104958Y-31249036D01*
X94060797Y-31226179D01*
X94005203Y-31198095D01*
X93971992Y-31242637D01*
X93943466Y-31294863D01*
X93898959Y-31302410D01*
X93814152Y-31265489D01*
X93774608Y-31244360D01*
X93692830Y-31186241D01*
X93658010Y-31134196D01*
X93657997Y-31133476D01*
X93632910Y-31120608D01*
X93580451Y-31156032D01*
X93467571Y-31211971D01*
X93329865Y-31221937D01*
X93207485Y-31185581D01*
X93173380Y-31159575D01*
X93122453Y-31104676D01*
X93112714Y-31059657D01*
X93140706Y-30986025D01*
X93154994Y-30954690D01*
X93242439Y-30855501D01*
X93387505Y-30786349D01*
X93564961Y-30759153D01*
X93568916Y-30759117D01*
X93670570Y-30747338D01*
X93725856Y-30727314D01*
X93804086Y-30634212D01*
X93856768Y-30494487D01*
X93870017Y-30383969D01*
X93865120Y-30311942D01*
X93836925Y-30270520D01*
X93765177Y-30246576D01*
X93629619Y-30226985D01*
X93627296Y-30226695D01*
X93494550Y-30217224D01*
X93300781Y-30212508D01*
X93069651Y-30212726D01*
X92824821Y-30218057D01*
X92765484Y-30220162D01*
X92542961Y-30226752D01*
X92349763Y-30228782D01*
X92202143Y-30226363D01*
X92116353Y-30219605D01*
X92102867Y-30215634D01*
X92016714Y-30111740D01*
X91976841Y-29952751D01*
X91983136Y-29790225D01*
X92003727Y-29683479D01*
X92637576Y-29683479D01*
X92692431Y-29721226D01*
X92813637Y-29735829D01*
X92971882Y-29736053D01*
X93118897Y-29740044D01*
X93233174Y-29755481D01*
X93284314Y-29775466D01*
X93358379Y-29799632D01*
X93481112Y-29794880D01*
X93622899Y-29764918D01*
X93745849Y-29717705D01*
X93846714Y-29620613D01*
X93916019Y-29449693D01*
X93951912Y-29210553D01*
X93956687Y-29079888D01*
X93963017Y-28904033D01*
X93977676Y-28692981D01*
X93995231Y-28513385D01*
X94011681Y-28327898D01*
X94008553Y-28200763D01*
X93984488Y-28107504D01*
X93971078Y-28078744D01*
X93918765Y-27996532D01*
X93876805Y-27961131D01*
X93876025Y-27961102D01*
X93830254Y-27992680D01*
X93754847Y-28073010D01*
X93667515Y-28180486D01*
X93585973Y-28293500D01*
X93534458Y-28377751D01*
X93474312Y-28464366D01*
X93378682Y-28576679D01*
X93317314Y-28641016D01*
X93202525Y-28772150D01*
X93100413Y-28915659D01*
X93066126Y-28975299D01*
X92987021Y-29106442D01*
X92898441Y-29220686D01*
X92877634Y-29242083D01*
X92791535Y-29343736D01*
X92705448Y-29474416D01*
X92687545Y-29506812D01*
X92639228Y-29614652D01*
X92637576Y-29683479D01*
X92003727Y-29683479D01*
X92013112Y-29634826D01*
X92058697Y-29514760D01*
G37*
G36*
X125815597Y-54932400D02*
G01*
X125849514Y-54947296D01*
X125999699Y-55061168D01*
X126102172Y-55223986D01*
X126152352Y-55413141D01*
X126145657Y-55606025D01*
X126077506Y-55780029D01*
X126030584Y-55840828D01*
X125921703Y-55958313D01*
X126031419Y-56072833D01*
X126151839Y-56253361D01*
X126200053Y-56453740D01*
X126179915Y-56656311D01*
X126095282Y-56843416D01*
X125950008Y-56997397D01*
X125812197Y-57076917D01*
X125677637Y-57121397D01*
X125552145Y-57125090D01*
X125393947Y-57089471D01*
X125237155Y-57009898D01*
X125120279Y-56868149D01*
X125055993Y-56724426D01*
X125006834Y-56569469D01*
X124998972Y-56476233D01*
X125037653Y-56429674D01*
X125128121Y-56414749D01*
X125164174Y-56414190D01*
X125272933Y-56419214D01*
X125321281Y-56446436D01*
X125333522Y-56514086D01*
X125333790Y-56541402D01*
X125366241Y-56684558D01*
X125449636Y-56783139D01*
X125563039Y-56828783D01*
X125685514Y-56813126D01*
X125796126Y-56727805D01*
X125797156Y-56726502D01*
X125863751Y-56589948D01*
X125875611Y-56439546D01*
X125839645Y-56297044D01*
X125762760Y-56184187D01*
X125651866Y-56122724D01*
X125603652Y-56117362D01*
X125531914Y-56106972D01*
X125507977Y-56058776D01*
X125511320Y-55979896D01*
X125540791Y-55871455D01*
X125607793Y-55827407D01*
X125609416Y-55827105D01*
X125745926Y-55765775D01*
X125824216Y-55644335D01*
X125842638Y-55514346D01*
X125824103Y-55336713D01*
X125765708Y-55229481D01*
X125663268Y-55186108D01*
X125631530Y-55184474D01*
X125505605Y-55222577D01*
X125413947Y-55322188D01*
X125376305Y-55461255D01*
X125376194Y-55469535D01*
X125365449Y-55531590D01*
X125317730Y-55559457D01*
X125209815Y-55566102D01*
X125203209Y-55566110D01*
X125093922Y-55562891D01*
X125049361Y-55540356D01*
X125049441Y-55479194D01*
X125059902Y-55428297D01*
X125140900Y-55203035D01*
X125268244Y-55033946D01*
X125430659Y-54927897D01*
X125616869Y-54891759D01*
X125815597Y-54932400D01*
G37*
G36*
X197662755Y-31004785D02*
G01*
X197677491Y-30877037D01*
X197702248Y-30775530D01*
X197739408Y-30680758D01*
X197745266Y-30667934D01*
X197862116Y-30480734D01*
X198013638Y-30364651D01*
X198215498Y-30308149D01*
X198237490Y-30305502D01*
X198435823Y-30324049D01*
X198613726Y-30419420D01*
X198758995Y-30584028D01*
X198798731Y-30654316D01*
X198833618Y-30735071D01*
X198857596Y-30825518D01*
X198872598Y-30943026D01*
X198880554Y-31104959D01*
X198883395Y-31328686D01*
X198883539Y-31417028D01*
X198882307Y-31659237D01*
X198877148Y-31834311D01*
X198865873Y-31959903D01*
X198846290Y-32053670D01*
X198816209Y-32133265D01*
X198787585Y-32190281D01*
X198709495Y-32312244D01*
X198625861Y-32407867D01*
X198596767Y-32430967D01*
X198462086Y-32487462D01*
X198296179Y-32518590D01*
X198146380Y-32516364D01*
X198122035Y-32511083D01*
X197952956Y-32429695D01*
X197816432Y-32280626D01*
X197751315Y-32166187D01*
X197710325Y-32074145D01*
X197682623Y-31981890D01*
X197665684Y-31870016D01*
X197656980Y-31719117D01*
X197653989Y-31509787D01*
X197653823Y-31417028D01*
X197653926Y-31403667D01*
X197971919Y-31403667D01*
X197975630Y-31612336D01*
X197985745Y-31800306D01*
X198000655Y-31945202D01*
X198016167Y-32018525D01*
X198100419Y-32163021D01*
X198212061Y-32233153D01*
X198340327Y-32225096D01*
X198437515Y-32168259D01*
X198502851Y-32071045D01*
X198553200Y-31908322D01*
X198586224Y-31698440D01*
X198599585Y-31459751D01*
X198590945Y-31210604D01*
X198576358Y-31078533D01*
X198533872Y-30854892D01*
X198476343Y-30706279D01*
X198397417Y-30623362D01*
X198290737Y-30596807D01*
X198249646Y-30598694D01*
X198146181Y-30629066D01*
X198069928Y-30703141D01*
X198017746Y-30830023D01*
X197986493Y-31018818D01*
X197973028Y-31278631D01*
X197971919Y-31403667D01*
X197653926Y-31403667D01*
X197655659Y-31178280D01*
X197662755Y-31004785D01*
G37*
G36*
X114824915Y-27247428D02*
G01*
X114873642Y-27262885D01*
X114892120Y-27296262D01*
X114894467Y-27310265D01*
X114912223Y-27497096D01*
X114926564Y-27746962D01*
X114937103Y-28038146D01*
X114943456Y-28348929D01*
X114945237Y-28657593D01*
X114942060Y-28942419D01*
X114933542Y-29181690D01*
X114928952Y-29254424D01*
X114903575Y-29668662D01*
X114892547Y-30022766D01*
X114895724Y-30311653D01*
X114912958Y-30530239D01*
X114944105Y-30673439D01*
X114971045Y-30722926D01*
X115055104Y-30773247D01*
X115173572Y-30799735D01*
X115292539Y-30799827D01*
X115378096Y-30770959D01*
X115393098Y-30754834D01*
X115446866Y-30735742D01*
X115558984Y-30729749D01*
X115704307Y-30735087D01*
X115857690Y-30749991D01*
X115993988Y-30772692D01*
X116088055Y-30801423D01*
X116093198Y-30804033D01*
X116158635Y-30868374D01*
X116214453Y-30965811D01*
X116235989Y-31098169D01*
X116203559Y-31224011D01*
X116129486Y-31317652D01*
X116028490Y-31353422D01*
X115917454Y-31364506D01*
X115857433Y-31380132D01*
X115793710Y-31374460D01*
X115763768Y-31314831D01*
X115738224Y-31251450D01*
X115696527Y-31263181D01*
X115669113Y-31286706D01*
X115630491Y-31311734D01*
X115571885Y-31326589D01*
X115478930Y-31331653D01*
X115337263Y-31327307D01*
X115132520Y-31313936D01*
X115006639Y-31304347D01*
X114742887Y-31283876D01*
X114544538Y-31269607D01*
X114392434Y-31261272D01*
X114267417Y-31258606D01*
X114150329Y-31261339D01*
X114022013Y-31269204D01*
X113863310Y-31281935D01*
X113797293Y-31287470D01*
X113595550Y-31301657D01*
X113456017Y-31302987D01*
X113356866Y-31290008D01*
X113276270Y-31261270D01*
X113256642Y-31251546D01*
X113148936Y-31164411D01*
X113123088Y-31060027D01*
X113179106Y-30943338D01*
X113256124Y-30865993D01*
X113331794Y-30807264D01*
X113400123Y-30776499D01*
X113488220Y-30768733D01*
X113623195Y-30779004D01*
X113690765Y-30786418D01*
X113962143Y-30809910D01*
X114157192Y-30810170D01*
X114281209Y-30786980D01*
X114325225Y-30760259D01*
X114340035Y-30705209D01*
X114354678Y-30578054D01*
X114368772Y-30391494D01*
X114381933Y-30158234D01*
X114393777Y-29890974D01*
X114403923Y-29602416D01*
X114411986Y-29305264D01*
X114417585Y-29012218D01*
X114420335Y-28735982D01*
X114419854Y-28489257D01*
X114415759Y-28284745D01*
X114407666Y-28135148D01*
X114405163Y-28109516D01*
X114372354Y-27812688D01*
X113842304Y-27812119D01*
X113635351Y-27809318D01*
X113457263Y-27802092D01*
X113326308Y-27791516D01*
X113260751Y-27778664D01*
X113259249Y-27777814D01*
X113224408Y-27716507D01*
X113206775Y-27608898D01*
X113206244Y-27586260D01*
X113216909Y-27474710D01*
X113264305Y-27410325D01*
X113344057Y-27368278D01*
X113451140Y-27339103D01*
X113614217Y-27314873D01*
X113804478Y-27299529D01*
X113863506Y-27297220D01*
X114087884Y-27288548D01*
X114329004Y-27275679D01*
X114539525Y-27261186D01*
X114564687Y-27259104D01*
X114727932Y-27247099D01*
X114824915Y-27247428D01*
G37*
G36*
X107918556Y-47990748D02*
G01*
X108048515Y-47420867D01*
X108242635Y-46868123D01*
X108499619Y-46338639D01*
X108818171Y-45838536D01*
X109196993Y-45373937D01*
X109634788Y-44950965D01*
X110130259Y-44575740D01*
X110682107Y-44254386D01*
X111118843Y-44057718D01*
X111703605Y-43869116D01*
X112313506Y-43756148D01*
X112936978Y-43717993D01*
X113562454Y-43753831D01*
X114178366Y-43862844D01*
X114773148Y-44044211D01*
X115335231Y-44297112D01*
X115458591Y-44365267D01*
X115535587Y-44414662D01*
X115676101Y-44510508D01*
X115875155Y-44649250D01*
X116127774Y-44827330D01*
X116428981Y-45041189D01*
X116773801Y-45287270D01*
X117157257Y-45562015D01*
X117574372Y-45861867D01*
X118020172Y-46183267D01*
X118489678Y-46522659D01*
X118977916Y-46876484D01*
X119406246Y-47187611D01*
X120017287Y-47631605D01*
X120564337Y-48028290D01*
X121051722Y-48380607D01*
X121483769Y-48691502D01*
X121864801Y-48963916D01*
X122199146Y-49200792D01*
X122491127Y-49405075D01*
X122745072Y-49579707D01*
X122965304Y-49727631D01*
X123156151Y-49851790D01*
X123321937Y-49955128D01*
X123466988Y-50040587D01*
X123595630Y-50111111D01*
X123712187Y-50169643D01*
X123820986Y-50219126D01*
X123924121Y-50261626D01*
X124504877Y-50445598D01*
X125107313Y-50552153D01*
X125720825Y-50582300D01*
X126334809Y-50537044D01*
X126938661Y-50417392D01*
X127521775Y-50224351D01*
X128073546Y-49958927D01*
X128255031Y-49850544D01*
X128350607Y-49782829D01*
X128505209Y-49663632D01*
X128713904Y-49497163D01*
X128971760Y-49287629D01*
X129273844Y-49039242D01*
X129615221Y-48756209D01*
X129990960Y-48442741D01*
X130396125Y-48103045D01*
X130825785Y-47741332D01*
X131275007Y-47361811D01*
X131738856Y-46968691D01*
X132212399Y-46566180D01*
X132690704Y-46158489D01*
X133168838Y-45749826D01*
X133292808Y-45643573D01*
X138039828Y-45643573D01*
X138074874Y-46134442D01*
X138182084Y-46585405D01*
X138364565Y-47005783D01*
X138625421Y-47404900D01*
X138627761Y-47407939D01*
X138952576Y-47762017D01*
X139328087Y-48053621D01*
X139743996Y-48279204D01*
X140190008Y-48435218D01*
X140655826Y-48518118D01*
X141131153Y-48524355D01*
X141605692Y-48450382D01*
X141633488Y-48443424D01*
X142090686Y-48283938D01*
X142509896Y-48052648D01*
X142883850Y-47756802D01*
X143205276Y-47403646D01*
X143466905Y-47000426D01*
X143661467Y-46554389D01*
X143719197Y-46364441D01*
X143768285Y-46096941D01*
X143791352Y-45765914D01*
X143792946Y-45643573D01*
X143758491Y-45153496D01*
X143653066Y-44705215D01*
X143473582Y-44289688D01*
X143216951Y-43897869D01*
X143181031Y-43852274D01*
X142847018Y-43498804D01*
X142472999Y-43214098D01*
X142067685Y-42998104D01*
X141639789Y-42850770D01*
X141198023Y-42772045D01*
X140751098Y-42761877D01*
X140307727Y-42820215D01*
X139876621Y-42947008D01*
X139466493Y-43142203D01*
X139086054Y-43405749D01*
X138744017Y-43737594D01*
X138627761Y-43879206D01*
X138366284Y-44278194D01*
X138183207Y-44698371D01*
X138075424Y-45149061D01*
X138039830Y-45639584D01*
X138039828Y-45643573D01*
X133292808Y-45643573D01*
X133641866Y-45344401D01*
X134104856Y-44946422D01*
X134552875Y-44560099D01*
X134980988Y-44189642D01*
X135384264Y-43839259D01*
X135757769Y-43513160D01*
X136096569Y-43215553D01*
X136395732Y-42950648D01*
X136650324Y-42722654D01*
X136855412Y-42535781D01*
X137006062Y-42394237D01*
X137079700Y-42321045D01*
X137426240Y-41975930D01*
X137747784Y-41691419D01*
X138061163Y-41454342D01*
X138383208Y-41251527D01*
X138588663Y-41140258D01*
X139120202Y-40900064D01*
X139647780Y-40730687D01*
X140192248Y-40627226D01*
X140774459Y-40584782D01*
X140959666Y-40583215D01*
X141550843Y-40614389D01*
X142098732Y-40705271D01*
X142624940Y-40860968D01*
X143151070Y-41086585D01*
X143206518Y-41114201D01*
X143768848Y-41443743D01*
X144280013Y-41836748D01*
X144735340Y-42286767D01*
X145130158Y-42787350D01*
X145459792Y-43332046D01*
X145719570Y-43914407D01*
X145904819Y-44527982D01*
X145984133Y-44947922D01*
X145996717Y-45078075D01*
X146006683Y-45278197D01*
X146014064Y-45550682D01*
X146018889Y-45897922D01*
X146021191Y-46322311D01*
X146020999Y-46826241D01*
X146018346Y-47412105D01*
X146017581Y-47530551D01*
X146002468Y-49777963D01*
X145888999Y-50195100D01*
X145766357Y-50570055D01*
X145599483Y-50971709D01*
X145403953Y-51366637D01*
X145195345Y-51721411D01*
X145137199Y-51808298D01*
X144760171Y-52281998D01*
X144317468Y-52713017D01*
X143821295Y-53092253D01*
X143283855Y-53410605D01*
X142717349Y-53658971D01*
X142601714Y-53699418D01*
X142535432Y-53722293D01*
X142475606Y-53743763D01*
X142419513Y-53763873D01*
X142364432Y-53782665D01*
X142307641Y-53800183D01*
X142246417Y-53816470D01*
X142178038Y-53831570D01*
X142099783Y-53845527D01*
X142008929Y-53858383D01*
X141902755Y-53870183D01*
X141778538Y-53880969D01*
X141633557Y-53890786D01*
X141465089Y-53899677D01*
X141270412Y-53907684D01*
X141046805Y-53914852D01*
X140791546Y-53921225D01*
X140501911Y-53926845D01*
X140175181Y-53931756D01*
X139808631Y-53936002D01*
X139399541Y-53939625D01*
X138945188Y-53942671D01*
X138442851Y-53945181D01*
X137889807Y-53947199D01*
X137283334Y-53948770D01*
X136620711Y-53949936D01*
X135899215Y-53950741D01*
X135116124Y-53951228D01*
X134268717Y-53951441D01*
X133354271Y-53951423D01*
X132370064Y-53951218D01*
X131313374Y-53950870D01*
X130181480Y-53950421D01*
X128971659Y-53949915D01*
X127681190Y-53949396D01*
X126966344Y-53949131D01*
X125862941Y-53948639D01*
X124780063Y-53947960D01*
X123720864Y-53947103D01*
X122688498Y-53946076D01*
X121686119Y-53944887D01*
X120716881Y-53943545D01*
X119783940Y-53942059D01*
X118890447Y-53940436D01*
X118039558Y-53938686D01*
X117234427Y-53936817D01*
X116478208Y-53934836D01*
X115774055Y-53932754D01*
X115125121Y-53930577D01*
X114534562Y-53928315D01*
X114005531Y-53925976D01*
X113541182Y-53923569D01*
X113144669Y-53921101D01*
X112819147Y-53918582D01*
X112567769Y-53916019D01*
X112393690Y-53913422D01*
X112300063Y-53910799D01*
X112286218Y-53909794D01*
X111933684Y-53845808D01*
X111547964Y-53745440D01*
X111166199Y-53619700D01*
X110825532Y-53479601D01*
X110809215Y-53471929D01*
X110316926Y-53208122D01*
X109871577Y-52901274D01*
X109447383Y-52533083D01*
X109344382Y-52432075D01*
X108914346Y-51945495D01*
X108558849Y-51427074D01*
X108276594Y-50882936D01*
X108066285Y-50319201D01*
X107926624Y-49741993D01*
X107856314Y-49157433D01*
X107854784Y-48760267D01*
X110012002Y-48760267D01*
X110026157Y-49116439D01*
X110076416Y-49428887D01*
X110170916Y-49733359D01*
X110301619Y-50032387D01*
X110555540Y-50465681D01*
X110868369Y-50839989D01*
X111235487Y-51151449D01*
X111652269Y-51396197D01*
X112114093Y-51570370D01*
X112155283Y-51581798D01*
X112468841Y-51638890D01*
X112826540Y-51659230D01*
X113196617Y-51643893D01*
X113547311Y-51593955D01*
X113803987Y-51525948D01*
X114251099Y-51334510D01*
X114643518Y-51083322D01*
X114943805Y-50816523D01*
X115257437Y-50443470D01*
X115499249Y-50032944D01*
X115652569Y-49650751D01*
X115702048Y-49489342D01*
X115734617Y-49345651D01*
X115753640Y-49193566D01*
X115762477Y-49006976D01*
X115764503Y-48781469D01*
X115762059Y-48539442D01*
X115752488Y-48355983D01*
X115732435Y-48204937D01*
X115698545Y-48060147D01*
X115652987Y-47912187D01*
X115460357Y-47452580D01*
X115202190Y-47041045D01*
X114883439Y-46684673D01*
X114669182Y-46503325D01*
X114246920Y-46232940D01*
X113799139Y-46041464D01*
X113333118Y-45929599D01*
X112856135Y-45898044D01*
X112375470Y-45947500D01*
X111898401Y-46078668D01*
X111594892Y-46207489D01*
X111239593Y-46420678D01*
X110906103Y-46697608D01*
X110613604Y-47019194D01*
X110381278Y-47366353D01*
X110328938Y-47466945D01*
X110170369Y-47835606D01*
X110069944Y-48180026D01*
X110020378Y-48529923D01*
X110012002Y-48760267D01*
X107854784Y-48760267D01*
X107854057Y-48571644D01*
X107918556Y-47990748D01*
G37*
G36*
X196742137Y-55269282D02*
G01*
X195936461Y-55269282D01*
X195936461Y-55905342D01*
X196699733Y-55905342D01*
X196699733Y-56159766D01*
X195936461Y-56159766D01*
X195936461Y-56923038D01*
X196826945Y-56923038D01*
X196826945Y-57219866D01*
X196231958Y-57219866D01*
X195976724Y-57217650D01*
X195796888Y-57210457D01*
X195683141Y-57197475D01*
X195626175Y-57177892D01*
X195616338Y-57166097D01*
X195611105Y-57110357D01*
X195607264Y-56981957D01*
X195604917Y-56793034D01*
X195604164Y-56555725D01*
X195605107Y-56282168D01*
X195607068Y-56052991D01*
X195618431Y-54993656D01*
X196742137Y-54969992D01*
X196742137Y-55269282D01*
G37*
G36*
X112070454Y-29898776D02*
G01*
X112245191Y-29931138D01*
X112409007Y-29974056D01*
X112536752Y-30022006D01*
X112601163Y-30066300D01*
X112649610Y-30153329D01*
X112627943Y-30197191D01*
X112540501Y-30208514D01*
X112465372Y-30216622D01*
X112464418Y-30245747D01*
X112475390Y-30257894D01*
X112555683Y-30300795D01*
X112621684Y-30314232D01*
X112679686Y-30328293D01*
X112711221Y-30374216D01*
X112726849Y-30473716D01*
X112731390Y-30539769D01*
X112734849Y-30671581D01*
X112717500Y-30749193D01*
X112667420Y-30802747D01*
X112613482Y-30837831D01*
X112530191Y-30892599D01*
X112512434Y-30927860D01*
X112552335Y-30966577D01*
X112565975Y-30976354D01*
X112610192Y-31013894D01*
X112613802Y-31051764D01*
X112569331Y-31109890D01*
X112484485Y-31193627D01*
X112389762Y-31274075D01*
X112319390Y-31314465D01*
X112295144Y-31311967D01*
X112242360Y-31294382D01*
X112128796Y-31289861D01*
X112001803Y-31297163D01*
X111852730Y-31308392D01*
X111756716Y-31301536D01*
X111682531Y-31267893D01*
X111598945Y-31198758D01*
X111577173Y-31178823D01*
X111468070Y-31053746D01*
X111411968Y-30935670D01*
X111408881Y-30917131D01*
X111382904Y-30811783D01*
X111347298Y-30749635D01*
X111311441Y-30673798D01*
X111298064Y-30574079D01*
X111331522Y-30359570D01*
X111422668Y-30163882D01*
X111557659Y-30006374D01*
X111722652Y-29906405D01*
X111788806Y-29887823D01*
X111909943Y-29882496D01*
X112070454Y-29898776D01*
G37*
G36*
X75876899Y-27533662D02*
G01*
X76001534Y-27547942D01*
X76083623Y-27574635D01*
X76102738Y-27600668D01*
X76137124Y-27655491D01*
X76172270Y-27664274D01*
X76265471Y-27703100D01*
X76328151Y-27813034D01*
X76355160Y-27984259D01*
X76355814Y-28014107D01*
X76357162Y-28215526D01*
X76187546Y-28215526D01*
X76081332Y-28206121D01*
X76022255Y-28182627D01*
X76017930Y-28173122D01*
X75985266Y-28132433D01*
X75972497Y-28130718D01*
X75900563Y-28162838D01*
X75832245Y-28233336D01*
X75805910Y-28297305D01*
X75775424Y-28340900D01*
X75763506Y-28342738D01*
X75731630Y-28379026D01*
X75721102Y-28448748D01*
X75735617Y-28528438D01*
X75763506Y-28554758D01*
X75790060Y-28592377D01*
X75804829Y-28686353D01*
X75805910Y-28724374D01*
X75805910Y-28893990D01*
X75509082Y-28893990D01*
X75347810Y-28890249D01*
X75255510Y-28876799D01*
X75216582Y-28850297D01*
X75212254Y-28830384D01*
X75189357Y-28773954D01*
X75169850Y-28766778D01*
X75151019Y-28726116D01*
X75137150Y-28610905D01*
X75129122Y-28431305D01*
X75127446Y-28276103D01*
X75131210Y-28033172D01*
X75145181Y-27862797D01*
X75173377Y-27752956D01*
X75219817Y-27691624D01*
X75288518Y-27666775D01*
X75331900Y-27664274D01*
X75412220Y-27635762D01*
X75439608Y-27600668D01*
X75491073Y-27565297D01*
X75597333Y-27542340D01*
X75734054Y-27531794D01*
X75876899Y-27533662D01*
G37*
G36*
X101926778Y-57389482D02*
G01*
X101163506Y-57389482D01*
X101163506Y-57135058D01*
X101672354Y-57135058D01*
X101672354Y-55057262D01*
X101163506Y-55057262D01*
X101163506Y-54802838D01*
X101926778Y-54802838D01*
X101926778Y-57389482D01*
G37*
G36*
X100662800Y-27479698D02*
G01*
X100823465Y-27551656D01*
X100946636Y-27652562D01*
X100994559Y-27729639D01*
X101009381Y-27875168D01*
X100964285Y-28037147D01*
X100869887Y-28184941D01*
X100819780Y-28234002D01*
X100720916Y-28305596D01*
X100628953Y-28333345D01*
X100512109Y-28321725D01*
X100400234Y-28293054D01*
X100267696Y-28237095D01*
X100154468Y-28160612D01*
X100152787Y-28159065D01*
X100088396Y-28082138D01*
X100070455Y-27994308D01*
X100080549Y-27898917D01*
X100126224Y-27749675D01*
X100202609Y-27606511D01*
X100213543Y-27591488D01*
X100300690Y-27497450D01*
X100394594Y-27458411D01*
X100492796Y-27452254D01*
X100662800Y-27479698D01*
G37*
G36*
X199413590Y-31180777D02*
G01*
X199414431Y-31500569D01*
X199418751Y-31745519D01*
X199429247Y-31925588D01*
X199448615Y-32050740D01*
X199479550Y-32130936D01*
X199524750Y-32176139D01*
X199586910Y-32196310D01*
X199668727Y-32201413D01*
X199689840Y-32201502D01*
X199775196Y-32196477D01*
X199840869Y-32174897D01*
X199889417Y-32127010D01*
X199923400Y-32043060D01*
X199945374Y-31913295D01*
X199957900Y-31727959D01*
X199963537Y-31477300D01*
X199964842Y-31153169D01*
X199964842Y-30293322D01*
X200310003Y-30293322D01*
X200296438Y-31215609D01*
X200291211Y-31524184D01*
X200285076Y-31760011D01*
X200276950Y-31935150D01*
X200265752Y-32061661D01*
X200250399Y-32151604D01*
X200229810Y-32217039D01*
X200202903Y-32270027D01*
X200201656Y-32272096D01*
X200119093Y-32376025D01*
X200027401Y-32448443D01*
X200020060Y-32452033D01*
X199865186Y-32498083D01*
X199679640Y-32520725D01*
X199514685Y-32514068D01*
X199501507Y-32511608D01*
X199319984Y-32436274D01*
X199188668Y-32293604D01*
X199141559Y-32198123D01*
X199117453Y-32120894D01*
X199099569Y-32018413D01*
X199087114Y-31878431D01*
X199079294Y-31688698D01*
X199075314Y-31436967D01*
X199074357Y-31161746D01*
X199074357Y-30293322D01*
X199413590Y-30293322D01*
X199413590Y-31180777D01*
G37*
G36*
X129651537Y-27483429D02*
G01*
X129811290Y-27565241D01*
X129931522Y-27680117D01*
X129972201Y-27755726D01*
X129980652Y-27890170D01*
X129932029Y-28038101D01*
X129842172Y-28176999D01*
X129726924Y-28284340D01*
X129602126Y-28337605D01*
X129561594Y-28339479D01*
X129490567Y-28325800D01*
X129377706Y-28295889D01*
X129345474Y-28286380D01*
X129176198Y-28200145D01*
X129074370Y-28072426D01*
X129042882Y-27916738D01*
X129084628Y-27746599D01*
X129195046Y-27583571D01*
X129301149Y-27491054D01*
X129415689Y-27455255D01*
X129480721Y-27452254D01*
X129651537Y-27483429D01*
G37*
G36*
X131508086Y-29792560D02*
G01*
X131523320Y-29628576D01*
X131551816Y-29509836D01*
X131577780Y-29449328D01*
X131627052Y-29333622D01*
X131651426Y-29237418D01*
X131651987Y-29226707D01*
X131667867Y-29161374D01*
X131687225Y-29148414D01*
X131730495Y-29115057D01*
X131780216Y-29040503D01*
X131863541Y-28937022D01*
X131998521Y-28820671D01*
X132158256Y-28710539D01*
X132315846Y-28625718D01*
X132413861Y-28590802D01*
X132778000Y-28520326D01*
X133076707Y-28498385D01*
X133313911Y-28524710D01*
X133328461Y-28528392D01*
X133560330Y-28601794D01*
X133717170Y-28678989D01*
X133795363Y-28757805D01*
X133801465Y-28812394D01*
X133804266Y-28876070D01*
X133871255Y-28893979D01*
X133874234Y-28893990D01*
X133987771Y-28932824D01*
X134102314Y-29036697D01*
X134207081Y-29186661D01*
X134291286Y-29363770D01*
X134344147Y-29549078D01*
X134354879Y-29723638D01*
X134353630Y-29736260D01*
X134350287Y-29869405D01*
X134367519Y-29976210D01*
X134378439Y-30000905D01*
X134402536Y-30092409D01*
X134375219Y-30183668D01*
X134346072Y-30284271D01*
X134348670Y-30352137D01*
X134344234Y-30420926D01*
X134326330Y-30439950D01*
X134294326Y-30498344D01*
X134281035Y-30599251D01*
X134250639Y-30729816D01*
X134173958Y-30868004D01*
X134072756Y-30981833D01*
X133984236Y-31035383D01*
X133915531Y-31079424D01*
X133899399Y-31115869D01*
X133867310Y-31167900D01*
X133784329Y-31246941D01*
X133699056Y-31313306D01*
X133538760Y-31410963D01*
X133391488Y-31455753D01*
X133306819Y-31463024D01*
X133169080Y-31471849D01*
X133055613Y-31486899D01*
X133030117Y-31492698D01*
X132946950Y-31491325D01*
X132816224Y-31463740D01*
X132690885Y-31424375D01*
X132519222Y-31351375D01*
X132349732Y-31262166D01*
X132260488Y-31205008D01*
X132127717Y-31113612D01*
X131998678Y-31031890D01*
X131955875Y-31007177D01*
X131865453Y-30934894D01*
X131757264Y-30816461D01*
X131665403Y-30692824D01*
X131592097Y-30579530D01*
X131545140Y-30489808D01*
X131518665Y-30399311D01*
X131506803Y-30283689D01*
X131503686Y-30118597D01*
X131503609Y-30052007D01*
X132037298Y-30052007D01*
X132071911Y-30240776D01*
X132151240Y-30393338D01*
X132199235Y-30451722D01*
X132278588Y-30542832D01*
X132329699Y-30609388D01*
X132336861Y-30621918D01*
X132377573Y-30664293D01*
X132466453Y-30735120D01*
X132542471Y-30789842D01*
X132673728Y-30869786D01*
X132796017Y-30910540D01*
X132951552Y-30924882D01*
X132991270Y-30925719D01*
X133249251Y-30929382D01*
X133535514Y-30655521D01*
X133657034Y-30532168D01*
X133746678Y-30427357D01*
X133792216Y-30356151D01*
X133794146Y-30336951D01*
X133792486Y-30271685D01*
X133825823Y-30173549D01*
X133829707Y-30165570D01*
X133861797Y-30081145D01*
X133857857Y-30039750D01*
X133853745Y-30038898D01*
X133823229Y-30002942D01*
X133814726Y-29943489D01*
X133803001Y-29856201D01*
X133772074Y-29717514D01*
X133728531Y-29556821D01*
X133726638Y-29550411D01*
X133677543Y-29394552D01*
X133634098Y-29298402D01*
X133580331Y-29239665D01*
X133500270Y-29196046D01*
X133460757Y-29179262D01*
X133295426Y-29133320D01*
X133071393Y-29103638D01*
X132920382Y-29095295D01*
X132735942Y-29092653D01*
X132611068Y-29100585D01*
X132520736Y-29123573D01*
X132439925Y-29166099D01*
X132408432Y-29186994D01*
X132211129Y-29366467D01*
X132088960Y-29584577D01*
X132042398Y-29806444D01*
X132037298Y-30052007D01*
X131503609Y-30052007D01*
X131503573Y-30021373D01*
X131508086Y-29792560D01*
G37*
G36*
X191176340Y-46086254D02*
G01*
X191263094Y-46135361D01*
X191399080Y-46224752D01*
X191458585Y-46264773D01*
X191607344Y-46362604D01*
X191730449Y-46439250D01*
X191810695Y-46484217D01*
X191830627Y-46491653D01*
X191857811Y-46503752D01*
X191858162Y-46546840D01*
X191827875Y-46631100D01*
X191763147Y-46766716D01*
X191660174Y-46963870D01*
X191640452Y-47000767D01*
X191415227Y-47421225D01*
X191161868Y-47263868D01*
X190994615Y-47156735D01*
X190821925Y-47041050D01*
X190710679Y-46962982D01*
X190512849Y-46819453D01*
X190749488Y-46517740D01*
X190864079Y-46371342D01*
X190965680Y-46241011D01*
X191037722Y-46148024D01*
X191053859Y-46126960D01*
X191087484Y-46087420D01*
X191123057Y-46072062D01*
X191176340Y-46086254D01*
G37*
G36*
X107977455Y-29685074D02*
G01*
X107972278Y-29538565D01*
X107978912Y-29428201D01*
X107995463Y-29378600D01*
X108017800Y-29331380D01*
X108013498Y-29320853D01*
X108012388Y-29267829D01*
X108025377Y-29150001D01*
X108050067Y-28985750D01*
X108078064Y-28825536D01*
X108165104Y-28453553D01*
X108274457Y-28154725D01*
X108404554Y-27932853D01*
X108482718Y-27846525D01*
X108553039Y-27770477D01*
X108584127Y-27714399D01*
X108584207Y-27712708D01*
X108617946Y-27666026D01*
X108702832Y-27596976D01*
X108814368Y-27521537D01*
X108928058Y-27455689D01*
X109019407Y-27415410D01*
X109048486Y-27409850D01*
X109134182Y-27386557D01*
X109208004Y-27345820D01*
X109351746Y-27283960D01*
X109544198Y-27253042D01*
X109753954Y-27256190D01*
X109886254Y-27278358D01*
X110087975Y-27340245D01*
X110268311Y-27419436D01*
X110407692Y-27505523D01*
X110486549Y-27588097D01*
X110492425Y-27600768D01*
X110551449Y-27700297D01*
X110593980Y-27745416D01*
X110647790Y-27839526D01*
X110663315Y-27982801D01*
X110641961Y-28149459D01*
X110585133Y-28313716D01*
X110560476Y-28360214D01*
X110498962Y-28459077D01*
X110444407Y-28509164D01*
X110366889Y-28524710D01*
X110236490Y-28519947D01*
X110226040Y-28519308D01*
X110090335Y-28507365D01*
X110011575Y-28482179D01*
X109961937Y-28427888D01*
X109921172Y-28345485D01*
X109871606Y-28174188D01*
X109877881Y-27994742D01*
X109906548Y-27803575D01*
X109743625Y-27777524D01*
X109610401Y-27766548D01*
X109497180Y-27773760D01*
X109485292Y-27776425D01*
X109411390Y-27780292D01*
X109389364Y-27728387D01*
X109389234Y-27722224D01*
X109376981Y-27675485D01*
X109357431Y-27688569D01*
X109293355Y-27741367D01*
X109249383Y-27762476D01*
X109196640Y-27801710D01*
X109196007Y-27828941D01*
X109175430Y-27860443D01*
X109094686Y-27889876D01*
X109071482Y-27894768D01*
X108973679Y-27926504D01*
X108924736Y-27968612D01*
X108923439Y-27975907D01*
X108895020Y-28034754D01*
X108822823Y-28123929D01*
X108774922Y-28173222D01*
X108651254Y-28332422D01*
X108546809Y-28537591D01*
X108477179Y-28752505D01*
X108456995Y-28911837D01*
X108484064Y-29031522D01*
X108552741Y-29085474D01*
X108644235Y-29067493D01*
X108720070Y-28998634D01*
X108833991Y-28909338D01*
X109006255Y-28838333D01*
X109211567Y-28789877D01*
X109424631Y-28768225D01*
X109620150Y-28777635D01*
X109771519Y-28821687D01*
X109876311Y-28869964D01*
X110015957Y-28927789D01*
X110073756Y-28950162D01*
X110206809Y-29011460D01*
X110315215Y-29080330D01*
X110345353Y-29107534D01*
X110422339Y-29170616D01*
X110477758Y-29190818D01*
X110529700Y-29223881D01*
X110534792Y-29247032D01*
X110563578Y-29311735D01*
X110633970Y-29395628D01*
X110644831Y-29406047D01*
X110715429Y-29487184D01*
X110740485Y-29574888D01*
X110734626Y-29691024D01*
X110734425Y-29845118D01*
X110775834Y-29934651D01*
X110804714Y-29975576D01*
X110814829Y-30035252D01*
X110805806Y-30133445D01*
X110777272Y-30289921D01*
X110768282Y-30334410D01*
X110729888Y-30507804D01*
X110689498Y-30627891D01*
X110630721Y-30724940D01*
X110537167Y-30829219D01*
X110458021Y-30907365D01*
X110329340Y-31022751D01*
X110209436Y-31113542D01*
X110121139Y-31162750D01*
X110110751Y-31165795D01*
X110010925Y-31193679D01*
X109870250Y-31239298D01*
X109778347Y-31271501D01*
X109544650Y-31332569D01*
X109311495Y-31352428D01*
X109103432Y-31331162D01*
X108945010Y-31268858D01*
X108944641Y-31268614D01*
X108842939Y-31211742D01*
X108763107Y-31184486D01*
X108756834Y-31184086D01*
X108693425Y-31155843D01*
X108599569Y-31084219D01*
X108544814Y-31033361D01*
X108434854Y-30925279D01*
X108334048Y-30828069D01*
X108302207Y-30798047D01*
X108237505Y-30709281D01*
X108239927Y-30605399D01*
X108241678Y-30598659D01*
X108247816Y-30508895D01*
X108216437Y-30395662D01*
X108141334Y-30237204D01*
X108135327Y-30225831D01*
X108036406Y-30001366D01*
X108011100Y-29887619D01*
X108509980Y-29887619D01*
X108513550Y-29983063D01*
X108535836Y-30090235D01*
X108626354Y-30325677D01*
X108785595Y-30528977D01*
X108982134Y-30685378D01*
X109117665Y-30760438D01*
X109255820Y-30795041D01*
X109398283Y-30801989D01*
X109526969Y-30798180D01*
X109622860Y-30778583D01*
X109714128Y-30731291D01*
X109828947Y-30644398D01*
X109889656Y-30594325D01*
X110067565Y-30428324D01*
X110176868Y-30276210D01*
X110227150Y-30119026D01*
X110227993Y-29937814D01*
X110226860Y-29927341D01*
X110184708Y-29745031D01*
X110094908Y-29591711D01*
X109943676Y-29447665D01*
X109837882Y-29371035D01*
X109698137Y-29286741D01*
X109575360Y-29246194D01*
X109424278Y-29235536D01*
X109395692Y-29235666D01*
X109132429Y-29248635D01*
X108945001Y-29282457D01*
X108826628Y-29338814D01*
X108784072Y-29387323D01*
X108732475Y-29475083D01*
X108657111Y-29599988D01*
X108609647Y-29677533D01*
X108539718Y-29798604D01*
X108509980Y-29887619D01*
X108011100Y-29887619D01*
X107986532Y-29777186D01*
X107977455Y-29685074D01*
G37*
G36*
X121826801Y-28535439D02*
G01*
X121995807Y-28587365D01*
X122123855Y-28670014D01*
X122144243Y-28692031D01*
X122162024Y-28754722D01*
X122176982Y-28886074D01*
X122188778Y-29069978D01*
X122197075Y-29290323D01*
X122201535Y-29530999D01*
X122201820Y-29775896D01*
X122197592Y-30008905D01*
X122188513Y-30213914D01*
X122178722Y-30335726D01*
X122167055Y-30508255D01*
X122182339Y-30624365D01*
X122234940Y-30710807D01*
X122335225Y-30794333D01*
X122364344Y-30814717D01*
X122509903Y-30874575D01*
X122669615Y-30879964D01*
X122805900Y-30830047D01*
X122813248Y-30824721D01*
X122907819Y-30774617D01*
X122968742Y-30761115D01*
X123088048Y-30726379D01*
X123230377Y-30636314D01*
X123372390Y-30506601D01*
X123408858Y-30465384D01*
X123464167Y-30395174D01*
X123499872Y-30329028D01*
X123520380Y-30246300D01*
X123530095Y-30126347D01*
X123533425Y-29948522D01*
X123533842Y-29879691D01*
X123531680Y-29695346D01*
X123524086Y-29544709D01*
X123512356Y-29446542D01*
X123502039Y-29418862D01*
X123479163Y-29366312D01*
X123468182Y-29265586D01*
X123468014Y-29250872D01*
X123454496Y-29141473D01*
X123401476Y-29081915D01*
X123359243Y-29062556D01*
X123235547Y-29030230D01*
X123148201Y-29021202D01*
X123044259Y-28983560D01*
X122962148Y-28889678D01*
X122922855Y-28768116D01*
X122924092Y-28716225D01*
X122976356Y-28626940D01*
X123105127Y-28563915D01*
X123311994Y-28526650D01*
X123562445Y-28514747D01*
X123731378Y-28515972D01*
X123836729Y-28526056D01*
X123899639Y-28550057D01*
X123941248Y-28593038D01*
X123951069Y-28607763D01*
X123979434Y-28698383D01*
X124001477Y-28868268D01*
X124016970Y-29112095D01*
X124025683Y-29424538D01*
X124027389Y-29800274D01*
X124021858Y-30233979D01*
X124021554Y-30249007D01*
X124021792Y-30480615D01*
X124037339Y-30639642D01*
X124073760Y-30737753D01*
X124136620Y-30786613D01*
X124231482Y-30797889D01*
X124281651Y-30794280D01*
X124407433Y-30819051D01*
X124521743Y-30902178D01*
X124597376Y-31018681D01*
X124612922Y-31098456D01*
X124577078Y-31216327D01*
X124488980Y-31329087D01*
X124420506Y-31389215D01*
X124355144Y-31423237D01*
X124267883Y-31436853D01*
X124133715Y-31435760D01*
X124039865Y-31431410D01*
X123872753Y-31420781D01*
X123765716Y-31403631D01*
X123694056Y-31370947D01*
X123633077Y-31313717D01*
X123595861Y-31269393D01*
X123477031Y-31123797D01*
X123142724Y-31280678D01*
X122854095Y-31395463D01*
X122592413Y-31459146D01*
X122547817Y-31464797D01*
X122400794Y-31477094D01*
X122309550Y-31471092D01*
X122245872Y-31440246D01*
X122183688Y-31380325D01*
X122097454Y-31305323D01*
X122023052Y-31269196D01*
X122015958Y-31268614D01*
X121956706Y-31233155D01*
X121901579Y-31147369D01*
X121899648Y-31142808D01*
X121844441Y-31037902D01*
X121788493Y-30968000D01*
X121767802Y-30934305D01*
X121752298Y-30865581D01*
X121741345Y-30751873D01*
X121734310Y-30583224D01*
X121730556Y-30349678D01*
X121729449Y-30042187D01*
X121727674Y-29711632D01*
X121722127Y-29459752D01*
X121712476Y-29280482D01*
X121698387Y-29167758D01*
X121679529Y-29115515D01*
X121678564Y-29114491D01*
X121605230Y-29081242D01*
X121489266Y-29064197D01*
X121463757Y-29063606D01*
X121283478Y-29037650D01*
X121149647Y-28966906D01*
X121074349Y-28862060D01*
X121069668Y-28733796D01*
X121073924Y-28718901D01*
X121144922Y-28624819D01*
X121275895Y-28558925D01*
X121446657Y-28521725D01*
X121637022Y-28513728D01*
X121826801Y-28535439D01*
G37*
G36*
X124874797Y-29858860D02*
G01*
X124918902Y-29586981D01*
X124954962Y-29433106D01*
X125015423Y-29224400D01*
X125080965Y-29073561D01*
X125163860Y-28953957D01*
X125188754Y-28925793D01*
X125276952Y-28835050D01*
X125342098Y-28777479D01*
X125361489Y-28766778D01*
X125407657Y-28738199D01*
X125435125Y-28708980D01*
X125513382Y-28655523D01*
X125648089Y-28600820D01*
X125811439Y-28553252D01*
X125975622Y-28521198D01*
X126087689Y-28512354D01*
X126231402Y-28525438D01*
X126398729Y-28558387D01*
X126461358Y-28575501D01*
X126677371Y-28628489D01*
X126829270Y-28631337D01*
X126925299Y-28578137D01*
X126973706Y-28462981D01*
X126982734Y-28279961D01*
X126978568Y-28204906D01*
X126954425Y-28031982D01*
X126901695Y-27928156D01*
X126803856Y-27878918D01*
X126644382Y-27869754D01*
X126599172Y-27871686D01*
X126413928Y-27857888D01*
X126274576Y-27801744D01*
X126190558Y-27713772D01*
X126171318Y-27604496D01*
X126226299Y-27484434D01*
X126238394Y-27469731D01*
X126284131Y-27422450D01*
X126335357Y-27391771D01*
X126410341Y-27374132D01*
X126527349Y-27365971D01*
X126704649Y-27363728D01*
X126782306Y-27363680D01*
X126980306Y-27366121D01*
X127155555Y-27372523D01*
X127285051Y-27381817D01*
X127336050Y-27389442D01*
X127384239Y-27408949D01*
X127423643Y-27446019D01*
X127454989Y-27508248D01*
X127479007Y-27603235D01*
X127496426Y-27738576D01*
X127507974Y-27921870D01*
X127514380Y-28160713D01*
X127516375Y-28462704D01*
X127514685Y-28835440D01*
X127510915Y-29212020D01*
X127506629Y-29600614D01*
X127503938Y-29913640D01*
X127503242Y-30160326D01*
X127504942Y-30349904D01*
X127509440Y-30491604D01*
X127517136Y-30594657D01*
X127528432Y-30668293D01*
X127543729Y-30721742D01*
X127563426Y-30764235D01*
X127579531Y-30791569D01*
X127655234Y-30887496D01*
X127743953Y-30925218D01*
X127812823Y-30929382D01*
X127933992Y-30956479D01*
X128023953Y-31024470D01*
X128073864Y-31113407D01*
X128074882Y-31203342D01*
X128018164Y-31274324D01*
X127974401Y-31293874D01*
X127869663Y-31335024D01*
X127825601Y-31356518D01*
X127744182Y-31378077D01*
X127611614Y-31392354D01*
X127503162Y-31395826D01*
X127347107Y-31389045D01*
X127243013Y-31362434D01*
X127158676Y-31306594D01*
X127139967Y-31289816D01*
X127020028Y-31203401D01*
X126927907Y-31189213D01*
X126881162Y-31226816D01*
X126794932Y-31302757D01*
X126649422Y-31370190D01*
X126470147Y-31421933D01*
X126282624Y-31450802D01*
X126112369Y-31449615D01*
X126097062Y-31447534D01*
X125932738Y-31403117D01*
X125749145Y-31322443D01*
X125562849Y-31216874D01*
X125390418Y-31097773D01*
X125248420Y-30976500D01*
X125153420Y-30864417D01*
X125121770Y-30778691D01*
X125102750Y-30710049D01*
X125053258Y-30594517D01*
X124994558Y-30477370D01*
X124911890Y-30284670D01*
X124894269Y-30195971D01*
X125404331Y-30195971D01*
X125452590Y-30265993D01*
X125520902Y-30367903D01*
X125580647Y-30499470D01*
X125587540Y-30519762D01*
X125653976Y-30651838D01*
X125771980Y-30764747D01*
X125836586Y-30809084D01*
X125959221Y-30881401D01*
X126058836Y-30914793D01*
X126175635Y-30918318D01*
X126279653Y-30908901D01*
X126435510Y-30884203D01*
X126546244Y-30839267D01*
X126651521Y-30755551D01*
X126691887Y-30716194D01*
X126797404Y-30593770D01*
X126867058Y-30461683D01*
X126919743Y-30283467D01*
X126922734Y-30270695D01*
X126975210Y-29964228D01*
X126984618Y-29694021D01*
X126952527Y-29469704D01*
X126880508Y-29300912D01*
X126770131Y-29197278D01*
X126745926Y-29186133D01*
X126615684Y-29129071D01*
X126508306Y-29076334D01*
X126399819Y-29040276D01*
X126317488Y-29044597D01*
X126230807Y-29066034D01*
X126103062Y-29081711D01*
X126062737Y-29084299D01*
X125858531Y-29133582D01*
X125688214Y-29252982D01*
X125559937Y-29431805D01*
X125481855Y-29659357D01*
X125461002Y-29873449D01*
X125453679Y-30010868D01*
X125434747Y-30111631D01*
X125415409Y-30146879D01*
X125404331Y-30195971D01*
X124894269Y-30195971D01*
X124872215Y-30084962D01*
X124874797Y-29858860D01*
G37*
G36*
X86499862Y-27479698D02*
G01*
X86660527Y-27551656D01*
X86783698Y-27652562D01*
X86831621Y-27729639D01*
X86846443Y-27875168D01*
X86801346Y-28037147D01*
X86706949Y-28184941D01*
X86656842Y-28234002D01*
X86557978Y-28305596D01*
X86466015Y-28333345D01*
X86349171Y-28321725D01*
X86237296Y-28293054D01*
X86104758Y-28237095D01*
X85991529Y-28160612D01*
X85989848Y-28159065D01*
X85925458Y-28082138D01*
X85907516Y-27994308D01*
X85917610Y-27898917D01*
X85963285Y-27749675D01*
X86039670Y-27606511D01*
X86050605Y-27591488D01*
X86137752Y-27497450D01*
X86231656Y-27458411D01*
X86329858Y-27452254D01*
X86499862Y-27479698D01*
G37*
G36*
X168119433Y-55184474D02*
G01*
X167763535Y-55184474D01*
X167575655Y-55186988D01*
X167456786Y-55203506D01*
X167391132Y-55247491D01*
X167362898Y-55332408D01*
X167356288Y-55471720D01*
X167356160Y-55531711D01*
X167359677Y-55656384D01*
X167374928Y-55713574D01*
X167408968Y-55720475D01*
X167430367Y-55712599D01*
X167630883Y-55663366D01*
X167811605Y-55690666D01*
X167963676Y-55786932D01*
X168078236Y-55944596D01*
X168146426Y-56156090D01*
X168161837Y-56337407D01*
X168131910Y-56580814D01*
X168049269Y-56789945D01*
X167924621Y-56955609D01*
X167768673Y-57068614D01*
X167592132Y-57119768D01*
X167405705Y-57099879D01*
X167316771Y-57062880D01*
X167134111Y-56924538D01*
X167021234Y-56738208D01*
X166989071Y-56614615D01*
X166963428Y-56456594D01*
X167138592Y-56456594D01*
X167249734Y-56461414D01*
X167300043Y-56486833D01*
X167313391Y-56549293D01*
X167313756Y-56577234D01*
X167346519Y-56714038D01*
X167430015Y-56801065D01*
X167542058Y-56830447D01*
X167660459Y-56794318D01*
X167734719Y-56726502D01*
X167794411Y-56601501D01*
X167824784Y-56435447D01*
X167825715Y-56258353D01*
X167797077Y-56100235D01*
X167738744Y-55991107D01*
X167737797Y-55990150D01*
X167637572Y-55919001D01*
X167540724Y-55921306D01*
X167431455Y-55999160D01*
X167395805Y-56035509D01*
X167287144Y-56127321D01*
X167183936Y-56153886D01*
X167157876Y-56152120D01*
X167114485Y-56145835D01*
X167082816Y-56131169D01*
X167061956Y-56097083D01*
X167050994Y-56032538D01*
X167049019Y-55926493D01*
X167055119Y-55767911D01*
X167068383Y-55545750D01*
X167085854Y-55279883D01*
X167111822Y-54887646D01*
X168119433Y-54887646D01*
X168119433Y-55184474D01*
G37*
G36*
X192798564Y-46974158D02*
G01*
X192857632Y-46994143D01*
X192971074Y-47034117D01*
X193118035Y-47086566D01*
X193277663Y-47143979D01*
X193429103Y-47198844D01*
X193551501Y-47243649D01*
X193624004Y-47270881D01*
X193634722Y-47275359D01*
X193626697Y-47314672D01*
X193598443Y-47415168D01*
X193555976Y-47557554D01*
X193505314Y-47722539D01*
X193452473Y-47890829D01*
X193403470Y-48043134D01*
X193364323Y-48160161D01*
X193341048Y-48222618D01*
X193337596Y-48228027D01*
X193296597Y-48213782D01*
X193191912Y-48176711D01*
X193039706Y-48122555D01*
X192868903Y-48061610D01*
X192685844Y-47995348D01*
X192534376Y-47938883D01*
X192431056Y-47898500D01*
X192392736Y-47880927D01*
X192400846Y-47837439D01*
X192435232Y-47731585D01*
X192490287Y-47579582D01*
X192555619Y-47409762D01*
X192641660Y-47200682D01*
X192707237Y-47063997D01*
X192757130Y-46991140D01*
X192796118Y-46973541D01*
X192798564Y-46974158D01*
G37*
G36*
X112251480Y-28412347D02*
G01*
X112363425Y-28477470D01*
X112482311Y-28558289D01*
X112543662Y-28617943D01*
X112562583Y-28679038D01*
X112554334Y-28763211D01*
X112548433Y-28874741D01*
X112565730Y-28951573D01*
X112568970Y-28956133D01*
X112577491Y-29026912D01*
X112540666Y-29150055D01*
X112526941Y-29182144D01*
X112457009Y-29306460D01*
X112377285Y-29369825D01*
X112320226Y-29387103D01*
X112223179Y-29422932D01*
X112171387Y-29471202D01*
X112110446Y-29520103D01*
X111989774Y-29516789D01*
X111816041Y-29461806D01*
X111759748Y-29437654D01*
X111613810Y-29353414D01*
X111516057Y-29241290D01*
X111473521Y-29163112D01*
X111419474Y-29035543D01*
X111387042Y-28927484D01*
X111382872Y-28894294D01*
X111417263Y-28743745D01*
X111507578Y-28585687D01*
X111634529Y-28451800D01*
X111666962Y-28427701D01*
X111848822Y-28344016D01*
X112041192Y-28338721D01*
X112251480Y-28412347D01*
G37*
G36*
X95939664Y-29859372D02*
G01*
X95938366Y-29788088D01*
X95930902Y-29509501D01*
X95919653Y-29309774D01*
X95904069Y-29183020D01*
X95883600Y-29123353D01*
X95875734Y-29117401D01*
X95766557Y-29056532D01*
X95670362Y-28964193D01*
X95613983Y-28868554D01*
X95608581Y-28836949D01*
X95646737Y-28745339D01*
X95760660Y-28661759D01*
X95856223Y-28615030D01*
X95931096Y-28601493D01*
X96022183Y-28620146D01*
X96116185Y-28652117D01*
X96274002Y-28702877D01*
X96389753Y-28718143D01*
X96499369Y-28695719D01*
X96638782Y-28633411D01*
X96668681Y-28618364D01*
X96900778Y-28531316D01*
X97099727Y-28522250D01*
X97265701Y-28591163D01*
X97279583Y-28601626D01*
X97393074Y-28690897D01*
X97602078Y-28600986D01*
X97766410Y-28541582D01*
X97938106Y-28496217D01*
X98000953Y-28485050D01*
X98127715Y-28475014D01*
X98212706Y-28497475D01*
X98296590Y-28565001D01*
X98313429Y-28581630D01*
X98413057Y-28716038D01*
X98498861Y-28893697D01*
X98561880Y-29086912D01*
X98593153Y-29267991D01*
X98583717Y-29409239D01*
X98582519Y-29413185D01*
X98562604Y-29527305D01*
X98553498Y-29689054D01*
X98556540Y-29848080D01*
X98559492Y-30019802D01*
X98549979Y-30176288D01*
X98531850Y-30276400D01*
X98522058Y-30432325D01*
X98574241Y-30606986D01*
X98677580Y-30775606D01*
X98804639Y-30901153D01*
X98908082Y-30995769D01*
X98952169Y-31087539D01*
X98957848Y-31154161D01*
X98948500Y-31272814D01*
X98911298Y-31348317D01*
X98830439Y-31391573D01*
X98690121Y-31413481D01*
X98571183Y-31420897D01*
X98298881Y-31417942D01*
X98080812Y-31382615D01*
X97925697Y-31317354D01*
X97842261Y-31224597D01*
X97839032Y-31216307D01*
X97825459Y-31139513D01*
X97849653Y-31057205D01*
X97920388Y-30943274D01*
X97940178Y-30915389D01*
X98079488Y-30721403D01*
X98049177Y-29966712D01*
X98035221Y-29662080D01*
X98019370Y-29433915D01*
X97999001Y-29273881D01*
X97971493Y-29173639D01*
X97934223Y-29124854D01*
X97884568Y-29119186D01*
X97819908Y-29148300D01*
X97796423Y-29163073D01*
X97719148Y-29222376D01*
X97662745Y-29294142D01*
X97618841Y-29397053D01*
X97579068Y-29549788D01*
X97543059Y-29728506D01*
X97497724Y-30125397D01*
X97503834Y-30440487D01*
X97519412Y-30624415D01*
X97539341Y-30746549D01*
X97570513Y-30829863D01*
X97619820Y-30897332D01*
X97650502Y-30929387D01*
X97737494Y-31025272D01*
X97765822Y-31093980D01*
X97742007Y-31162587D01*
X97715880Y-31200827D01*
X97632539Y-31260663D01*
X97496607Y-31303867D01*
X97330373Y-31329550D01*
X97156125Y-31336824D01*
X96996149Y-31324799D01*
X96872734Y-31292586D01*
X96808167Y-31239297D01*
X96807259Y-31237069D01*
X96781140Y-31196435D01*
X96743662Y-31225394D01*
X96727703Y-31246510D01*
X96652199Y-31298555D01*
X96516953Y-31347456D01*
X96343733Y-31389822D01*
X96154305Y-31422257D01*
X95970438Y-31441370D01*
X95813899Y-31443765D01*
X95706455Y-31426051D01*
X95679255Y-31409961D01*
X95643654Y-31319490D01*
X95662713Y-31194271D01*
X95729822Y-31058197D01*
X95800876Y-30970273D01*
X95849587Y-30921656D01*
X95886919Y-30880612D01*
X95914182Y-30835879D01*
X95932687Y-30776196D01*
X95943742Y-30690301D01*
X95948657Y-30566933D01*
X95948743Y-30394830D01*
X95945549Y-30178983D01*
X96418025Y-30178983D01*
X96444425Y-30297346D01*
X96464576Y-30326680D01*
X96491988Y-30396604D01*
X96508759Y-30527487D01*
X96512266Y-30656508D01*
X96513706Y-30808999D01*
X96526124Y-30899177D01*
X96556268Y-30949431D01*
X96610361Y-30981910D01*
X96685864Y-31030149D01*
X96711085Y-31068514D01*
X96737252Y-31062940D01*
X96805315Y-31007550D01*
X96885348Y-30929659D01*
X96982763Y-30824145D01*
X97030796Y-30747719D01*
X97041342Y-30670836D01*
X97028233Y-30574713D01*
X97016227Y-30467074D01*
X97005539Y-30296391D01*
X96997201Y-30084424D01*
X96992245Y-29852937D01*
X96991746Y-29805676D01*
X96987545Y-29586684D01*
X96979553Y-29396225D01*
X96968805Y-29251332D01*
X96956341Y-29169035D01*
X96952368Y-29159015D01*
X96889463Y-29110779D01*
X96801410Y-29130194D01*
X96681674Y-29219781D01*
X96607529Y-29292040D01*
X96505408Y-29405598D01*
X96460018Y-29482702D01*
X96462163Y-29540244D01*
X96467023Y-29550071D01*
X96484765Y-29655554D01*
X96460787Y-29806859D01*
X96423432Y-30009081D01*
X96418025Y-30178983D01*
X95945549Y-30178983D01*
X95945309Y-30162730D01*
X95939664Y-29859372D01*
G37*
G36*
X149843054Y-47894311D02*
G01*
X149991103Y-47280961D01*
X150218808Y-46682635D01*
X150299966Y-46512855D01*
X150542415Y-46089030D01*
X150838606Y-45668773D01*
X151170348Y-45274485D01*
X151519452Y-44928569D01*
X151726557Y-44755964D01*
X152271271Y-44386958D01*
X152846712Y-44093650D01*
X153445982Y-43876750D01*
X154062182Y-43736973D01*
X154688414Y-43675029D01*
X155317780Y-43691630D01*
X155943381Y-43787488D01*
X156558320Y-43963316D01*
X157115593Y-44199722D01*
X157207160Y-44246748D01*
X157305604Y-44301030D01*
X157415387Y-44365688D01*
X157540975Y-44443837D01*
X157686831Y-44538595D01*
X157857419Y-44653080D01*
X158057205Y-44790408D01*
X158290650Y-44953697D01*
X158562221Y-45146063D01*
X158876381Y-45370625D01*
X159237594Y-45630498D01*
X159650324Y-45928802D01*
X160119036Y-46268652D01*
X160648193Y-46653166D01*
X161101570Y-46983041D01*
X161592378Y-47340053D01*
X162069652Y-47686735D01*
X162528189Y-48019337D01*
X162962790Y-48334107D01*
X163368252Y-48627294D01*
X163739375Y-48895146D01*
X164070959Y-49133913D01*
X164357801Y-49339841D01*
X164594703Y-49509181D01*
X164776461Y-49638181D01*
X164897876Y-49723088D01*
X164938126Y-49750343D01*
X165490070Y-50063908D01*
X166068860Y-50299397D01*
X166667564Y-50456526D01*
X167279249Y-50535008D01*
X167896982Y-50534560D01*
X168513830Y-50454897D01*
X169122861Y-50295732D01*
X169717142Y-50056783D01*
X169918789Y-49955091D01*
X170109396Y-49848006D01*
X170303123Y-49729845D01*
X170465115Y-49622089D01*
X170498812Y-49597624D01*
X170559641Y-49548788D01*
X170680742Y-49448361D01*
X170857946Y-49299881D01*
X171087079Y-49106885D01*
X171363972Y-48872914D01*
X171684451Y-48601505D01*
X172044347Y-48296196D01*
X172439487Y-47960526D01*
X172865699Y-47598034D01*
X173318814Y-47212257D01*
X173794658Y-46806734D01*
X174289061Y-46385004D01*
X174728563Y-46009784D01*
X175156877Y-45643573D01*
X180015634Y-45643573D01*
X180042423Y-46098886D01*
X180127348Y-46507181D01*
X180277246Y-46888975D01*
X180498954Y-47264785D01*
X180605186Y-47412596D01*
X180914067Y-47754839D01*
X181277397Y-48039624D01*
X181683900Y-48263087D01*
X182122298Y-48421363D01*
X182581312Y-48510588D01*
X183049666Y-48526897D01*
X183516080Y-48466426D01*
X183613455Y-48443424D01*
X184077259Y-48282469D01*
X184499902Y-48050536D01*
X184874957Y-47754018D01*
X185196000Y-47399305D01*
X185456606Y-46992789D01*
X185650350Y-46540859D01*
X185703527Y-46364441D01*
X185751180Y-46107650D01*
X185775012Y-45801989D01*
X185774997Y-45479992D01*
X185751105Y-45174191D01*
X185704797Y-44922704D01*
X185540697Y-44460480D01*
X185308074Y-44041742D01*
X185014289Y-43672161D01*
X184666708Y-43357409D01*
X184272691Y-43103158D01*
X183839603Y-42915078D01*
X183374807Y-42798843D01*
X182897229Y-42760100D01*
X182416985Y-42799872D01*
X181954246Y-42915684D01*
X181519817Y-43102284D01*
X181124505Y-43354415D01*
X180779115Y-43666825D01*
X180605186Y-43874549D01*
X180353932Y-44253537D01*
X180177129Y-44630590D01*
X180067937Y-45026226D01*
X180019521Y-45460961D01*
X180015634Y-45643573D01*
X175156877Y-45643573D01*
X175422299Y-45416635D01*
X176051858Y-44876986D01*
X176618187Y-44390013D01*
X177122230Y-43954887D01*
X177564934Y-43570783D01*
X177947242Y-43236873D01*
X178270101Y-42952330D01*
X178534457Y-42716329D01*
X178741254Y-42528042D01*
X178891438Y-42386642D01*
X178985955Y-42291304D01*
X179004343Y-42270687D01*
X179440071Y-41823858D01*
X179927074Y-41439689D01*
X180457204Y-41120328D01*
X181022314Y-40867923D01*
X181614257Y-40684624D01*
X182224886Y-40572579D01*
X182846055Y-40533937D01*
X183469616Y-40570847D01*
X184087422Y-40685456D01*
X184520237Y-40815927D01*
X185123979Y-41072521D01*
X185681943Y-41397606D01*
X186189642Y-41785593D01*
X186642585Y-42230893D01*
X187036283Y-42727919D01*
X187366248Y-43271081D01*
X187627991Y-43854790D01*
X187817021Y-44473460D01*
X187920448Y-45048804D01*
X187931766Y-45188626D01*
X187941360Y-45401643D01*
X187949237Y-45676260D01*
X187955404Y-46000884D01*
X187959869Y-46363919D01*
X187962640Y-46753771D01*
X187963725Y-47158843D01*
X187963131Y-47567543D01*
X187960865Y-47968275D01*
X187956936Y-48349444D01*
X187951351Y-48699456D01*
X187944117Y-49006715D01*
X187935243Y-49259627D01*
X187924736Y-49446598D01*
X187917501Y-49523539D01*
X187802839Y-50122719D01*
X187607804Y-50717389D01*
X187476928Y-51018282D01*
X187243629Y-51462707D01*
X186984063Y-51854883D01*
X186676301Y-52226086D01*
X186501570Y-52409484D01*
X186024638Y-52837551D01*
X185509724Y-53194451D01*
X184949855Y-53484087D01*
X184338057Y-53710363D01*
X184020935Y-53798360D01*
X183660501Y-53888573D01*
X169115927Y-53895262D01*
X168007072Y-53895665D01*
X166918469Y-53895851D01*
X165853272Y-53895826D01*
X164814637Y-53895597D01*
X163805716Y-53895169D01*
X162829664Y-53894550D01*
X161889635Y-53893745D01*
X160988783Y-53892760D01*
X160130263Y-53891604D01*
X159317228Y-53890280D01*
X158552833Y-53888797D01*
X157840232Y-53887160D01*
X157182578Y-53885376D01*
X156583027Y-53883451D01*
X156044732Y-53881391D01*
X155570847Y-53879204D01*
X155164526Y-53876894D01*
X154828924Y-53874469D01*
X154567195Y-53871935D01*
X154382493Y-53869299D01*
X154277971Y-53866566D01*
X154257515Y-53865258D01*
X153646992Y-53752022D01*
X153049111Y-53559135D01*
X152474667Y-53291735D01*
X151934450Y-52954958D01*
X151439255Y-52553943D01*
X151373728Y-52492580D01*
X150930292Y-52013856D01*
X150556343Y-51493530D01*
X150253152Y-50938680D01*
X150021990Y-50356385D01*
X149864128Y-49753722D01*
X149780837Y-49137770D01*
X149779450Y-49021915D01*
X152015691Y-49021915D01*
X152049302Y-49340096D01*
X152123073Y-49639507D01*
X152243274Y-49950855D01*
X152310000Y-50094404D01*
X152493511Y-50402086D01*
X152738192Y-50707359D01*
X153022689Y-50988265D01*
X153325648Y-51222846D01*
X153520392Y-51339058D01*
X153955074Y-51519538D01*
X154422013Y-51630031D01*
X154902575Y-51668394D01*
X155378130Y-51632483D01*
X155626810Y-51581321D01*
X156007058Y-51457461D01*
X156347501Y-51285880D01*
X156669341Y-51054129D01*
X156926638Y-50818065D01*
X157111809Y-50625259D01*
X157249934Y-50459053D01*
X157360459Y-50293409D01*
X157462831Y-50102288D01*
X157465928Y-50095993D01*
X157608773Y-49773548D01*
X157702120Y-49476955D01*
X157752161Y-49175836D01*
X157765086Y-48839814D01*
X157759793Y-48654257D01*
X157742455Y-48387434D01*
X157714217Y-48173802D01*
X157669834Y-47981930D01*
X157622868Y-47833603D01*
X157429626Y-47400993D01*
X157165685Y-47004828D01*
X156840809Y-46654756D01*
X156464760Y-46360419D01*
X156047301Y-46131462D01*
X155804394Y-46037169D01*
X155650473Y-45988945D01*
X155514437Y-45956279D01*
X155372511Y-45936152D01*
X155200917Y-45925546D01*
X154975880Y-45921442D01*
X154889383Y-45921011D01*
X154647293Y-45921806D01*
X154466495Y-45927987D01*
X154323504Y-45942582D01*
X154194837Y-45968620D01*
X154057010Y-46009131D01*
X153963801Y-46040389D01*
X153516664Y-46237673D01*
X153111780Y-46504886D01*
X152756557Y-46834634D01*
X152458406Y-47219526D01*
X152224736Y-47652170D01*
X152144315Y-47855594D01*
X152088498Y-48034493D01*
X152051446Y-48213229D01*
X152028441Y-48421160D01*
X152015969Y-48654257D01*
X152015691Y-49021915D01*
X149779450Y-49021915D01*
X149773389Y-48515607D01*
X149843054Y-47894311D01*
G37*
G36*
X81445643Y-55057262D02*
G01*
X80936795Y-55057262D01*
X80936795Y-57135058D01*
X81445643Y-57135058D01*
X81445643Y-57389482D01*
X80682371Y-57389482D01*
X80682371Y-54802838D01*
X81445643Y-54802838D01*
X81445643Y-55057262D01*
G37*
%TD*%
M02*
