<?xml version="1.0" encoding="UTF-8" standalone="no"?>
<!-- Created with Inkscape (http://www.inkscape.org/) -->

<svg
   width="210mm"
   height="297mm"
   viewBox="0 0 210 297"
   version="1.1"
   id="svg5"
   inkscape:version="1.1.2 (b8e25be833, 2022-02-05)"
   sodipodi:docname="drawing.svg"
   xmlns:inkscape="http://www.inkscape.org/namespaces/inkscape"
   xmlns:sodipodi="http://sodipodi.sourceforge.net/DTD/sodipodi-0.dtd"
   xmlns="http://www.w3.org/2000/svg"
   xmlns:svg="http://www.w3.org/2000/svg">
  <sodipodi:namedview
     id="namedview7"
     pagecolor="#ffffff"
     bordercolor="#666666"
     borderopacity="1.0"
     inkscape:pageshadow="2"
     inkscape:pageopacity="0.0"
     inkscape:pagecheckerboard="0"
     inkscape:document-units="mm"
     showgrid="false"
     inkscape:zoom="0.64052329"
     inkscape:cx="396.55076"
     inkscape:cy="60.887716"
     inkscape:window-width="1920"
     inkscape:window-height="1027"
     inkscape:window-x="-8"
     inkscape:window-y="-8"
     inkscape:window-maximized="1"
     inkscape:current-layer="Layer_x0020_1" />
  <defs
     id="defs2"><style
   type="text/css"
   id="style9">
   <![CDATA[
    .str0 {stroke:#2B2A29;stroke-width:20}
    .fil0 {fill:none}
   ]]>
  </style>

   
   
   
   
   
   
   
   
   
   
   
   
   
   
   
   
   
   
  
   
   
   
   
   
   
   
   
   
   
   
   
   
   
   
   
   
   
   
   
   
   
   
   
   
   
   
   
   
   
   
   
   
   
   
   
   
   
   
   
   
   
   
   
   
   
   
   
  
    
    
   
    
    
   
     
     
     
     
     
     
     
     
    
     
     
     
     
     
     
     
     
    
     
     
     
     
     
     
     
     
    
     
     
     
     
     
     
     
     
    </defs>
  <g
     inkscape:label="Layer 1"
     inkscape:groupmode="layer"
     id="layer1">
    <g
       id="Layer_x0020_1"
       inkscape:label="Layer 1"
       inkscape:groupmode="layer"
       transform="matrix(0.01,0,0,0.01,-162.37865,-28.279555)"
       style="clip-rule:evenodd;fill-rule:evenodd;image-rendering:optimizeQuality;shape-rendering:geometricPrecision;text-rendering:geometricPrecision">
  <metadata
   id="CorelCorpID_0Corel-Layer" />

  <rect
   class="fil0 str0"
   x="1750"
   y="5018"
   width="16200"
   height="3965"
   id="rect14" />
<path
   class="fil0 str0"
   d="m 2830,6229 c 179,0 325,145 325,325 0,179 -146,325 -325,325 -180,0 -325,-146 -325,-325 0,-180 145,-325 325,-325 z"
   id="path16" />
<path
   class="fil0 str0"
   d="m 7017,6229 c 180,0 325,145 325,325 0,179 -145,325 -325,325 -179,0 -325,-146 -325,-325 0,-180 146,-325 325,-325 z"
   id="path18" />
<path
   class="fil0 str0"
   d="m 11209,6229 c 180,0 325,145 325,325 0,179 -145,325 -325,325 -179,0 -325,-146 -325,-325 0,-180 146,-325 325,-325 z"
   id="path20" />
<path
   class="fil0 str0"
   d="m 15399,6229 c 180,0 325,145 325,325 0,179 -145,325 -325,325 -179,0 -325,-146 -325,-325 0,-180 146,-325 325,-325 z"
   id="path22" />
<path
   class="fil0 str0"
   d="m 2830,7180 c 179,0 325,145 325,325 0,179 -146,325 -325,325 -180,0 -325,-146 -325,-325 0,-180 145,-325 325,-325 z"
   id="path24" />
<path
   class="fil0 str0"
   d="m 7017,7180 c 180,0 325,145 325,325 0,179 -145,325 -325,325 -179,0 -325,-146 -325,-325 0,-180 146,-325 325,-325 z"
   id="path26" />
<path
   class="fil0 str0"
   d="m 11209,7180 c 180,0 325,145 325,325 0,179 -145,325 -325,325 -179,0 -325,-146 -325,-325 0,-180 146,-325 325,-325 z"
   id="path28" />
<path
   class="fil0 str0"
   d="m 15399,7180 c 180,0 325,145 325,325 0,179 -145,325 -325,325 -179,0 -325,-146 -325,-325 0,-180 146,-325 325,-325 z"
   id="path30" />
<path
   class="fil0 str0"
   d="m 4100,6866 c 179,0 325,146 325,325 0,180 -146,325 -325,325 -180,0 -325,-145 -325,-325 0,-179 145,-325 325,-325 z"
   id="path32" />
<path
   class="fil0 str0"
   d="m 5621,6866 c 180,0 325,146 325,325 0,180 -145,325 -325,325 -179,0 -324,-145 -324,-325 0,-179 145,-325 324,-325 z"
   id="path34" />
<path
   class="fil0 str0"
   d="m 8288,6866 c 179,0 325,146 325,325 0,180 -146,325 -325,325 -180,0 -325,-145 -325,-325 0,-179 145,-325 325,-325 z"
   id="path36" />
<path
   class="fil0 str0"
   d="m 9815,6866 c 179,0 325,146 325,325 0,180 -146,325 -325,325 -180,0 -325,-145 -325,-325 0,-179 145,-325 325,-325 z"
   id="path38" />
<path
   class="fil0 str0"
   d="m 12477,6866 c 179,0 325,146 325,325 0,180 -146,325 -325,325 -180,0 -325,-145 -325,-325 0,-179 145,-325 325,-325 z"
   id="path40" />
<path
   class="fil0 str0"
   d="m 14005,6866 c 180,0 325,146 325,325 0,180 -145,325 -325,325 -179,0 -325,-145 -325,-325 0,-179 146,-325 325,-325 z"
   id="path42" />
<path
   class="fil0 str0"
   d="m 16672,6866 c 180,0 325,146 325,325 0,180 -145,325 -325,325 -179,0 -325,-145 -325,-325 0,-179 146,-325 325,-325 z"
   id="path44" />
<path
   class="fil0 str0"
   d="m 17582,8523 c 88,0 160,71 160,160 0,88 -72,160 -160,160"
   id="path46" />
<path
   class="fil0 str0"
   d="m 17382,8843 c -89,0 -160,-72 -160,-160 0,-89 71,-160 160,-160"
   id="path48" />
<line
   class="fil0 str0"
   x1="17382"
   y1="8523"
   x2="17582"
   y2="8523"
   id="line50" />
<line
   class="fil0 str0"
   x1="17382"
   y1="8843"
   x2="17582"
   y2="8843"
   id="line52" />
<path
   class="fil0 str0"
   d="m 17582,8523 c 88,0 160,71 160,160 0,88 -72,160 -160,160"
   id="path54" />
<path
   class="fil0 str0"
   d="m 17382,8843 c -89,0 -160,-72 -160,-160 0,-89 71,-160 160,-160"
   id="path56" />
<line
   class="fil0 str0"
   x1="17382"
   y1="8523"
   x2="17582"
   y2="8523"
   id="line58" />
<line
   class="fil0 str0"
   x1="17382"
   y1="8843"
   x2="17582"
   y2="8843"
   id="line60" />
<path
   class="fil0 str0"
   d="m 17582,5158 c 88,0 160,71 160,160 0,88 -72,160 -160,160"
   id="path64" />
<path
   class="fil0 str0"
   d="m 17382,5478 c -89,0 -160,-72 -160,-160 0,-89 71,-160 160,-160"
   id="path66" />
<line
   class="fil0 str0"
   x1="17382"
   y1="5158"
   x2="17582"
   y2="5158"
   id="line68" />
<line
   class="fil0 str0"
   x1="17382"
   y1="5478"
   x2="17582"
   y2="5478"
   id="line70" />
<path
   class="fil0 str0"
   d="m 17582,5158 c 88,0 160,71 160,160 0,88 -72,160 -160,160"
   id="path72" />
<path
   class="fil0 str0"
   d="m 17382,5478 c -89,0 -160,-72 -160,-160 0,-89 71,-160 160,-160"
   id="path74" />
<line
   class="fil0 str0"
   x1="17382"
   y1="5158"
   x2="17582"
   y2="5158"
   id="line76" />
<line
   class="fil0 str0"
   x1="17382"
   y1="5478"
   x2="17582"
   y2="5478"
   id="line78" />
<path
   class="fil0 str0"
   d="m 2329,8523 c 88,0 160,71 160,160 0,88 -72,160 -160,160"
   id="path84" />
<path
   class="fil0 str0"
   d="m 2129,8843 c -88,0 -160,-72 -160,-160 0,-89 72,-160 160,-160"
   id="path86" />
<line
   class="fil0 str0"
   x1="2129"
   y1="8523"
   x2="2329"
   y2="8523"
   id="line88" />
<line
   class="fil0 str0"
   x1="2129"
   y1="8843"
   x2="2329"
   y2="8843"
   id="line90" />
<path
   class="fil0 str0"
   d="m 2329,8523 c 88,0 160,71 160,160 0,88 -72,160 -160,160"
   id="path92" />
<path
   class="fil0 str0"
   d="m 2129,8843 c -88,0 -160,-72 -160,-160 0,-89 72,-160 160,-160"
   id="path94" />
<line
   class="fil0 str0"
   x1="2129"
   y1="8523"
   x2="2329"
   y2="8523"
   id="line96" />
<line
   class="fil0 str0"
   x1="2129"
   y1="8843"
   x2="2329"
   y2="8843"
   id="line98" />
<path
   class="fil0 str0"
   d="m 2329,5158 c 88,0 160,71 160,160 0,88 -72,160 -160,160"
   id="path102" />
<path
   class="fil0 str0"
   d="m 2129,5478 c -88,0 -160,-72 -160,-160 0,-89 72,-160 160,-160"
   id="path104" />
<line
   class="fil0 str0"
   x1="2129"
   y1="5158"
   x2="2329"
   y2="5158"
   id="line106" />
<line
   class="fil0 str0"
   x1="2129"
   y1="5478"
   x2="2329"
   y2="5478"
   id="line108" />
<path
   class="fil0 str0"
   d="m 2329,5158 c 88,0 160,71 160,160 0,88 -72,160 -160,160"
   id="path110" />
<path
   class="fil0 str0"
   d="m 2129,5478 c -88,0 -160,-72 -160,-160 0,-89 72,-160 160,-160"
   id="path112" />
<line
   class="fil0 str0"
   x1="2129"
   y1="5158"
   x2="2329"
   y2="5158"
   id="line114" />
<line
   class="fil0 str0"
   x1="2129"
   y1="5478"
   x2="2329"
   y2="5478"
   id="line116" />

  <rect
   class="fil0 str0"
   x="19400"
   y="4841"
   width="16200"
   height="4318"
   id="rect123" />
<path
   class="fil0 str0"
   d="m 19979,4982 c 88,0 160,72 160,160 0,88 -72,160 -160,160"
   id="path125" />
<path
   class="fil0 str0"
   d="m 19779,5302 c -88,0 -160,-72 -160,-160 0,-88 72,-160 160,-160"
   id="path127" />
<line
   class="fil0 str0"
   x1="19779"
   y1="4982"
   x2="19979"
   y2="4982"
   id="line129" />
<line
   class="fil0 str0"
   x1="19779"
   y1="5302"
   x2="19979"
   y2="5302"
   id="line131" />
<path
   class="fil0 str0"
   d="m 19979,4982 c 88,0 160,72 160,160 0,88 -72,160 -160,160"
   id="path133" />
<path
   class="fil0 str0"
   d="m 19779,5302 c -88,0 -160,-72 -160,-160 0,-88 72,-160 160,-160"
   id="path135" />
<line
   class="fil0 str0"
   x1="19779"
   y1="4982"
   x2="19979"
   y2="4982"
   id="line137" />
<line
   class="fil0 str0"
   x1="19779"
   y1="5302"
   x2="19979"
   y2="5302"
   id="line139" />
<path
   class="fil0 str0"
   d="m 19979,8701 c 88,0 160,71 160,160 0,88 -72,160 -160,160"
   id="path141" />
<path
   class="fil0 str0"
   d="m 19779,9021 c -88,0 -160,-72 -160,-160 0,-89 72,-160 160,-160"
   id="path143" />
<line
   class="fil0 str0"
   x1="19779"
   y1="8701"
   x2="19979"
   y2="8701"
   id="line145" />
<line
   class="fil0 str0"
   x1="19779"
   y1="9021"
   x2="19979"
   y2="9021"
   id="line147" />
<path
   class="fil0 str0"
   d="m 19979,8701 c 88,0 160,71 160,160 0,88 -72,160 -160,160"
   id="path149" />
<path
   class="fil0 str0"
   d="m 19779,9021 c -88,0 -160,-72 -160,-160 0,-89 72,-160 160,-160"
   id="path151" />
<line
   class="fil0 str0"
   x1="19779"
   y1="8701"
   x2="19979"
   y2="8701"
   id="line153" />
<line
   class="fil0 str0"
   x1="19779"
   y1="9021"
   x2="19979"
   y2="9021"
   id="line155" />
<path
   class="fil0 str0"
   d="m 35232,4982 c 88,0 160,72 160,160 0,88 -72,160 -160,160"
   id="path157" />
<path
   class="fil0 str0"
   d="m 35032,5302 c -89,0 -160,-72 -160,-160 0,-88 71,-160 160,-160"
   id="path159" />
<line
   class="fil0 str0"
   x1="35032"
   y1="4982"
   x2="35232"
   y2="4982"
   id="line161" />
<line
   class="fil0 str0"
   x1="35032"
   y1="5302"
   x2="35232"
   y2="5302"
   id="line163" />
<path
   class="fil0 str0"
   d="m 35232,4982 c 88,0 160,72 160,160 0,88 -72,160 -160,160"
   id="path165" />
<path
   class="fil0 str0"
   d="m 35032,5302 c -89,0 -160,-72 -160,-160 0,-88 71,-160 160,-160"
   id="path167" />
<line
   class="fil0 str0"
   x1="35032"
   y1="4982"
   x2="35232"
   y2="4982"
   id="line169" />
<line
   class="fil0 str0"
   x1="35032"
   y1="5302"
   x2="35232"
   y2="5302"
   id="line171" />
<path
   class="fil0 str0"
   d="m 35232,8701 c 88,0 160,71 160,160 0,88 -72,160 -160,160"
   id="path173" />
<path
   class="fil0 str0"
   d="m 35032,9021 c -89,0 -160,-72 -160,-160 0,-89 71,-160 160,-160"
   id="path175" />
<line
   class="fil0 str0"
   x1="35032"
   y1="8701"
   x2="35232"
   y2="8701"
   id="line177" />
<line
   class="fil0 str0"
   x1="35032"
   y1="9021"
   x2="35232"
   y2="9021"
   id="line179" />
<path
   class="fil0 str0"
   d="m 35232,8701 c 88,0 160,71 160,160 0,88 -72,160 -160,160"
   id="path181" />
<path
   class="fil0 str0"
   d="m 35032,9021 c -89,0 -160,-72 -160,-160 0,-89 71,-160 160,-160"
   id="path183" />
<line
   class="fil0 str0"
   x1="35032"
   y1="8701"
   x2="35232"
   y2="8701"
   id="line185" />
<line
   class="fil0 str0"
   x1="35032"
   y1="9021"
   x2="35232"
   y2="9021"
   id="line187" />
<path
   class="fil0 str0"
   d="m 20480,6229 c 179,0 325,145 325,325 0,179 -146,325 -325,325 -180,0 -325,-146 -325,-325 0,-180 145,-325 325,-325 z"
   id="path189" />
<path
   class="fil0 str0"
   d="m 24667,6229 c 180,0 325,145 325,325 0,179 -145,325 -325,325 -179,0 -325,-146 -325,-325 0,-180 146,-325 325,-325 z"
   id="path191" />
<path
   class="fil0 str0"
   d="m 28859,6229 c 180,0 325,145 325,325 0,179 -145,325 -325,325 -179,0 -325,-146 -325,-325 0,-180 146,-325 325,-325 z"
   id="path193" />
<path
   class="fil0 str0"
   d="m 33049,6229 c 180,0 325,145 325,325 0,179 -145,325 -325,325 -179,0 -325,-146 -325,-325 0,-180 146,-325 325,-325 z"
   id="path195" />
<path
   class="fil0 str0"
   d="m 20480,7180 c 179,0 325,145 325,325 0,179 -146,325 -325,325 -180,0 -325,-146 -325,-325 0,-180 145,-325 325,-325 z"
   id="path197" />
<path
   class="fil0 str0"
   d="m 24667,7180 c 180,0 325,145 325,325 0,179 -145,325 -325,325 -179,0 -325,-146 -325,-325 0,-180 146,-325 325,-325 z"
   id="path199" />
<path
   class="fil0 str0"
   d="m 28859,7180 c 180,0 325,145 325,325 0,179 -145,325 -325,325 -179,0 -325,-146 -325,-325 0,-180 146,-325 325,-325 z"
   id="path201" />
<path
   class="fil0 str0"
   d="m 33049,7180 c 180,0 325,145 325,325 0,179 -145,325 -325,325 -179,0 -325,-146 -325,-325 0,-180 146,-325 325,-325 z"
   id="path203" />
<path
   class="fil0 str0"
   d="m 21750,6866 c 179,0 325,146 325,325 0,180 -146,325 -325,325 -180,0 -325,-145 -325,-325 0,-179 145,-325 325,-325 z"
   id="path205" />
<path
   class="fil0 str0"
   d="m 23271,6866 c 180,0 325,146 325,325 0,180 -145,325 -325,325 -179,0 -325,-145 -325,-325 0,-179 146,-325 325,-325 z"
   id="path207" />
<path
   class="fil0 str0"
   d="m 25938,6866 c 179,0 325,146 325,325 0,180 -146,325 -325,325 -180,0 -325,-145 -325,-325 0,-179 145,-325 325,-325 z"
   id="path209" />
<path
   class="fil0 str0"
   d="m 27465,6866 c 179,0 325,146 325,325 0,180 -146,325 -325,325 -180,0 -325,-145 -325,-325 0,-179 145,-325 325,-325 z"
   id="path211" />
<path
   class="fil0 str0"
   d="m 30127,6866 c 179,0 325,146 325,325 0,180 -146,325 -325,325 -180,0 -325,-145 -325,-325 0,-179 145,-325 325,-325 z"
   id="path213" />
<path
   class="fil0 str0"
   d="m 31655,6866 c 180,0 325,146 325,325 0,180 -145,325 -325,325 -179,0 -325,-145 -325,-325 0,-179 146,-325 325,-325 z"
   id="path215" />
<path
   class="fil0 str0"
   d="m 34322,6866 c 180,0 325,146 325,325 0,180 -145,325 -325,325 -179,0 -325,-145 -325,-325 0,-179 146,-325 325,-325 z"
   id="path217" />

 </g>
  </g>
</svg>
