<?xml version="1.0" encoding="UTF-8"?>
<!DOCTYPE svg PUBLIC "-//W3C//DTD SVG 1.1//EN" "http://www.w3.org/Graphics/SVG/1.1/DTD/svg11.dtd">
<!-- Creator: CorelDRAW X8 -->
<svg xmlns="http://www.w3.org/2000/svg" xml:space="preserve" width="360mm" height="270mm" version="1.1" style="shape-rendering:geometricPrecision; text-rendering:geometricPrecision; image-rendering:optimizeQuality; fill-rule:evenodd; clip-rule:evenodd"
viewBox="0 0 36000 27000"
 xmlns:xlink="http://www.w3.org/1999/xlink">
 <defs>
  <style type="text/css">
   <![CDATA[
    .str0 {stroke:#2B2A29;stroke-width:20}
    .fil0 {fill:none}
   ]]>
  </style>
 </defs>
 <g id="Layer_x0020_1">
  <metadata id="CorelCorpID_0Corel-Layer"/>
  <path class="fil0 str0" d="M2329 5158c88,0 160,71 160,160 0,88 -72,160 -160,160l-200 0c-88,0 -160,-72 -160,-160 0,-89 72,-160 160,-160l200 0z"/>
  <rect class="fil0 str0" x="1750" y="5018" width="16200" height="3965"/>
  <path class="fil0 str0" d="M2830 6229c179,0 325,145 325,325 0,179 -146,325 -325,325 -180,0 -325,-146 -325,-325 0,-180 145,-325 325,-325z"/>
  <path class="fil0 str0" d="M7017 6229c180,0 325,145 325,325 0,179 -145,325 -325,325 -179,0 -325,-146 -325,-325 0,-180 146,-325 325,-325z"/>
  <path class="fil0 str0" d="M11209 6229c180,0 325,145 325,325 0,179 -145,325 -325,325 -179,0 -325,-146 -325,-325 0,-180 146,-325 325,-325z"/>
  <path class="fil0 str0" d="M15399 6229c180,0 325,145 325,325 0,179 -145,325 -325,325 -179,0 -325,-146 -325,-325 0,-180 146,-325 325,-325z"/>
  <path class="fil0 str0" d="M2830 7180c179,0 325,145 325,325 0,179 -146,325 -325,325 -180,0 -325,-146 -325,-325 0,-180 145,-325 325,-325z"/>
  <path class="fil0 str0" d="M7017 7180c180,0 325,145 325,325 0,179 -145,325 -325,325 -179,0 -325,-146 -325,-325 0,-180 146,-325 325,-325z"/>
  <path class="fil0 str0" d="M11209 7180c180,0 325,145 325,325 0,179 -145,325 -325,325 -179,0 -325,-146 -325,-325 0,-180 146,-325 325,-325z"/>
  <path class="fil0 str0" d="M15399 7180c180,0 325,145 325,325 0,179 -145,325 -325,325 -179,0 -325,-146 -325,-325 0,-180 146,-325 325,-325z"/>
  <path class="fil0 str0" d="M4100 6866c179,0 325,146 325,325 0,180 -146,325 -325,325 -180,0 -325,-145 -325,-325 0,-179 145,-325 325,-325z"/>
  <path class="fil0 str0" d="M5621 6866c180,0 325,146 325,325 0,180 -145,325 -325,325 -179,0 -324,-145 -324,-325 0,-179 145,-325 324,-325z"/>
  <path class="fil0 str0" d="M8288 6866c179,0 325,146 325,325 0,180 -146,325 -325,325 -180,0 -325,-145 -325,-325 0,-179 145,-325 325,-325z"/>
  <path class="fil0 str0" d="M9815 6866c179,0 325,146 325,325 0,180 -146,325 -325,325 -180,0 -325,-145 -325,-325 0,-179 145,-325 325,-325z"/>
  <path class="fil0 str0" d="M12477 6866c179,0 325,146 325,325 0,180 -146,325 -325,325 -180,0 -325,-145 -325,-325 0,-179 145,-325 325,-325z"/>
  <path class="fil0 str0" d="M14005 6866c180,0 325,146 325,325 0,180 -145,325 -325,325 -179,0 -325,-145 -325,-325 0,-179 146,-325 325,-325z"/>
  <path class="fil0 str0" d="M16672 6866c180,0 325,146 325,325 0,180 -145,325 -325,325 -179,0 -325,-145 -325,-325 0,-179 146,-325 325,-325z"/>
  <rect class="fil0 str0" x="19400" y="4841" width="16200" height="4318"/>
  <path class="fil0 str0" d="M20480 6229c179,0 325,145 325,325 0,179 -146,325 -325,325 -180,0 -325,-146 -325,-325 0,-180 145,-325 325,-325z"/>
  <path class="fil0 str0" d="M24667 6229c180,0 325,145 325,325 0,179 -145,325 -325,325 -179,0 -325,-146 -325,-325 0,-180 146,-325 325,-325z"/>
  <path class="fil0 str0" d="M28859 6229c180,0 325,145 325,325 0,179 -145,325 -325,325 -179,0 -325,-146 -325,-325 0,-180 146,-325 325,-325z"/>
  <path class="fil0 str0" d="M33049 6229c180,0 325,145 325,325 0,179 -145,325 -325,325 -179,0 -325,-146 -325,-325 0,-180 146,-325 325,-325z"/>
  <path class="fil0 str0" d="M20480 7180c179,0 325,145 325,325 0,179 -146,325 -325,325 -180,0 -325,-146 -325,-325 0,-180 145,-325 325,-325z"/>
  <path class="fil0 str0" d="M24667 7180c180,0 325,145 325,325 0,179 -145,325 -325,325 -179,0 -325,-146 -325,-325 0,-180 146,-325 325,-325z"/>
  <path class="fil0 str0" d="M28859 7180c180,0 325,145 325,325 0,179 -145,325 -325,325 -179,0 -325,-146 -325,-325 0,-180 146,-325 325,-325z"/>
  <path class="fil0 str0" d="M33049 7180c180,0 325,145 325,325 0,179 -145,325 -325,325 -179,0 -325,-146 -325,-325 0,-180 146,-325 325,-325z"/>
  <path class="fil0 str0" d="M21750 6866c179,0 325,146 325,325 0,180 -146,325 -325,325 -180,0 -325,-145 -325,-325 0,-179 145,-325 325,-325z"/>
  <path class="fil0 str0" d="M23271 6866c180,0 325,146 325,325 0,180 -145,325 -325,325 -179,0 -325,-145 -325,-325 0,-179 146,-325 325,-325z"/>
  <path class="fil0 str0" d="M25938 6866c179,0 325,146 325,325 0,180 -146,325 -325,325 -180,0 -325,-145 -325,-325 0,-179 145,-325 325,-325z"/>
  <path class="fil0 str0" d="M27465 6866c179,0 325,146 325,325 0,180 -146,325 -325,325 -180,0 -325,-145 -325,-325 0,-179 145,-325 325,-325z"/>
  <path class="fil0 str0" d="M30127 6866c179,0 325,146 325,325 0,180 -146,325 -325,325 -180,0 -325,-145 -325,-325 0,-179 145,-325 325,-325z"/>
  <path class="fil0 str0" d="M31655 6866c180,0 325,146 325,325 0,180 -145,325 -325,325 -179,0 -325,-145 -325,-325 0,-179 146,-325 325,-325z"/>
  <path class="fil0 str0" d="M34322 6866c180,0 325,146 325,325 0,180 -145,325 -325,325 -179,0 -325,-145 -325,-325 0,-179 146,-325 325,-325z"/>
  <path class="fil0 str0" d="M2329 8522c88,0 160,72 160,160 0,89 -72,160 -160,160l-200 0c-88,0 -160,-71 -160,-160 0,-88 72,-160 160,-160l200 0z"/>
  <path class="fil0 str0" d="M17583 8522c88,0 160,72 160,160 0,89 -72,160 -160,160l-200 0c-89,0 -160,-71 -160,-160 0,-88 71,-160 160,-160l200 0z"/>
  <path class="fil0 str0" d="M17583 5158c88,0 160,71 160,160 0,88 -72,160 -160,160l-200 0c-89,0 -160,-72 -160,-160 0,-89 71,-160 160,-160l200 0z"/>
  <path class="fil0 str0" d="M19981 4984c88,0 160,71 160,160 0,88 -72,160 -160,160l-200 0c-89,0 -160,-72 -160,-160 0,-89 71,-160 160,-160l200 0z"/>
  <path class="fil0 str0" d="M19981 8702c88,0 160,72 160,160 0,88 -72,160 -160,160l-200 0c-89,0 -160,-72 -160,-160 0,-88 71,-160 160,-160l200 0z"/>
  <path class="fil0 str0" d="M35232 8702c88,0 160,72 160,160 0,88 -72,160 -160,160l-200 0c-89,0 -160,-72 -160,-160 0,-88 71,-160 160,-160l200 0z"/>
  <path class="fil0 str0" d="M35232 4984c88,0 160,71 160,160 0,88 -72,160 -160,160l-200 0c-89,0 -160,-72 -160,-160 0,-89 71,-160 160,-160l200 0z"/>
 </g>
</svg>
